solid OpenSCAD_Model
  facet normal 0 0 -1
    outer loop
      vertex 9.19252 -7.71344 -4
      vertex 9.19252 7.71344 -4
      vertex 12 0 -4
    endloop
  endfacet
  facet normal 0 0 -1
    outer loop
      vertex 2.08377 -11.8177 -4
      vertex 9.19252 7.71344 -4
      vertex 9.19252 -7.71344 -4
    endloop
  endfacet
  facet normal 0 0 -1
    outer loop
      vertex 2.08377 -11.8177 -4
      vertex 2.08377 11.8177 -4
      vertex 9.19252 7.71344 -4
    endloop
  endfacet
  facet normal 0 0 -1
    outer loop
      vertex 2.08377 -11.8177 -4
      vertex -5.99998 10.3923 -4
      vertex 2.08377 11.8177 -4
    endloop
  endfacet
  facet normal 0 0 -1
    outer loop
      vertex -6 -10.3923 -4
      vertex -5.99998 10.3923 -4
      vertex 2.08377 -11.8177 -4
    endloop
  endfacet
  facet normal 0 0 -1
    outer loop
      vertex -11.2763 -4.10423 -4
      vertex -5.99998 10.3923 -4
      vertex -6 -10.3923 -4
    endloop
  endfacet
  facet normal 0 0 -1
    outer loop
      vertex -5.99998 10.3923 -4
      vertex -11.2763 -4.10423 -4
      vertex -11.2763 4.10423 -4
    endloop
  endfacet
  facet normal 0 0 1
    outer loop
      vertex 9.19252 7.71344 -1
      vertex 11 0 -1
      vertex 12 0 -1
    endloop
  endfacet
  facet normal 0 0 1
    outer loop
      vertex 9.19252 7.71344 -1
      vertex 8.42648 7.07066 -1
      vertex 11 0 -1
    endloop
  endfacet
  facet normal 0 0 1
    outer loop
      vertex 2.08377 11.8177 -1
      vertex 8.42648 7.07066 -1
      vertex 9.19252 7.71344 -1
    endloop
  endfacet
  facet normal 0 0 1
    outer loop
      vertex 2.08377 11.8177 -1
      vertex 1.91013 10.8329 -1
      vertex 8.42648 7.07066 -1
    endloop
  endfacet
  facet normal 0 0 1
    outer loop
      vertex 2.08377 11.8177 -1
      vertex -5.49998 9.52628 -1
      vertex 1.91013 10.8329 -1
    endloop
  endfacet
  facet normal -0 0 1
    outer loop
      vertex -5.99998 10.3923 -1
      vertex -5.49998 9.52628 -1
      vertex 2.08377 11.8177 -1
    endloop
  endfacet
  facet normal 0 0 1
    outer loop
      vertex -5.99998 10.3923 -1
      vertex -10.3366 3.76221 -1
      vertex -5.49998 9.52628 -1
    endloop
  endfacet
  facet normal 0 0 1
    outer loop
      vertex -10.3366 3.76221 -1
      vertex -11.2763 4.10423 -1
      vertex -10.3366 -3.76221 -1
    endloop
  endfacet
  facet normal -0 0 1
    outer loop
      vertex -11.2763 4.10423 -1
      vertex -10.3366 3.76221 -1
      vertex -5.99998 10.3923 -1
    endloop
  endfacet
  facet normal -0 0 1
    outer loop
      vertex 11 0 -1
      vertex 9.19252 -7.71344 -1
      vertex 12 0 -1
    endloop
  endfacet
  facet normal -0 0 1
    outer loop
      vertex 8.42648 -7.07066 -1
      vertex 9.19252 -7.71344 -1
      vertex 11 0 -1
    endloop
  endfacet
  facet normal 0 0 1
    outer loop
      vertex 8.42648 -7.07066 -1
      vertex 2.08377 -11.8177 -1
      vertex 9.19252 -7.71344 -1
    endloop
  endfacet
  facet normal -0 0 1
    outer loop
      vertex 1.91013 -10.8329 -1
      vertex 2.08377 -11.8177 -1
      vertex 8.42648 -7.07066 -1
    endloop
  endfacet
  facet normal 0 0 1
    outer loop
      vertex -5.5 -9.52628 -1
      vertex 2.08377 -11.8177 -1
      vertex 1.91013 -10.8329 -1
    endloop
  endfacet
  facet normal 0 0 1
    outer loop
      vertex -5.5 -9.52628 -1
      vertex -6 -10.3923 -1
      vertex 2.08377 -11.8177 -1
    endloop
  endfacet
  facet normal 0 0 1
    outer loop
      vertex -10.3366 -3.76221 -1
      vertex -6 -10.3923 -1
      vertex -5.5 -9.52628 -1
    endloop
  endfacet
  facet normal 0 0 1
    outer loop
      vertex -10.3366 -3.76221 -1
      vertex -11.2763 -4.10423 -1
      vertex -6 -10.3923 -1
    endloop
  endfacet
  facet normal 0 0 1
    outer loop
      vertex -11.2763 -4.10423 -1
      vertex -10.3366 -3.76221 -1
      vertex -11.2763 4.10423 -1
    endloop
  endfacet
  facet normal 0.939692 -0.342022 0
    outer loop
      vertex 9.19252 -7.71344 -1
      vertex 12 0 -4
      vertex 12 0 -1
    endloop
  endfacet
  facet normal 0.939692 -0.342022 0
    outer loop
      vertex 12 0 -4
      vertex 9.19252 -7.71344 -1
      vertex 9.19252 -7.71344 -4
    endloop
  endfacet
  facet normal 0.939692 0.342022 0
    outer loop
      vertex 12 0 -1
      vertex 9.19252 7.71344 -4
      vertex 9.19252 7.71344 -1
    endloop
  endfacet
  facet normal 0.939692 0.342022 0
    outer loop
      vertex 9.19252 7.71344 -4
      vertex 12 0 -1
      vertex 12 0 -4
    endloop
  endfacet
  facet normal 0.500001 0.866025 -0
    outer loop
      vertex 9.19252 7.71344 -4
      vertex 2.08377 11.8177 -1
      vertex 9.19252 7.71344 -1
    endloop
  endfacet
  facet normal 0.500001 0.866025 0
    outer loop
      vertex 2.08377 11.8177 -1
      vertex 9.19252 7.71344 -4
      vertex 2.08377 11.8177 -4
    endloop
  endfacet
  facet normal -0.173648 0.984808 0
    outer loop
      vertex 2.08377 11.8177 -4
      vertex -5.99998 10.3923 -1
      vertex 2.08377 11.8177 -1
    endloop
  endfacet
  facet normal -0.173648 0.984808 0
    outer loop
      vertex -5.99998 10.3923 -1
      vertex 2.08377 11.8177 -4
      vertex -5.99998 10.3923 -4
    endloop
  endfacet
  facet normal -0.766044 0.642788 0
    outer loop
      vertex -11.2763 4.10423 -4
      vertex -5.99998 10.3923 -1
      vertex -5.99998 10.3923 -4
    endloop
  endfacet
  facet normal -0.766044 0.642788 0
    outer loop
      vertex -5.99998 10.3923 -1
      vertex -11.2763 4.10423 -4
      vertex -11.2763 4.10423 -1
    endloop
  endfacet
  facet normal -1 0 0
    outer loop
      vertex -11.2763 -4.10423 -4
      vertex -11.2763 4.10423 -1
      vertex -11.2763 4.10423 -4
    endloop
  endfacet
  facet normal -1 -0 0
    outer loop
      vertex -11.2763 4.10423 -1
      vertex -11.2763 -4.10423 -4
      vertex -11.2763 -4.10423 -1
    endloop
  endfacet
  facet normal -0.766045 -0.642787 0
    outer loop
      vertex -6 -10.3923 -4
      vertex -11.2763 -4.10423 -1
      vertex -11.2763 -4.10423 -4
    endloop
  endfacet
  facet normal -0.766045 -0.642787 0
    outer loop
      vertex -11.2763 -4.10423 -1
      vertex -6 -10.3923 -4
      vertex -6 -10.3923 -1
    endloop
  endfacet
  facet normal -0.173648 -0.984808 0
    outer loop
      vertex -6 -10.3923 -4
      vertex 2.08377 -11.8177 -1
      vertex -6 -10.3923 -1
    endloop
  endfacet
  facet normal -0.173648 -0.984808 -0
    outer loop
      vertex 2.08377 -11.8177 -1
      vertex -6 -10.3923 -4
      vertex 2.08377 -11.8177 -4
    endloop
  endfacet
  facet normal 0.500001 -0.866025 0
    outer loop
      vertex 2.08377 -11.8177 -4
      vertex 9.19252 -7.71344 -1
      vertex 2.08377 -11.8177 -1
    endloop
  endfacet
  facet normal 0.500001 -0.866025 0
    outer loop
      vertex 9.19252 -7.71344 -1
      vertex 2.08377 -11.8177 -4
      vertex 9.19252 -7.71344 -4
    endloop
  endfacet
  facet normal 0.20791 0.978148 -0
    outer loop
      vertex -0.418106 -3.97807 -1
      vertex -1.23605 -3.80421 4
      vertex -0.418106 -3.97807 4
    endloop
  endfacet
  facet normal 0.20791 0.978148 0
    outer loop
      vertex -1.23605 -3.80421 4
      vertex -0.418106 -3.97807 -1
      vertex -1.23605 -3.80421 -1
    endloop
  endfacet
  facet normal 0.406724 0.913551 -0
    outer loop
      vertex -1.23605 -3.80421 -1
      vertex -2 -3.4641 4
      vertex -1.23605 -3.80421 4
    endloop
  endfacet
  facet normal 0.406724 0.913551 0
    outer loop
      vertex -2 -3.4641 4
      vertex -1.23605 -3.80421 -1
      vertex -2 -3.4641 -1
    endloop
  endfacet
  facet normal 0.587797 0.809008 -0
    outer loop
      vertex -2 -3.4641 -1
      vertex -2.67651 -2.97256 4
      vertex -2 -3.4641 4
    endloop
  endfacet
  facet normal 0.587797 0.809008 0
    outer loop
      vertex -2.67651 -2.97256 4
      vertex -2 -3.4641 -1
      vertex -2.67651 -2.97256 -1
    endloop
  endfacet
  facet normal 0.743144 0.669132 0
    outer loop
      vertex -2.67651 -2.97256 4
      vertex -3.23605 -2.35114 -1
      vertex -3.23605 -2.35114 4
    endloop
  endfacet
  facet normal 0.743144 0.669132 0
    outer loop
      vertex -3.23605 -2.35114 -1
      vertex -2.67651 -2.97256 4
      vertex -2.67651 -2.97256 -1
    endloop
  endfacet
  facet normal 0.866022 0.500005 0
    outer loop
      vertex -3.23605 -2.35114 4
      vertex -3.65417 -1.62694 -1
      vertex -3.65417 -1.62694 4
    endloop
  endfacet
  facet normal 0.866022 0.500005 0
    outer loop
      vertex -3.65417 -1.62694 -1
      vertex -3.23605 -2.35114 4
      vertex -3.23605 -2.35114 -1
    endloop
  endfacet
  facet normal 0.951057 0.309015 0
    outer loop
      vertex -3.65417 -1.62694 4
      vertex -3.91258 -0.831635 -1
      vertex -3.91258 -0.831635 4
    endloop
  endfacet
  facet normal 0.951057 0.309015 0
    outer loop
      vertex -3.91258 -0.831635 -1
      vertex -3.65417 -1.62694 4
      vertex -3.65417 -1.62694 -1
    endloop
  endfacet
  facet normal 0.994521 0.104539 0
    outer loop
      vertex -3.91258 -0.831635 4
      vertex -4 0 -1
      vertex -4 0 4
    endloop
  endfacet
  facet normal 0.994521 0.104539 0
    outer loop
      vertex -4 0 -1
      vertex -3.91258 -0.831635 4
      vertex -3.91258 -0.831635 -1
    endloop
  endfacet
  facet normal 0.994521 -0.104539 0
    outer loop
      vertex -4 0 4
      vertex -3.91258 0.831635 -1
      vertex -3.91258 0.831635 4
    endloop
  endfacet
  facet normal 0.994521 -0.104539 0
    outer loop
      vertex -3.91258 0.831635 -1
      vertex -4 0 4
      vertex -4 0 -1
    endloop
  endfacet
  facet normal 0.951057 -0.309015 0
    outer loop
      vertex -3.91258 0.831635 4
      vertex -3.65417 1.62694 -1
      vertex -3.65417 1.62694 4
    endloop
  endfacet
  facet normal 0.951057 -0.309015 0
    outer loop
      vertex -3.65417 1.62694 -1
      vertex -3.91258 0.831635 4
      vertex -3.91258 0.831635 -1
    endloop
  endfacet
  facet normal 0.866022 -0.500005 0
    outer loop
      vertex -3.65417 1.62694 4
      vertex -3.23605 2.35114 -1
      vertex -3.23605 2.35114 4
    endloop
  endfacet
  facet normal 0.866022 -0.500005 0
    outer loop
      vertex -3.23605 2.35114 -1
      vertex -3.65417 1.62694 4
      vertex -3.65417 1.62694 -1
    endloop
  endfacet
  facet normal 0.743144 -0.669132 0
    outer loop
      vertex -3.23605 2.35114 4
      vertex -2.67651 2.97256 -1
      vertex -2.67651 2.97256 4
    endloop
  endfacet
  facet normal 0.743144 -0.669132 0
    outer loop
      vertex -2.67651 2.97256 -1
      vertex -3.23605 2.35114 4
      vertex -3.23605 2.35114 -1
    endloop
  endfacet
  facet normal 0.587789 -0.809015 0
    outer loop
      vertex -2.67651 2.97256 -1
      vertex -1.99998 3.4641 4
      vertex -2.67651 2.97256 4
    endloop
  endfacet
  facet normal 0.587789 -0.809015 0
    outer loop
      vertex -1.99998 3.4641 4
      vertex -2.67651 2.97256 -1
      vertex -1.99998 3.4641 -1
    endloop
  endfacet
  facet normal 0.406731 -0.913548 0
    outer loop
      vertex -1.99998 3.4641 -1
      vertex -1.23605 3.80421 4
      vertex -1.99998 3.4641 4
    endloop
  endfacet
  facet normal 0.406731 -0.913548 0
    outer loop
      vertex -1.23605 3.80421 4
      vertex -1.99998 3.4641 -1
      vertex -1.23605 3.80421 -1
    endloop
  endfacet
  facet normal 0.20791 -0.978148 0
    outer loop
      vertex -1.23605 3.80421 -1
      vertex -0.418106 3.97807 4
      vertex -1.23605 3.80421 4
    endloop
  endfacet
  facet normal 0.20791 -0.978148 0
    outer loop
      vertex -0.418106 3.97807 4
      vertex -1.23605 3.80421 -1
      vertex -0.418106 3.97807 -1
    endloop
  endfacet
  facet normal 0 -1 0
    outer loop
      vertex -0.418106 3.97807 -1
      vertex 0.418106 3.97807 4
      vertex -0.418106 3.97807 4
    endloop
  endfacet
  facet normal 0 -1 -0
    outer loop
      vertex 0.418106 3.97807 4
      vertex -0.418106 3.97807 -1
      vertex 0.418106 3.97807 -1
    endloop
  endfacet
  facet normal -0.20791 -0.978148 0
    outer loop
      vertex 0.418106 3.97807 -1
      vertex 1.23605 3.80421 4
      vertex 0.418106 3.97807 4
    endloop
  endfacet
  facet normal -0.20791 -0.978148 -0
    outer loop
      vertex 1.23605 3.80421 4
      vertex 0.418106 3.97807 -1
      vertex 1.23605 3.80421 -1
    endloop
  endfacet
  facet normal -0.406724 -0.913551 0
    outer loop
      vertex 1.23605 3.80421 -1
      vertex 2 3.4641 4
      vertex 1.23605 3.80421 4
    endloop
  endfacet
  facet normal -0.406724 -0.913551 -0
    outer loop
      vertex 2 3.4641 4
      vertex 1.23605 3.80421 -1
      vertex 2 3.4641 -1
    endloop
  endfacet
  facet normal -0.587797 -0.809008 0
    outer loop
      vertex 2 3.4641 -1
      vertex 2.67651 2.97256 4
      vertex 2 3.4641 4
    endloop
  endfacet
  facet normal -0.587797 -0.809008 -0
    outer loop
      vertex 2.67651 2.97256 4
      vertex 2 3.4641 -1
      vertex 2.67651 2.97256 -1
    endloop
  endfacet
  facet normal -0.743144 -0.669132 0
    outer loop
      vertex 3.23605 2.35114 -1
      vertex 2.67651 2.97256 4
      vertex 2.67651 2.97256 -1
    endloop
  endfacet
  facet normal -0.743144 -0.669132 0
    outer loop
      vertex 2.67651 2.97256 4
      vertex 3.23605 2.35114 -1
      vertex 3.23605 2.35114 4
    endloop
  endfacet
  facet normal -0.866022 -0.500005 0
    outer loop
      vertex 3.65417 1.62694 -1
      vertex 3.23605 2.35114 4
      vertex 3.23605 2.35114 -1
    endloop
  endfacet
  facet normal -0.866022 -0.500005 0
    outer loop
      vertex 3.23605 2.35114 4
      vertex 3.65417 1.62694 -1
      vertex 3.65417 1.62694 4
    endloop
  endfacet
  facet normal -0.951057 -0.309015 0
    outer loop
      vertex 3.91258 0.831635 -1
      vertex 3.65417 1.62694 4
      vertex 3.65417 1.62694 -1
    endloop
  endfacet
  facet normal -0.951057 -0.309015 0
    outer loop
      vertex 3.65417 1.62694 4
      vertex 3.91258 0.831635 -1
      vertex 3.91258 0.831635 4
    endloop
  endfacet
  facet normal -0.994521 -0.104539 0
    outer loop
      vertex 4 0 -1
      vertex 3.91258 0.831635 4
      vertex 3.91258 0.831635 -1
    endloop
  endfacet
  facet normal -0.994521 -0.104539 0
    outer loop
      vertex 3.91258 0.831635 4
      vertex 4 0 -1
      vertex 4 0 4
    endloop
  endfacet
  facet normal -0.994521 0.104539 0
    outer loop
      vertex 3.91258 -0.831635 -1
      vertex 4 0 4
      vertex 4 0 -1
    endloop
  endfacet
  facet normal -0.994521 0.104539 0
    outer loop
      vertex 4 0 4
      vertex 3.91258 -0.831635 -1
      vertex 3.91258 -0.831635 4
    endloop
  endfacet
  facet normal -0.951057 0.309015 0
    outer loop
      vertex 3.65417 -1.62694 -1
      vertex 3.91258 -0.831635 4
      vertex 3.91258 -0.831635 -1
    endloop
  endfacet
  facet normal -0.951057 0.309015 0
    outer loop
      vertex 3.91258 -0.831635 4
      vertex 3.65417 -1.62694 -1
      vertex 3.65417 -1.62694 4
    endloop
  endfacet
  facet normal -0.866022 0.500005 0
    outer loop
      vertex 3.23605 -2.35114 -1
      vertex 3.65417 -1.62694 4
      vertex 3.65417 -1.62694 -1
    endloop
  endfacet
  facet normal -0.866022 0.500005 0
    outer loop
      vertex 3.65417 -1.62694 4
      vertex 3.23605 -2.35114 -1
      vertex 3.23605 -2.35114 4
    endloop
  endfacet
  facet normal -0.743144 0.669132 0
    outer loop
      vertex 2.67651 -2.97256 -1
      vertex 3.23605 -2.35114 4
      vertex 3.23605 -2.35114 -1
    endloop
  endfacet
  facet normal -0.743144 0.669132 0
    outer loop
      vertex 3.23605 -2.35114 4
      vertex 2.67651 -2.97256 -1
      vertex 2.67651 -2.97256 4
    endloop
  endfacet
  facet normal -0.587797 0.809008 0
    outer loop
      vertex 2.67651 -2.97256 -1
      vertex 2 -3.4641 4
      vertex 2.67651 -2.97256 4
    endloop
  endfacet
  facet normal -0.587797 0.809008 0
    outer loop
      vertex 2 -3.4641 4
      vertex 2.67651 -2.97256 -1
      vertex 2 -3.4641 -1
    endloop
  endfacet
  facet normal -0.406724 0.913551 0
    outer loop
      vertex 2 -3.4641 -1
      vertex 1.23605 -3.80421 4
      vertex 2 -3.4641 4
    endloop
  endfacet
  facet normal -0.406724 0.913551 0
    outer loop
      vertex 1.23605 -3.80421 4
      vertex 2 -3.4641 -1
      vertex 1.23605 -3.80421 -1
    endloop
  endfacet
  facet normal -0.20791 0.978148 0
    outer loop
      vertex 1.23605 -3.80421 -1
      vertex 0.418106 -3.97807 4
      vertex 1.23605 -3.80421 4
    endloop
  endfacet
  facet normal -0.20791 0.978148 0
    outer loop
      vertex 0.418106 -3.97807 4
      vertex 1.23605 -3.80421 -1
      vertex 0.418106 -3.97807 -1
    endloop
  endfacet
  facet normal 0 1 -0
    outer loop
      vertex 0.418106 -3.97807 -1
      vertex -0.418106 -3.97807 4
      vertex 0.418106 -3.97807 4
    endloop
  endfacet
  facet normal 0 1 0
    outer loop
      vertex -0.418106 -3.97807 4
      vertex 0.418106 -3.97807 -1
      vertex -0.418106 -3.97807 -1
    endloop
  endfacet
  facet normal 0 0 1
    outer loop
      vertex 8.42648 7.07066 1
      vertex 9 0 1
      vertex 11 0 1
    endloop
  endfacet
  facet normal 0 0 1
    outer loop
      vertex 8.42648 7.07066 1
      vertex 2.78114 8.55949 1
      vertex 9 0 1
    endloop
  endfacet
  facet normal 0 0 1
    outer loop
      vertex 1.91013 10.8329 1
      vertex 2.78114 8.55949 1
      vertex 8.42648 7.07066 1
    endloop
  endfacet
  facet normal -0 0 1
    outer loop
      vertex -5.49998 9.52628 1
      vertex 2.78114 8.55949 1
      vertex 1.91013 10.8329 1
    endloop
  endfacet
  facet normal 0 0 1
    outer loop
      vertex -5.49998 9.52628 1
      vertex -7.28114 5.29005 1
      vertex 2.78114 8.55949 1
    endloop
  endfacet
  facet normal 0 0 1
    outer loop
      vertex -7.28114 5.29005 1
      vertex -10.3366 3.76221 1
      vertex -7.28114 -5.29005 1
    endloop
  endfacet
  facet normal 0 0 1
    outer loop
      vertex -10.3366 3.76221 1
      vertex -7.28114 5.29005 1
      vertex -5.49998 9.52628 1
    endloop
  endfacet
  facet normal -0 0 1
    outer loop
      vertex 9 0 1
      vertex 8.42648 -7.07066 1
      vertex 11 0 1
    endloop
  endfacet
  facet normal 0 0 1
    outer loop
      vertex 2.78114 -8.55949 1
      vertex 8.42648 -7.07066 1
      vertex 9 0 1
    endloop
  endfacet
  facet normal -0 0 1
    outer loop
      vertex 2.78114 -8.55949 1
      vertex 1.91013 -10.8329 1
      vertex 8.42648 -7.07066 1
    endloop
  endfacet
  facet normal 0 0 1
    outer loop
      vertex 2.78114 -8.55949 1
      vertex -5.5 -9.52628 1
      vertex 1.91013 -10.8329 1
    endloop
  endfacet
  facet normal 0 0 1
    outer loop
      vertex -7.28114 -5.29005 1
      vertex -5.5 -9.52628 1
      vertex 2.78114 -8.55949 1
    endloop
  endfacet
  facet normal 0 0 1
    outer loop
      vertex -7.28114 -5.29005 1
      vertex -10.3366 -3.76221 1
      vertex -5.5 -9.52628 1
    endloop
  endfacet
  facet normal -0 0 1
    outer loop
      vertex -10.3366 -3.76221 1
      vertex -7.28114 -5.29005 1
      vertex -10.3366 3.76221 1
    endloop
  endfacet
  facet normal 0.939692 -0.342021 0
    outer loop
      vertex 8.42648 -7.07066 1
      vertex 11 0 -1
      vertex 11 0 1
    endloop
  endfacet
  facet normal 0.939692 -0.342021 0
    outer loop
      vertex 11 0 -1
      vertex 8.42648 -7.07066 1
      vertex 8.42648 -7.07066 -1
    endloop
  endfacet
  facet normal 0.939692 0.342021 0
    outer loop
      vertex 11 0 1
      vertex 8.42648 7.07066 -1
      vertex 8.42648 7.07066 1
    endloop
  endfacet
  facet normal 0.939692 0.342021 0
    outer loop
      vertex 8.42648 7.07066 -1
      vertex 11 0 1
      vertex 11 0 -1
    endloop
  endfacet
  facet normal 0.499999 0.866026 -0
    outer loop
      vertex 8.42648 7.07066 -1
      vertex 1.91013 10.8329 1
      vertex 8.42648 7.07066 1
    endloop
  endfacet
  facet normal 0.499999 0.866026 0
    outer loop
      vertex 1.91013 10.8329 1
      vertex 8.42648 7.07066 -1
      vertex 1.91013 10.8329 -1
    endloop
  endfacet
  facet normal -0.173647 0.984808 0
    outer loop
      vertex 1.91013 10.8329 -1
      vertex -5.49998 9.52628 1
      vertex 1.91013 10.8329 1
    endloop
  endfacet
  facet normal -0.173647 0.984808 0
    outer loop
      vertex -5.49998 9.52628 1
      vertex 1.91013 10.8329 -1
      vertex -5.49998 9.52628 -1
    endloop
  endfacet
  facet normal -0.766045 0.642787 0
    outer loop
      vertex -10.3366 3.76221 -1
      vertex -5.49998 9.52628 1
      vertex -5.49998 9.52628 -1
    endloop
  endfacet
  facet normal -0.766045 0.642787 0
    outer loop
      vertex -5.49998 9.52628 1
      vertex -10.3366 3.76221 -1
      vertex -10.3366 3.76221 1
    endloop
  endfacet
  facet normal -1 0 0
    outer loop
      vertex -10.3366 -3.76221 -1
      vertex -10.3366 3.76221 1
      vertex -10.3366 3.76221 -1
    endloop
  endfacet
  facet normal -1 -0 0
    outer loop
      vertex -10.3366 3.76221 1
      vertex -10.3366 -3.76221 -1
      vertex -10.3366 -3.76221 1
    endloop
  endfacet
  facet normal -0.766046 -0.642786 0
    outer loop
      vertex -5.5 -9.52628 -1
      vertex -10.3366 -3.76221 1
      vertex -10.3366 -3.76221 -1
    endloop
  endfacet
  facet normal -0.766046 -0.642786 0
    outer loop
      vertex -10.3366 -3.76221 1
      vertex -5.5 -9.52628 -1
      vertex -5.5 -9.52628 1
    endloop
  endfacet
  facet normal -0.173647 -0.984808 0
    outer loop
      vertex -5.5 -9.52628 -1
      vertex 1.91013 -10.8329 1
      vertex -5.5 -9.52628 1
    endloop
  endfacet
  facet normal -0.173647 -0.984808 -0
    outer loop
      vertex 1.91013 -10.8329 1
      vertex -5.5 -9.52628 -1
      vertex 1.91013 -10.8329 -1
    endloop
  endfacet
  facet normal 0.499999 -0.866026 0
    outer loop
      vertex 1.91013 -10.8329 -1
      vertex 8.42648 -7.07066 1
      vertex 1.91013 -10.8329 1
    endloop
  endfacet
  facet normal 0.499999 -0.866026 0
    outer loop
      vertex 8.42648 -7.07066 1
      vertex 1.91013 -10.8329 -1
      vertex 8.42648 -7.07066 -1
    endloop
  endfacet
  facet normal 0 0 1
    outer loop
      vertex 9 0 4
      vertex 3.91258 0.831635 4
      vertex 4 0 4
    endloop
  endfacet
  facet normal 0 0 1
    outer loop
      vertex 9 0 4
      vertex 3.65417 1.62694 4
      vertex 3.91258 0.831635 4
    endloop
  endfacet
  facet normal 0 0 1
    outer loop
      vertex 9 0 4
      vertex 3.23605 2.35114 4
      vertex 3.65417 1.62694 4
    endloop
  endfacet
  facet normal 0 0 1
    outer loop
      vertex 2.78114 8.55949 4
      vertex 3.23605 2.35114 4
      vertex 9 0 4
    endloop
  endfacet
  facet normal 0 0 1
    outer loop
      vertex 2.78114 8.55949 4
      vertex 2.67651 2.97256 4
      vertex 3.23605 2.35114 4
    endloop
  endfacet
  facet normal 0 0 1
    outer loop
      vertex 2.78114 8.55949 4
      vertex 2 3.4641 4
      vertex 2.67651 2.97256 4
    endloop
  endfacet
  facet normal 0 0 1
    outer loop
      vertex 2.78114 8.55949 4
      vertex 1.23605 3.80421 4
      vertex 2 3.4641 4
    endloop
  endfacet
  facet normal 0 0 1
    outer loop
      vertex 2.78114 8.55949 4
      vertex 0.418106 3.97807 4
      vertex 1.23605 3.80421 4
    endloop
  endfacet
  facet normal 0 0 1
    outer loop
      vertex 2.78114 8.55949 4
      vertex -0.418106 3.97807 4
      vertex 0.418106 3.97807 4
    endloop
  endfacet
  facet normal 0 0 1
    outer loop
      vertex 2.78114 8.55949 4
      vertex -1.23605 3.80421 4
      vertex -0.418106 3.97807 4
    endloop
  endfacet
  facet normal -0 0 1
    outer loop
      vertex -7.28114 5.29005 4
      vertex -1.23605 3.80421 4
      vertex 2.78114 8.55949 4
    endloop
  endfacet
  facet normal 0 0 1
    outer loop
      vertex -1.23605 3.80421 4
      vertex -7.28114 5.29005 4
      vertex -1.99998 3.4641 4
    endloop
  endfacet
  facet normal 0 0 1
    outer loop
      vertex -3.91258 0.831635 4
      vertex -7.28114 5.29005 4
      vertex -4 0 4
    endloop
  endfacet
  facet normal 0 0 1
    outer loop
      vertex -3.65417 1.62694 4
      vertex -7.28114 5.29005 4
      vertex -3.91258 0.831635 4
    endloop
  endfacet
  facet normal 0 0 1
    outer loop
      vertex -3.23605 2.35114 4
      vertex -7.28114 5.29005 4
      vertex -3.65417 1.62694 4
    endloop
  endfacet
  facet normal 0 0 1
    outer loop
      vertex -2.67651 2.97256 4
      vertex -7.28114 5.29005 4
      vertex -3.23605 2.35114 4
    endloop
  endfacet
  facet normal 0 0 1
    outer loop
      vertex -1.99998 3.4641 4
      vertex -7.28114 5.29005 4
      vertex -2.67651 2.97256 4
    endloop
  endfacet
  facet normal 0 0 1
    outer loop
      vertex 3.91258 -0.831635 4
      vertex 9 0 4
      vertex 4 0 4
    endloop
  endfacet
  facet normal 0 0 1
    outer loop
      vertex 3.65417 -1.62694 4
      vertex 9 0 4
      vertex 3.91258 -0.831635 4
    endloop
  endfacet
  facet normal 0 0 1
    outer loop
      vertex 3.23605 -2.35114 4
      vertex 9 0 4
      vertex 3.65417 -1.62694 4
    endloop
  endfacet
  facet normal -0 0 1
    outer loop
      vertex 3.23605 -2.35114 4
      vertex 2.78114 -8.55949 4
      vertex 9 0 4
    endloop
  endfacet
  facet normal -0 0 1
    outer loop
      vertex 2.67651 -2.97256 4
      vertex 2.78114 -8.55949 4
      vertex 3.23605 -2.35114 4
    endloop
  endfacet
  facet normal -0 0 1
    outer loop
      vertex 2 -3.4641 4
      vertex 2.78114 -8.55949 4
      vertex 2.67651 -2.97256 4
    endloop
  endfacet
  facet normal -0 0 1
    outer loop
      vertex 1.23605 -3.80421 4
      vertex 2.78114 -8.55949 4
      vertex 2 -3.4641 4
    endloop
  endfacet
  facet normal -0 0 1
    outer loop
      vertex 0.418106 -3.97807 4
      vertex 2.78114 -8.55949 4
      vertex 1.23605 -3.80421 4
    endloop
  endfacet
  facet normal -0 0 1
    outer loop
      vertex -0.418106 -3.97807 4
      vertex 2.78114 -8.55949 4
      vertex 0.418106 -3.97807 4
    endloop
  endfacet
  facet normal 0 0 1
    outer loop
      vertex -1.23605 -3.80421 4
      vertex 2.78114 -8.55949 4
      vertex -0.418106 -3.97807 4
    endloop
  endfacet
  facet normal 0 0 1
    outer loop
      vertex -7.28114 -5.29005 4
      vertex -1.23605 -3.80421 4
      vertex -2 -3.4641 4
    endloop
  endfacet
  facet normal 0 0 1
    outer loop
      vertex -7.28114 -5.29005 4
      vertex -2 -3.4641 4
      vertex -2.67651 -2.97256 4
    endloop
  endfacet
  facet normal 0 0 1
    outer loop
      vertex -7.28114 -5.29005 4
      vertex -4 0 4
      vertex -7.28114 5.29005 4
    endloop
  endfacet
  facet normal 0 0 1
    outer loop
      vertex -4 0 4
      vertex -7.28114 -5.29005 4
      vertex -3.91258 -0.831635 4
    endloop
  endfacet
  facet normal 0 0 1
    outer loop
      vertex -1.23605 -3.80421 4
      vertex -7.28114 -5.29005 4
      vertex 2.78114 -8.55949 4
    endloop
  endfacet
  facet normal 0 0 1
    outer loop
      vertex -3.23605 -2.35114 4
      vertex -7.28114 -5.29005 4
      vertex -2.67651 -2.97256 4
    endloop
  endfacet
  facet normal 0 0 1
    outer loop
      vertex -3.65417 -1.62694 4
      vertex -7.28114 -5.29005 4
      vertex -3.23605 -2.35114 4
    endloop
  endfacet
  facet normal 0 0 1
    outer loop
      vertex -3.91258 -0.831635 4
      vertex -7.28114 -5.29005 4
      vertex -3.65417 -1.62694 4
    endloop
  endfacet
  facet normal 0.809016 0.587787 0
    outer loop
      vertex 9 0 4
      vertex 2.78114 8.55949 1
      vertex 2.78114 8.55949 4
    endloop
  endfacet
  facet normal 0.809016 0.587787 0
    outer loop
      vertex 2.78114 8.55949 1
      vertex 9 0 4
      vertex 9 0 1
    endloop
  endfacet
  facet normal -0.309017 0.951056 0
    outer loop
      vertex 2.78114 8.55949 1
      vertex -7.28114 5.29005 4
      vertex 2.78114 8.55949 4
    endloop
  endfacet
  facet normal -0.309017 0.951056 0
    outer loop
      vertex -7.28114 5.29005 4
      vertex 2.78114 8.55949 1
      vertex -7.28114 5.29005 1
    endloop
  endfacet
  facet normal -1 0 0
    outer loop
      vertex -7.28114 -5.29005 1
      vertex -7.28114 5.29005 4
      vertex -7.28114 5.29005 1
    endloop
  endfacet
  facet normal -1 -0 0
    outer loop
      vertex -7.28114 5.29005 4
      vertex -7.28114 -5.29005 1
      vertex -7.28114 -5.29005 4
    endloop
  endfacet
  facet normal -0.309017 -0.951056 0
    outer loop
      vertex -7.28114 -5.29005 1
      vertex 2.78114 -8.55949 4
      vertex -7.28114 -5.29005 4
    endloop
  endfacet
  facet normal -0.309017 -0.951056 -0
    outer loop
      vertex 2.78114 -8.55949 4
      vertex -7.28114 -5.29005 1
      vertex 2.78114 -8.55949 1
    endloop
  endfacet
  facet normal 0.809016 -0.587787 0
    outer loop
      vertex 2.78114 -8.55949 4
      vertex 9 0 1
      vertex 9 0 4
    endloop
  endfacet
  facet normal 0.809016 -0.587787 0
    outer loop
      vertex 9 0 1
      vertex 2.78114 -8.55949 4
      vertex 2.78114 -8.55949 1
    endloop
  endfacet
  facet normal 0 0 1
    outer loop
      vertex 3.91258 0.831635 -1
      vertex 3.91258 -0.831635 -1
      vertex 4 0 -1
    endloop
  endfacet
  facet normal 0 0 1
    outer loop
      vertex 3.65417 1.62694 -1
      vertex 3.91258 -0.831635 -1
      vertex 3.91258 0.831635 -1
    endloop
  endfacet
  facet normal 0 0 1
    outer loop
      vertex 3.65417 1.62694 -1
      vertex 3.65417 -1.62694 -1
      vertex 3.91258 -0.831635 -1
    endloop
  endfacet
  facet normal 0 0 1
    outer loop
      vertex 3.23605 2.35114 -1
      vertex 3.65417 -1.62694 -1
      vertex 3.65417 1.62694 -1
    endloop
  endfacet
  facet normal 0 0 1
    outer loop
      vertex 3.23605 2.35114 -1
      vertex 3.23605 -2.35114 -1
      vertex 3.65417 -1.62694 -1
    endloop
  endfacet
  facet normal 0 0 1
    outer loop
      vertex 2.67651 2.97256 -1
      vertex 3.23605 -2.35114 -1
      vertex 3.23605 2.35114 -1
    endloop
  endfacet
  facet normal 0 0 1
    outer loop
      vertex 2.67651 2.97256 -1
      vertex 2.67651 -2.97256 -1
      vertex 3.23605 -2.35114 -1
    endloop
  endfacet
  facet normal 0 0 1
    outer loop
      vertex 2 3.4641 -1
      vertex 2.67651 -2.97256 -1
      vertex 2.67651 2.97256 -1
    endloop
  endfacet
  facet normal 0 0 1
    outer loop
      vertex 2 3.4641 -1
      vertex 2 -3.4641 -1
      vertex 2.67651 -2.97256 -1
    endloop
  endfacet
  facet normal 0 0 1
    outer loop
      vertex 1.23605 3.80421 -1
      vertex 2 -3.4641 -1
      vertex 2 3.4641 -1
    endloop
  endfacet
  facet normal 0 0 1
    outer loop
      vertex 1.23605 3.80421 -1
      vertex 1.23605 -3.80421 -1
      vertex 2 -3.4641 -1
    endloop
  endfacet
  facet normal 0 0 1
    outer loop
      vertex 0.418106 3.97807 -1
      vertex 1.23605 -3.80421 -1
      vertex 1.23605 3.80421 -1
    endloop
  endfacet
  facet normal 0 0 1
    outer loop
      vertex 0.418106 3.97807 -1
      vertex 0.418106 -3.97807 -1
      vertex 1.23605 -3.80421 -1
    endloop
  endfacet
  facet normal -0 0 1
    outer loop
      vertex -0.418106 3.97807 -1
      vertex 0.418106 -3.97807 -1
      vertex 0.418106 3.97807 -1
    endloop
  endfacet
  facet normal 0 0 1
    outer loop
      vertex -0.418106 3.97807 -1
      vertex -0.418106 -3.97807 -1
      vertex 0.418106 -3.97807 -1
    endloop
  endfacet
  facet normal -0 0 1
    outer loop
      vertex -1.23605 3.80421 -1
      vertex -0.418106 -3.97807 -1
      vertex -0.418106 3.97807 -1
    endloop
  endfacet
  facet normal 0 0 1
    outer loop
      vertex -1.23605 3.80421 -1
      vertex -1.23605 -3.80421 -1
      vertex -0.418106 -3.97807 -1
    endloop
  endfacet
  facet normal -0 0 1
    outer loop
      vertex -1.99998 3.4641 -1
      vertex -1.23605 -3.80421 -1
      vertex -1.23605 3.80421 -1
    endloop
  endfacet
  facet normal 0 0 1
    outer loop
      vertex -1.99998 3.4641 -1
      vertex -2 -3.4641 -1
      vertex -1.23605 -3.80421 -1
    endloop
  endfacet
  facet normal -0 0 1
    outer loop
      vertex -2.67651 2.97256 -1
      vertex -2 -3.4641 -1
      vertex -1.99998 3.4641 -1
    endloop
  endfacet
  facet normal 0 0 1
    outer loop
      vertex -2.67651 2.97256 -1
      vertex -2.67651 -2.97256 -1
      vertex -2 -3.4641 -1
    endloop
  endfacet
  facet normal -0 0 1
    outer loop
      vertex -3.23605 2.35114 -1
      vertex -2.67651 -2.97256 -1
      vertex -2.67651 2.97256 -1
    endloop
  endfacet
  facet normal 0 0 1
    outer loop
      vertex -3.23605 2.35114 -1
      vertex -3.23605 -2.35114 -1
      vertex -2.67651 -2.97256 -1
    endloop
  endfacet
  facet normal -0 0 1
    outer loop
      vertex -3.65417 1.62694 -1
      vertex -3.23605 -2.35114 -1
      vertex -3.23605 2.35114 -1
    endloop
  endfacet
  facet normal 0 0 1
    outer loop
      vertex -3.65417 1.62694 -1
      vertex -3.65417 -1.62694 -1
      vertex -3.23605 -2.35114 -1
    endloop
  endfacet
  facet normal -0 0 1
    outer loop
      vertex -3.91258 0.831635 -1
      vertex -3.65417 -1.62694 -1
      vertex -3.65417 1.62694 -1
    endloop
  endfacet
  facet normal 0 0 1
    outer loop
      vertex -3.91258 0.831635 -1
      vertex -3.91258 -0.831635 -1
      vertex -3.65417 -1.62694 -1
    endloop
  endfacet
  facet normal 0 -0 1
    outer loop
      vertex -3.91258 -0.831635 -1
      vertex -3.91258 0.831635 -1
      vertex -4 0 -1
    endloop
  endfacet
endsolid OpenSCAD_Model
