solid OpenSCAD_Model
  facet normal 0 0 -1
    outer loop
      vertex 15.9382 -8.36501 -2.5
      vertex 15.9382 8.36501 -2.5
      vertex 18 0 -2.5
    endloop
  endfacet
  facet normal 0 0 -1
    outer loop
      vertex 10.2252 -14.8137 -2.5
      vertex 15.9382 8.36501 -2.5
      vertex 15.9382 -8.36501 -2.5
    endloop
  endfacet
  facet normal 0 0 -1
    outer loop
      vertex 10.2252 -14.8137 -2.5
      vertex 10.2252 14.8137 -2.5
      vertex 15.9382 8.36501 -2.5
    endloop
  endfacet
  facet normal 0 0 -1
    outer loop
      vertex 2.16965 -17.8688 -2.5
      vertex 10.2252 14.8137 -2.5
      vertex 10.2252 -14.8137 -2.5
    endloop
  endfacet
  facet normal 0 0 -1
    outer loop
      vertex 2.16965 -17.8688 -2.5
      vertex 2.16965 17.8688 -2.5
      vertex 10.2252 14.8137 -2.5
    endloop
  endfacet
  facet normal 0 0 -1
    outer loop
      vertex -6.38287 -16.8303 -2.5
      vertex 2.16965 17.8688 -2.5
      vertex 2.16965 -17.8688 -2.5
    endloop
  endfacet
  facet normal 0 0 -1
    outer loop
      vertex -6.38287 -16.8303 -2.5
      vertex -6.38287 16.8303 -2.5
      vertex 2.16965 17.8688 -2.5
    endloop
  endfacet
  facet normal 0 0 -1
    outer loop
      vertex -13.4732 -11.9362 -2.5
      vertex -6.38287 16.8303 -2.5
      vertex -6.38287 -16.8303 -2.5
    endloop
  endfacet
  facet normal 0 0 -1
    outer loop
      vertex -13.4732 -11.9362 -2.5
      vertex -13.4732 11.9362 -2.5
      vertex -6.38287 16.8303 -2.5
    endloop
  endfacet
  facet normal 0 0 -1
    outer loop
      vertex -17.4769 -4.30768 -2.5
      vertex -13.4732 11.9362 -2.5
      vertex -13.4732 -11.9362 -2.5
    endloop
  endfacet
  facet normal 0 0 -1
    outer loop
      vertex -13.4732 11.9362 -2.5
      vertex -17.4769 -4.30768 -2.5
      vertex -17.4769 4.30768 -2.5
    endloop
  endfacet
  facet normal -0 0 1
    outer loop
      vertex 3.91258 0.831635 2.5
      vertex 18 0 2.5
      vertex 15.9382 8.36501 2.5
    endloop
  endfacet
  facet normal 0 0 1
    outer loop
      vertex 3.23605 2.35114 2.5
      vertex 15.9382 8.36501 2.5
      vertex 10.2252 14.8137 2.5
    endloop
  endfacet
  facet normal 0 0 1
    outer loop
      vertex 18 0 2.5
      vertex 3.91258 0.831635 2.5
      vertex 4 0 2.5
    endloop
  endfacet
  facet normal 0 0 1
    outer loop
      vertex 18 0 2.5
      vertex 3.91258 -0.831635 2.5
      vertex 15.9382 -8.36501 2.5
    endloop
  endfacet
  facet normal 0 0 1
    outer loop
      vertex 3.91258 -0.831635 2.5
      vertex 18 0 2.5
      vertex 4 0 2.5
    endloop
  endfacet
  facet normal 0 0 1
    outer loop
      vertex 15.9382 8.36501 2.5
      vertex 3.65417 1.62694 2.5
      vertex 3.91258 0.831635 2.5
    endloop
  endfacet
  facet normal 0 0 1
    outer loop
      vertex 15.9382 8.36501 2.5
      vertex 3.23605 2.35114 2.5
      vertex 3.65417 1.62694 2.5
    endloop
  endfacet
  facet normal 0 0 1
    outer loop
      vertex 10.2252 14.8137 2.5
      vertex 2.67651 2.97256 2.5
      vertex 3.23605 2.35114 2.5
    endloop
  endfacet
  facet normal 0 0 1
    outer loop
      vertex 1.23605 3.80421 2.5
      vertex 10.2252 14.8137 2.5
      vertex 2.16965 17.8688 2.5
    endloop
  endfacet
  facet normal 0 0 1
    outer loop
      vertex 10.2252 14.8137 2.5
      vertex 2 3.4641 2.5
      vertex 2.67651 2.97256 2.5
    endloop
  endfacet
  facet normal 0 0 1
    outer loop
      vertex 10.2252 14.8137 2.5
      vertex 1.23605 3.80421 2.5
      vertex 2 3.4641 2.5
    endloop
  endfacet
  facet normal 0 0 1
    outer loop
      vertex 2.16965 17.8688 2.5
      vertex 0.418106 3.97807 2.5
      vertex 1.23605 3.80421 2.5
    endloop
  endfacet
  facet normal 0 0 1
    outer loop
      vertex 2.16965 17.8688 2.5
      vertex -0.418106 3.97807 2.5
      vertex 0.418106 3.97807 2.5
    endloop
  endfacet
  facet normal -0 0 1
    outer loop
      vertex -6.38287 16.8303 2.5
      vertex -0.418106 3.97807 2.5
      vertex 2.16965 17.8688 2.5
    endloop
  endfacet
  facet normal 0 0 1
    outer loop
      vertex -0.418106 3.97807 2.5
      vertex -6.38287 16.8303 2.5
      vertex -1.23605 3.80421 2.5
    endloop
  endfacet
  facet normal 0 0 1
    outer loop
      vertex -1.23605 3.80421 2.5
      vertex -6.38287 16.8303 2.5
      vertex -1.99998 3.4641 2.5
    endloop
  endfacet
  facet normal -0 0 1
    outer loop
      vertex -13.4732 11.9362 2.5
      vertex -1.99998 3.4641 2.5
      vertex -6.38287 16.8303 2.5
    endloop
  endfacet
  facet normal 0 0 1
    outer loop
      vertex -1.99998 3.4641 2.5
      vertex -13.4732 11.9362 2.5
      vertex -2.67651 2.97256 2.5
    endloop
  endfacet
  facet normal -0 0 1
    outer loop
      vertex -17.4769 4.30768 2.5
      vertex -3.65417 1.62694 2.5
      vertex -13.4732 11.9362 2.5
    endloop
  endfacet
  facet normal 0 0 1
    outer loop
      vertex -3.23605 2.35114 2.5
      vertex -13.4732 11.9362 2.5
      vertex -3.65417 1.62694 2.5
    endloop
  endfacet
  facet normal 0 0 1
    outer loop
      vertex -2.67651 2.97256 2.5
      vertex -13.4732 11.9362 2.5
      vertex -3.23605 2.35114 2.5
    endloop
  endfacet
  facet normal -0 0 1
    outer loop
      vertex 3.65417 -1.62694 2.5
      vertex 15.9382 -8.36501 2.5
      vertex 3.91258 -0.831635 2.5
    endloop
  endfacet
  facet normal -0 0 1
    outer loop
      vertex 3.23605 -2.35114 2.5
      vertex 15.9382 -8.36501 2.5
      vertex 3.65417 -1.62694 2.5
    endloop
  endfacet
  facet normal 0 0 1
    outer loop
      vertex 15.9382 -8.36501 2.5
      vertex 3.23605 -2.35114 2.5
      vertex 10.2252 -14.8137 2.5
    endloop
  endfacet
  facet normal -0 0 1
    outer loop
      vertex 2.67651 -2.97256 2.5
      vertex 10.2252 -14.8137 2.5
      vertex 3.23605 -2.35114 2.5
    endloop
  endfacet
  facet normal -0 0 1
    outer loop
      vertex 2 -3.4641 2.5
      vertex 10.2252 -14.8137 2.5
      vertex 2.67651 -2.97256 2.5
    endloop
  endfacet
  facet normal -0 0 1
    outer loop
      vertex 1.23605 -3.80421 2.5
      vertex 10.2252 -14.8137 2.5
      vertex 2 -3.4641 2.5
    endloop
  endfacet
  facet normal 0 0 1
    outer loop
      vertex 10.2252 -14.8137 2.5
      vertex 1.23605 -3.80421 2.5
      vertex 2.16965 -17.8688 2.5
    endloop
  endfacet
  facet normal -0 0 1
    outer loop
      vertex 0.418106 -3.97807 2.5
      vertex 2.16965 -17.8688 2.5
      vertex 1.23605 -3.80421 2.5
    endloop
  endfacet
  facet normal -0 0 1
    outer loop
      vertex -0.418106 -3.97807 2.5
      vertex 2.16965 -17.8688 2.5
      vertex 0.418106 -3.97807 2.5
    endloop
  endfacet
  facet normal 0 0 1
    outer loop
      vertex -6.38287 -16.8303 2.5
      vertex -0.418106 -3.97807 2.5
      vertex -1.23605 -3.80421 2.5
    endloop
  endfacet
  facet normal 0 0 1
    outer loop
      vertex -6.38287 -16.8303 2.5
      vertex -1.23605 -3.80421 2.5
      vertex -2 -3.4641 2.5
    endloop
  endfacet
  facet normal 0 0 1
    outer loop
      vertex -13.4732 -11.9362 2.5
      vertex -2 -3.4641 2.5
      vertex -2.67651 -2.97256 2.5
    endloop
  endfacet
  facet normal 0 0 1
    outer loop
      vertex -13.4732 -11.9362 2.5
      vertex -2.67651 -2.97256 2.5
      vertex -3.23605 -2.35114 2.5
    endloop
  endfacet
  facet normal 0 0 1
    outer loop
      vertex -13.4732 -11.9362 2.5
      vertex -3.23605 -2.35114 2.5
      vertex -3.65417 -1.62694 2.5
    endloop
  endfacet
  facet normal 0 0 1
    outer loop
      vertex -3.65417 1.62694 2.5
      vertex -17.4769 4.30768 2.5
      vertex -3.91258 0.831635 2.5
    endloop
  endfacet
  facet normal 0 0 1
    outer loop
      vertex -0.418106 -3.97807 2.5
      vertex -6.38287 -16.8303 2.5
      vertex 2.16965 -17.8688 2.5
    endloop
  endfacet
  facet normal 0 0 1
    outer loop
      vertex -17.4769 -4.30768 2.5
      vertex -3.65417 -1.62694 2.5
      vertex -3.91258 -0.831635 2.5
    endloop
  endfacet
  facet normal 0 0 1
    outer loop
      vertex -3.91258 0.831635 2.5
      vertex -17.4769 4.30768 2.5
      vertex -4 0 2.5
    endloop
  endfacet
  facet normal 0 0 1
    outer loop
      vertex -17.4769 -4.30768 2.5
      vertex -4 0 2.5
      vertex -17.4769 4.30768 2.5
    endloop
  endfacet
  facet normal 0 0 1
    outer loop
      vertex -2 -3.4641 2.5
      vertex -13.4732 -11.9362 2.5
      vertex -6.38287 -16.8303 2.5
    endloop
  endfacet
  facet normal 0 0 1
    outer loop
      vertex -4 0 2.5
      vertex -17.4769 -4.30768 2.5
      vertex -3.91258 -0.831635 2.5
    endloop
  endfacet
  facet normal 0 0 1
    outer loop
      vertex -3.65417 -1.62694 2.5
      vertex -17.4769 -4.30768 2.5
      vertex -13.4732 -11.9362 2.5
    endloop
  endfacet
  facet normal 0.748511 -0.663122 0
    outer loop
      vertex 10.2252 -14.8137 2.5
      vertex 15.9382 -8.36501 -2.5
      vertex 15.9382 -8.36501 2.5
    endloop
  endfacet
  facet normal 0.748511 -0.663122 0
    outer loop
      vertex 15.9382 -8.36501 -2.5
      vertex 10.2252 -14.8137 2.5
      vertex 10.2252 -14.8137 -2.5
    endloop
  endfacet
  facet normal 0.970942 -0.239317 0
    outer loop
      vertex 15.9382 -8.36501 2.5
      vertex 18 0 -2.5
      vertex 18 0 2.5
    endloop
  endfacet
  facet normal 0.970942 -0.239317 0
    outer loop
      vertex 18 0 -2.5
      vertex 15.9382 -8.36501 2.5
      vertex 15.9382 -8.36501 -2.5
    endloop
  endfacet
  facet normal 0.970942 0.239317 0
    outer loop
      vertex 18 0 2.5
      vertex 15.9382 8.36501 -2.5
      vertex 15.9382 8.36501 2.5
    endloop
  endfacet
  facet normal 0.970942 0.239317 0
    outer loop
      vertex 15.9382 8.36501 -2.5
      vertex 18 0 2.5
      vertex 18 0 -2.5
    endloop
  endfacet
  facet normal 0.748511 0.663122 0
    outer loop
      vertex 15.9382 8.36501 2.5
      vertex 10.2252 14.8137 -2.5
      vertex 10.2252 14.8137 2.5
    endloop
  endfacet
  facet normal 0.748511 0.663122 0
    outer loop
      vertex 10.2252 14.8137 -2.5
      vertex 15.9382 8.36501 2.5
      vertex 15.9382 8.36501 -2.5
    endloop
  endfacet
  facet normal 0.354605 0.935016 -0
    outer loop
      vertex 10.2252 14.8137 -2.5
      vertex 2.16965 17.8688 2.5
      vertex 10.2252 14.8137 2.5
    endloop
  endfacet
  facet normal 0.354605 0.935016 0
    outer loop
      vertex 2.16965 17.8688 2.5
      vertex 10.2252 14.8137 -2.5
      vertex 2.16965 17.8688 -2.5
    endloop
  endfacet
  facet normal -0.120537 0.992709 0
    outer loop
      vertex 2.16965 17.8688 -2.5
      vertex -6.38287 16.8303 2.5
      vertex 2.16965 17.8688 2.5
    endloop
  endfacet
  facet normal -0.120537 0.992709 0
    outer loop
      vertex -6.38287 16.8303 2.5
      vertex 2.16965 17.8688 -2.5
      vertex -6.38287 16.8303 -2.5
    endloop
  endfacet
  facet normal -0.568064 0.822984 0
    outer loop
      vertex -6.38287 16.8303 -2.5
      vertex -13.4732 11.9362 2.5
      vertex -6.38287 16.8303 2.5
    endloop
  endfacet
  facet normal -0.568064 0.822984 0
    outer loop
      vertex -13.4732 11.9362 2.5
      vertex -6.38287 16.8303 -2.5
      vertex -13.4732 11.9362 -2.5
    endloop
  endfacet
  facet normal -0.885456 0.464723 0
    outer loop
      vertex -17.4769 4.30768 -2.5
      vertex -13.4732 11.9362 2.5
      vertex -13.4732 11.9362 -2.5
    endloop
  endfacet
  facet normal -0.885456 0.464723 0
    outer loop
      vertex -13.4732 11.9362 2.5
      vertex -17.4769 4.30768 -2.5
      vertex -17.4769 4.30768 2.5
    endloop
  endfacet
  facet normal -1 0 0
    outer loop
      vertex -17.4769 -4.30768 -2.5
      vertex -17.4769 4.30768 2.5
      vertex -17.4769 4.30768 -2.5
    endloop
  endfacet
  facet normal -1 -0 0
    outer loop
      vertex -17.4769 4.30768 2.5
      vertex -17.4769 -4.30768 -2.5
      vertex -17.4769 -4.30768 2.5
    endloop
  endfacet
  facet normal -0.885456 -0.464723 0
    outer loop
      vertex -13.4732 -11.9362 -2.5
      vertex -17.4769 -4.30768 2.5
      vertex -17.4769 -4.30768 -2.5
    endloop
  endfacet
  facet normal -0.885456 -0.464723 0
    outer loop
      vertex -17.4769 -4.30768 2.5
      vertex -13.4732 -11.9362 -2.5
      vertex -13.4732 -11.9362 2.5
    endloop
  endfacet
  facet normal -0.568064 -0.822984 0
    outer loop
      vertex -13.4732 -11.9362 -2.5
      vertex -6.38287 -16.8303 2.5
      vertex -13.4732 -11.9362 2.5
    endloop
  endfacet
  facet normal -0.568064 -0.822984 -0
    outer loop
      vertex -6.38287 -16.8303 2.5
      vertex -13.4732 -11.9362 -2.5
      vertex -6.38287 -16.8303 -2.5
    endloop
  endfacet
  facet normal -0.120537 -0.992709 0
    outer loop
      vertex -6.38287 -16.8303 -2.5
      vertex 2.16965 -17.8688 2.5
      vertex -6.38287 -16.8303 2.5
    endloop
  endfacet
  facet normal -0.120537 -0.992709 -0
    outer loop
      vertex 2.16965 -17.8688 2.5
      vertex -6.38287 -16.8303 -2.5
      vertex 2.16965 -17.8688 -2.5
    endloop
  endfacet
  facet normal 0.354605 -0.935016 0
    outer loop
      vertex 2.16965 -17.8688 -2.5
      vertex 10.2252 -14.8137 2.5
      vertex 2.16965 -17.8688 2.5
    endloop
  endfacet
  facet normal 0.354605 -0.935016 0
    outer loop
      vertex 10.2252 -14.8137 2.5
      vertex 2.16965 -17.8688 -2.5
      vertex 10.2252 -14.8137 -2.5
    endloop
  endfacet
  facet normal 0.20791 0.978148 -0
    outer loop
      vertex -0.418106 -3.97807 0.5
      vertex -1.23605 -3.80421 2.5
      vertex -0.418106 -3.97807 2.5
    endloop
  endfacet
  facet normal 0.20791 0.978148 0
    outer loop
      vertex -1.23605 -3.80421 2.5
      vertex -0.418106 -3.97807 0.5
      vertex -1.23605 -3.80421 0.5
    endloop
  endfacet
  facet normal 0.406724 0.913551 -0
    outer loop
      vertex -1.23605 -3.80421 0.5
      vertex -2 -3.4641 2.5
      vertex -1.23605 -3.80421 2.5
    endloop
  endfacet
  facet normal 0.406724 0.913551 0
    outer loop
      vertex -2 -3.4641 2.5
      vertex -1.23605 -3.80421 0.5
      vertex -2 -3.4641 0.5
    endloop
  endfacet
  facet normal 0.587797 0.809008 -0
    outer loop
      vertex -2 -3.4641 0.5
      vertex -2.67651 -2.97256 2.5
      vertex -2 -3.4641 2.5
    endloop
  endfacet
  facet normal 0.587797 0.809008 0
    outer loop
      vertex -2.67651 -2.97256 2.5
      vertex -2 -3.4641 0.5
      vertex -2.67651 -2.97256 0.5
    endloop
  endfacet
  facet normal 0.743144 0.669132 0
    outer loop
      vertex -2.67651 -2.97256 2.5
      vertex -3.23605 -2.35114 0.5
      vertex -3.23605 -2.35114 2.5
    endloop
  endfacet
  facet normal 0.743144 0.669132 0
    outer loop
      vertex -3.23605 -2.35114 0.5
      vertex -2.67651 -2.97256 2.5
      vertex -2.67651 -2.97256 0.5
    endloop
  endfacet
  facet normal 0.866022 0.500005 0
    outer loop
      vertex -3.23605 -2.35114 2.5
      vertex -3.65417 -1.62694 0.5
      vertex -3.65417 -1.62694 2.5
    endloop
  endfacet
  facet normal 0.866022 0.500005 0
    outer loop
      vertex -3.65417 -1.62694 0.5
      vertex -3.23605 -2.35114 2.5
      vertex -3.23605 -2.35114 0.5
    endloop
  endfacet
  facet normal 0.951057 0.309015 0
    outer loop
      vertex -3.65417 -1.62694 2.5
      vertex -3.91258 -0.831635 0.5
      vertex -3.91258 -0.831635 2.5
    endloop
  endfacet
  facet normal 0.951057 0.309015 0
    outer loop
      vertex -3.91258 -0.831635 0.5
      vertex -3.65417 -1.62694 2.5
      vertex -3.65417 -1.62694 0.5
    endloop
  endfacet
  facet normal 0.994521 0.104539 0
    outer loop
      vertex -3.91258 -0.831635 2.5
      vertex -4 0 0.5
      vertex -4 0 2.5
    endloop
  endfacet
  facet normal 0.994521 0.104539 0
    outer loop
      vertex -4 0 0.5
      vertex -3.91258 -0.831635 2.5
      vertex -3.91258 -0.831635 0.5
    endloop
  endfacet
  facet normal 0.994521 -0.104539 0
    outer loop
      vertex -4 0 2.5
      vertex -3.91258 0.831635 0.5
      vertex -3.91258 0.831635 2.5
    endloop
  endfacet
  facet normal 0.994521 -0.104539 0
    outer loop
      vertex -3.91258 0.831635 0.5
      vertex -4 0 2.5
      vertex -4 0 0.5
    endloop
  endfacet
  facet normal 0.951057 -0.309015 0
    outer loop
      vertex -3.91258 0.831635 2.5
      vertex -3.65417 1.62694 0.5
      vertex -3.65417 1.62694 2.5
    endloop
  endfacet
  facet normal 0.951057 -0.309015 0
    outer loop
      vertex -3.65417 1.62694 0.5
      vertex -3.91258 0.831635 2.5
      vertex -3.91258 0.831635 0.5
    endloop
  endfacet
  facet normal 0.866022 -0.500005 0
    outer loop
      vertex -3.65417 1.62694 2.5
      vertex -3.23605 2.35114 0.5
      vertex -3.23605 2.35114 2.5
    endloop
  endfacet
  facet normal 0.866022 -0.500005 0
    outer loop
      vertex -3.23605 2.35114 0.5
      vertex -3.65417 1.62694 2.5
      vertex -3.65417 1.62694 0.5
    endloop
  endfacet
  facet normal 0.743144 -0.669132 0
    outer loop
      vertex -3.23605 2.35114 2.5
      vertex -2.67651 2.97256 0.5
      vertex -2.67651 2.97256 2.5
    endloop
  endfacet
  facet normal 0.743144 -0.669132 0
    outer loop
      vertex -2.67651 2.97256 0.5
      vertex -3.23605 2.35114 2.5
      vertex -3.23605 2.35114 0.5
    endloop
  endfacet
  facet normal 0.587789 -0.809015 0
    outer loop
      vertex -2.67651 2.97256 0.5
      vertex -1.99998 3.4641 2.5
      vertex -2.67651 2.97256 2.5
    endloop
  endfacet
  facet normal 0.587789 -0.809015 0
    outer loop
      vertex -1.99998 3.4641 2.5
      vertex -2.67651 2.97256 0.5
      vertex -1.99998 3.4641 0.5
    endloop
  endfacet
  facet normal 0.406731 -0.913548 0
    outer loop
      vertex -1.99998 3.4641 0.5
      vertex -1.23605 3.80421 2.5
      vertex -1.99998 3.4641 2.5
    endloop
  endfacet
  facet normal 0.406731 -0.913548 0
    outer loop
      vertex -1.23605 3.80421 2.5
      vertex -1.99998 3.4641 0.5
      vertex -1.23605 3.80421 0.5
    endloop
  endfacet
  facet normal 0.20791 -0.978148 0
    outer loop
      vertex -1.23605 3.80421 0.5
      vertex -0.418106 3.97807 2.5
      vertex -1.23605 3.80421 2.5
    endloop
  endfacet
  facet normal 0.20791 -0.978148 0
    outer loop
      vertex -0.418106 3.97807 2.5
      vertex -1.23605 3.80421 0.5
      vertex -0.418106 3.97807 0.5
    endloop
  endfacet
  facet normal 0 -1 0
    outer loop
      vertex -0.418106 3.97807 0.5
      vertex 0.418106 3.97807 2.5
      vertex -0.418106 3.97807 2.5
    endloop
  endfacet
  facet normal 0 -1 -0
    outer loop
      vertex 0.418106 3.97807 2.5
      vertex -0.418106 3.97807 0.5
      vertex 0.418106 3.97807 0.5
    endloop
  endfacet
  facet normal -0.20791 -0.978148 0
    outer loop
      vertex 0.418106 3.97807 0.5
      vertex 1.23605 3.80421 2.5
      vertex 0.418106 3.97807 2.5
    endloop
  endfacet
  facet normal -0.20791 -0.978148 -0
    outer loop
      vertex 1.23605 3.80421 2.5
      vertex 0.418106 3.97807 0.5
      vertex 1.23605 3.80421 0.5
    endloop
  endfacet
  facet normal -0.406724 -0.913551 0
    outer loop
      vertex 1.23605 3.80421 0.5
      vertex 2 3.4641 2.5
      vertex 1.23605 3.80421 2.5
    endloop
  endfacet
  facet normal -0.406724 -0.913551 -0
    outer loop
      vertex 2 3.4641 2.5
      vertex 1.23605 3.80421 0.5
      vertex 2 3.4641 0.5
    endloop
  endfacet
  facet normal -0.587797 -0.809008 0
    outer loop
      vertex 2 3.4641 0.5
      vertex 2.67651 2.97256 2.5
      vertex 2 3.4641 2.5
    endloop
  endfacet
  facet normal -0.587797 -0.809008 -0
    outer loop
      vertex 2.67651 2.97256 2.5
      vertex 2 3.4641 0.5
      vertex 2.67651 2.97256 0.5
    endloop
  endfacet
  facet normal -0.743144 -0.669132 0
    outer loop
      vertex 3.23605 2.35114 0.5
      vertex 2.67651 2.97256 2.5
      vertex 2.67651 2.97256 0.5
    endloop
  endfacet
  facet normal -0.743144 -0.669132 0
    outer loop
      vertex 2.67651 2.97256 2.5
      vertex 3.23605 2.35114 0.5
      vertex 3.23605 2.35114 2.5
    endloop
  endfacet
  facet normal -0.866022 -0.500005 0
    outer loop
      vertex 3.65417 1.62694 0.5
      vertex 3.23605 2.35114 2.5
      vertex 3.23605 2.35114 0.5
    endloop
  endfacet
  facet normal -0.866022 -0.500005 0
    outer loop
      vertex 3.23605 2.35114 2.5
      vertex 3.65417 1.62694 0.5
      vertex 3.65417 1.62694 2.5
    endloop
  endfacet
  facet normal -0.951057 -0.309015 0
    outer loop
      vertex 3.91258 0.831635 0.5
      vertex 3.65417 1.62694 2.5
      vertex 3.65417 1.62694 0.5
    endloop
  endfacet
  facet normal -0.951057 -0.309015 0
    outer loop
      vertex 3.65417 1.62694 2.5
      vertex 3.91258 0.831635 0.5
      vertex 3.91258 0.831635 2.5
    endloop
  endfacet
  facet normal -0.994521 -0.104539 0
    outer loop
      vertex 4 0 0.5
      vertex 3.91258 0.831635 2.5
      vertex 3.91258 0.831635 0.5
    endloop
  endfacet
  facet normal -0.994521 -0.104539 0
    outer loop
      vertex 3.91258 0.831635 2.5
      vertex 4 0 0.5
      vertex 4 0 2.5
    endloop
  endfacet
  facet normal -0.994521 0.104539 0
    outer loop
      vertex 3.91258 -0.831635 0.5
      vertex 4 0 2.5
      vertex 4 0 0.5
    endloop
  endfacet
  facet normal -0.994521 0.104539 0
    outer loop
      vertex 4 0 2.5
      vertex 3.91258 -0.831635 0.5
      vertex 3.91258 -0.831635 2.5
    endloop
  endfacet
  facet normal -0.951057 0.309015 0
    outer loop
      vertex 3.65417 -1.62694 0.5
      vertex 3.91258 -0.831635 2.5
      vertex 3.91258 -0.831635 0.5
    endloop
  endfacet
  facet normal -0.951057 0.309015 0
    outer loop
      vertex 3.91258 -0.831635 2.5
      vertex 3.65417 -1.62694 0.5
      vertex 3.65417 -1.62694 2.5
    endloop
  endfacet
  facet normal -0.866022 0.500005 0
    outer loop
      vertex 3.23605 -2.35114 0.5
      vertex 3.65417 -1.62694 2.5
      vertex 3.65417 -1.62694 0.5
    endloop
  endfacet
  facet normal -0.866022 0.500005 0
    outer loop
      vertex 3.65417 -1.62694 2.5
      vertex 3.23605 -2.35114 0.5
      vertex 3.23605 -2.35114 2.5
    endloop
  endfacet
  facet normal -0.743144 0.669132 0
    outer loop
      vertex 2.67651 -2.97256 0.5
      vertex 3.23605 -2.35114 2.5
      vertex 3.23605 -2.35114 0.5
    endloop
  endfacet
  facet normal -0.743144 0.669132 0
    outer loop
      vertex 3.23605 -2.35114 2.5
      vertex 2.67651 -2.97256 0.5
      vertex 2.67651 -2.97256 2.5
    endloop
  endfacet
  facet normal -0.587797 0.809008 0
    outer loop
      vertex 2.67651 -2.97256 0.5
      vertex 2 -3.4641 2.5
      vertex 2.67651 -2.97256 2.5
    endloop
  endfacet
  facet normal -0.587797 0.809008 0
    outer loop
      vertex 2 -3.4641 2.5
      vertex 2.67651 -2.97256 0.5
      vertex 2 -3.4641 0.5
    endloop
  endfacet
  facet normal -0.406724 0.913551 0
    outer loop
      vertex 2 -3.4641 0.5
      vertex 1.23605 -3.80421 2.5
      vertex 2 -3.4641 2.5
    endloop
  endfacet
  facet normal -0.406724 0.913551 0
    outer loop
      vertex 1.23605 -3.80421 2.5
      vertex 2 -3.4641 0.5
      vertex 1.23605 -3.80421 0.5
    endloop
  endfacet
  facet normal -0.20791 0.978148 0
    outer loop
      vertex 1.23605 -3.80421 0.5
      vertex 0.418106 -3.97807 2.5
      vertex 1.23605 -3.80421 2.5
    endloop
  endfacet
  facet normal -0.20791 0.978148 0
    outer loop
      vertex 0.418106 -3.97807 2.5
      vertex 1.23605 -3.80421 0.5
      vertex 0.418106 -3.97807 0.5
    endloop
  endfacet
  facet normal 0 1 -0
    outer loop
      vertex 0.418106 -3.97807 0.5
      vertex -0.418106 -3.97807 2.5
      vertex 0.418106 -3.97807 2.5
    endloop
  endfacet
  facet normal 0 1 0
    outer loop
      vertex -0.418106 -3.97807 2.5
      vertex 0.418106 -3.97807 0.5
      vertex -0.418106 -3.97807 0.5
    endloop
  endfacet
  facet normal 0 0 1
    outer loop
      vertex 3.91258 0.831635 0.5
      vertex 3.91258 -0.831635 0.5
      vertex 4 0 0.5
    endloop
  endfacet
  facet normal 0 0 1
    outer loop
      vertex 3.65417 1.62694 0.5
      vertex 3.91258 -0.831635 0.5
      vertex 3.91258 0.831635 0.5
    endloop
  endfacet
  facet normal 0 0 1
    outer loop
      vertex 3.65417 1.62694 0.5
      vertex 3.65417 -1.62694 0.5
      vertex 3.91258 -0.831635 0.5
    endloop
  endfacet
  facet normal 0 0 1
    outer loop
      vertex 3.23605 2.35114 0.5
      vertex 3.65417 -1.62694 0.5
      vertex 3.65417 1.62694 0.5
    endloop
  endfacet
  facet normal 0 0 1
    outer loop
      vertex 3.23605 2.35114 0.5
      vertex 3.23605 -2.35114 0.5
      vertex 3.65417 -1.62694 0.5
    endloop
  endfacet
  facet normal 0 0 1
    outer loop
      vertex 2.67651 2.97256 0.5
      vertex 3.23605 -2.35114 0.5
      vertex 3.23605 2.35114 0.5
    endloop
  endfacet
  facet normal 0 0 1
    outer loop
      vertex 2.67651 2.97256 0.5
      vertex 2.67651 -2.97256 0.5
      vertex 3.23605 -2.35114 0.5
    endloop
  endfacet
  facet normal 0 0 1
    outer loop
      vertex 2 3.4641 0.5
      vertex 2.67651 -2.97256 0.5
      vertex 2.67651 2.97256 0.5
    endloop
  endfacet
  facet normal 0 0 1
    outer loop
      vertex 2 3.4641 0.5
      vertex 2 -3.4641 0.5
      vertex 2.67651 -2.97256 0.5
    endloop
  endfacet
  facet normal 0 0 1
    outer loop
      vertex 1.23605 3.80421 0.5
      vertex 2 -3.4641 0.5
      vertex 2 3.4641 0.5
    endloop
  endfacet
  facet normal 0 0 1
    outer loop
      vertex 1.23605 3.80421 0.5
      vertex 1.23605 -3.80421 0.5
      vertex 2 -3.4641 0.5
    endloop
  endfacet
  facet normal 0 0 1
    outer loop
      vertex 0.418106 3.97807 0.5
      vertex 1.23605 -3.80421 0.5
      vertex 1.23605 3.80421 0.5
    endloop
  endfacet
  facet normal 0 0 1
    outer loop
      vertex 0.418106 3.97807 0.5
      vertex 0.418106 -3.97807 0.5
      vertex 1.23605 -3.80421 0.5
    endloop
  endfacet
  facet normal -0 0 1
    outer loop
      vertex -0.418106 3.97807 0.5
      vertex 0.418106 -3.97807 0.5
      vertex 0.418106 3.97807 0.5
    endloop
  endfacet
  facet normal 0 0 1
    outer loop
      vertex -0.418106 3.97807 0.5
      vertex -0.418106 -3.97807 0.5
      vertex 0.418106 -3.97807 0.5
    endloop
  endfacet
  facet normal -0 0 1
    outer loop
      vertex -1.23605 3.80421 0.5
      vertex -0.418106 -3.97807 0.5
      vertex -0.418106 3.97807 0.5
    endloop
  endfacet
  facet normal 0 0 1
    outer loop
      vertex -1.23605 3.80421 0.5
      vertex -1.23605 -3.80421 0.5
      vertex -0.418106 -3.97807 0.5
    endloop
  endfacet
  facet normal -0 0 1
    outer loop
      vertex -1.99998 3.4641 0.5
      vertex -1.23605 -3.80421 0.5
      vertex -1.23605 3.80421 0.5
    endloop
  endfacet
  facet normal 0 0 1
    outer loop
      vertex -1.99998 3.4641 0.5
      vertex -2 -3.4641 0.5
      vertex -1.23605 -3.80421 0.5
    endloop
  endfacet
  facet normal -0 0 1
    outer loop
      vertex -2.67651 2.97256 0.5
      vertex -2 -3.4641 0.5
      vertex -1.99998 3.4641 0.5
    endloop
  endfacet
  facet normal 0 0 1
    outer loop
      vertex -2.67651 2.97256 0.5
      vertex -2.67651 -2.97256 0.5
      vertex -2 -3.4641 0.5
    endloop
  endfacet
  facet normal -0 0 1
    outer loop
      vertex -3.23605 2.35114 0.5
      vertex -2.67651 -2.97256 0.5
      vertex -2.67651 2.97256 0.5
    endloop
  endfacet
  facet normal 0 0 1
    outer loop
      vertex -3.23605 2.35114 0.5
      vertex -3.23605 -2.35114 0.5
      vertex -2.67651 -2.97256 0.5
    endloop
  endfacet
  facet normal -0 0 1
    outer loop
      vertex -3.65417 1.62694 0.5
      vertex -3.23605 -2.35114 0.5
      vertex -3.23605 2.35114 0.5
    endloop
  endfacet
  facet normal 0 0 1
    outer loop
      vertex -3.65417 1.62694 0.5
      vertex -3.65417 -1.62694 0.5
      vertex -3.23605 -2.35114 0.5
    endloop
  endfacet
  facet normal -0 0 1
    outer loop
      vertex -3.91258 0.831635 0.5
      vertex -3.65417 -1.62694 0.5
      vertex -3.65417 1.62694 0.5
    endloop
  endfacet
  facet normal 0 0 1
    outer loop
      vertex -3.91258 0.831635 0.5
      vertex -3.91258 -0.831635 0.5
      vertex -3.65417 -1.62694 0.5
    endloop
  endfacet
  facet normal 0 -0 1
    outer loop
      vertex -3.91258 -0.831635 0.5
      vertex -3.91258 0.831635 0.5
      vertex -4 0 0.5
    endloop
  endfacet
endsolid OpenSCAD_Model
