solid OpenSCAD_Model
  facet normal 0 0 -1
    outer loop
      vertex 5.88255 -1.11745 -4.5
      vertex 5.88255 1.11745 -4.5
      vertex 7 0 -4.5
    endloop
  endfacet
  facet normal 0 0 -1
    outer loop
      vertex 5.48127 -2.44042 -4.5
      vertex 5.88255 -1.11745 -4.5
      vertex 5.86889 -1.24747 -4.5
    endloop
  endfacet
  facet normal 0 0 -1
    outer loop
      vertex 4.8541 -3.52671 -4.5
      vertex 5.88255 -1.11745 -4.5
      vertex 5.48127 -2.44042 -4.5
    endloop
  endfacet
  facet normal -0 0 -1
    outer loop
      vertex 5.88255 -1.11745 -4.5
      vertex 4.8541 -3.52671 -4.5
      vertex 5.88255 1.11745 -4.5
    endloop
  endfacet
  facet normal 0 0 -1
    outer loop
      vertex 5.88255 1.11745 -4.5
      vertex 5.48127 2.44042 -4.5
      vertex 5.86889 1.24747 -4.5
    endloop
  endfacet
  facet normal 0 0 -1
    outer loop
      vertex 4.8541 3.52671 -4.5
      vertex 5.88255 1.11745 -4.5
      vertex 4.8541 -3.52671 -4.5
    endloop
  endfacet
  facet normal 0 0 -1
    outer loop
      vertex 5.88255 1.11745 -4.5
      vertex 4.8541 3.52671 -4.5
      vertex 5.48127 2.44042 -4.5
    endloop
  endfacet
  facet normal 0 0 -1
    outer loop
      vertex 4.01478 -4.45887 -4.5
      vertex 4.8541 3.52671 -4.5
      vertex 4.8541 -3.52671 -4.5
    endloop
  endfacet
  facet normal 0 0 -1
    outer loop
      vertex 4.01478 -4.45887 -4.5
      vertex 4.01478 4.45887 -4.5
      vertex 4.8541 3.52671 -4.5
    endloop
  endfacet
  facet normal 0 0 -1
    outer loop
      vertex 1.14238 -5.85762 -4.5
      vertex 4.01478 -4.45887 -4.5
      vertex 3 -5.19615 -4.5
    endloop
  endfacet
  facet normal -0 0 -1
    outer loop
      vertex 4.01478 -4.45887 -4.5
      vertex 1.14238 -5.85762 -4.5
      vertex 4.01478 4.45887 -4.5
    endloop
  endfacet
  facet normal 0 0 -1
    outer loop
      vertex 1.14238 -5.85762 -4.5
      vertex 3 -5.19615 -4.5
      vertex 1.8541 -5.70634 -4.5
    endloop
  endfacet
  facet normal 0 0 -1
    outer loop
      vertex 1.14238 5.85762 -4.5
      vertex 4.01478 4.45887 -4.5
      vertex 1.14238 -5.85762 -4.5
    endloop
  endfacet
  facet normal 0 0 -1
    outer loop
      vertex 4.01478 4.45887 -4.5
      vertex 1.14238 5.85762 -4.5
      vertex 3 5.19615 -4.5
    endloop
  endfacet
  facet normal 0 0 -1
    outer loop
      vertex 3 5.19615 -4.5
      vertex 1.14238 5.85762 -4.5
      vertex 1.8541 5.70634 -4.5
    endloop
  endfacet
  facet normal 0 0 -1
    outer loop
      vertex -1.14238 -5.85762 -4.5
      vertex 1.14238 -5.85762 -4.5
      vertex 0 -7 -4.5
    endloop
  endfacet
  facet normal 0 0 -1
    outer loop
      vertex 1.14238 -5.85762 -4.5
      vertex -1.14238 -5.85762 -4.5
      vertex 1.14238 5.85762 -4.5
    endloop
  endfacet
  facet normal 0 0 -1
    outer loop
      vertex -1.14238 5.85762 -4.5
      vertex 1.14238 5.85762 -4.5
      vertex -1.14238 -5.85762 -4.5
    endloop
  endfacet
  facet normal 0 0 -1
    outer loop
      vertex 1.14238 5.85762 -4.5
      vertex -1.14238 5.85762 -4.5
      vertex 0 7 -4.5
    endloop
  endfacet
  facet normal 0 0 -1
    outer loop
      vertex -3 -5.19615 -4.5
      vertex -1.14238 -5.85762 -4.5
      vertex -1.8541 -5.70634 -4.5
    endloop
  endfacet
  facet normal 0 0 -1
    outer loop
      vertex -4.01478 -4.45887 -4.5
      vertex -1.14238 -5.85762 -4.5
      vertex -3 -5.19615 -4.5
    endloop
  endfacet
  facet normal 0 0 -1
    outer loop
      vertex -1.14238 5.85762 -4.5
      vertex -3 5.19615 -4.5
      vertex -1.8541 5.70634 -4.5
    endloop
  endfacet
  facet normal 0 0 -1
    outer loop
      vertex -1.14238 -5.85762 -4.5
      vertex -4.01478 -4.45887 -4.5
      vertex -1.14238 5.85762 -4.5
    endloop
  endfacet
  facet normal 0 0 -1
    outer loop
      vertex -4.01478 4.45887 -4.5
      vertex -1.14238 5.85762 -4.5
      vertex -4.01478 -4.45887 -4.5
    endloop
  endfacet
  facet normal 0 0 -1
    outer loop
      vertex -1.14238 5.85762 -4.5
      vertex -4.01478 4.45887 -4.5
      vertex -3 5.19615 -4.5
    endloop
  endfacet
  facet normal 0 0 -1
    outer loop
      vertex -4.8541 -3.52671 -4.5
      vertex -4.01478 4.45887 -4.5
      vertex -4.01478 -4.45887 -4.5
    endloop
  endfacet
  facet normal 0 0 -1
    outer loop
      vertex -4.8541 -3.52671 -4.5
      vertex -4.8541 3.52671 -4.5
      vertex -4.01478 4.45887 -4.5
    endloop
  endfacet
  facet normal 0 0 -1
    outer loop
      vertex -5.88255 -1.11745 -4.5
      vertex -4.8541 -3.52671 -4.5
      vertex -5.48127 -2.44042 -4.5
    endloop
  endfacet
  facet normal 0 0 -1
    outer loop
      vertex -4.8541 -3.52671 -4.5
      vertex -5.88255 -1.11745 -4.5
      vertex -4.8541 3.52671 -4.5
    endloop
  endfacet
  facet normal 0 0 -1
    outer loop
      vertex -5.88255 -1.11745 -4.5
      vertex -5.48127 -2.44042 -4.5
      vertex -5.86889 -1.24747 -4.5
    endloop
  endfacet
  facet normal 0 0 -1
    outer loop
      vertex -5.88255 1.11745 -4.5
      vertex -4.8541 3.52671 -4.5
      vertex -5.88255 -1.11745 -4.5
    endloop
  endfacet
  facet normal 0 0 -1
    outer loop
      vertex -4.8541 3.52671 -4.5
      vertex -5.88255 1.11745 -4.5
      vertex -5.48127 2.44042 -4.5
    endloop
  endfacet
  facet normal 0 0 -1
    outer loop
      vertex -5.48127 2.44042 -4.5
      vertex -5.88255 1.11745 -4.5
      vertex -5.86889 1.24747 -4.5
    endloop
  endfacet
  facet normal 0 -0 -1
    outer loop
      vertex -5.88255 1.11745 -4.5
      vertex -5.88255 -1.11745 -4.5
      vertex -7 0 -4.5
    endloop
  endfacet
  facet normal 0 0 -1
    outer loop
      vertex 7 0 -1.5
      vertex 19 0 -1.5
      vertex 15.3713 -11.1679 -1.5
    endloop
  endfacet
  facet normal 0 0 -1
    outer loop
      vertex 19 0 -1.5
      vertex 7 0 -1.5
      vertex 15.3713 11.1679 -1.5
    endloop
  endfacet
  facet normal 0 0 -1
    outer loop
      vertex 5.48127 -2.44042 -1.5
      vertex 7 0 -1.5
      vertex 15.3713 -11.1679 -1.5
    endloop
  endfacet
  facet normal 0 0 -1
    outer loop
      vertex 4.01478 -4.45887 -1.5
      vertex 15.3713 -11.1679 -1.5
      vertex 5.87132 -18.0701 -1.5
    endloop
  endfacet
  facet normal 0 0 -1
    outer loop
      vertex 7 0 -1.5
      vertex 5.86889 -1.24747 -1.5
      vertex 5.88255 -1.11745 -1.5
    endloop
  endfacet
  facet normal 0 0 -1
    outer loop
      vertex 7 0 -1.5
      vertex 5.48127 -2.44042 -1.5
      vertex 5.86889 -1.24747 -1.5
    endloop
  endfacet
  facet normal 0 0 -1
    outer loop
      vertex 15.3713 -11.1679 -1.5
      vertex 4.8541 -3.52671 -1.5
      vertex 5.48127 -2.44042 -1.5
    endloop
  endfacet
  facet normal 0 0 -1
    outer loop
      vertex 15.3713 -11.1679 -1.5
      vertex 4.01478 -4.45887 -1.5
      vertex 4.8541 -3.52671 -1.5
    endloop
  endfacet
  facet normal 0 0 -1
    outer loop
      vertex 5.87132 -18.0701 -1.5
      vertex 3 -5.19615 -1.5
      vertex 4.01478 -4.45887 -1.5
    endloop
  endfacet
  facet normal 0 0 -1
    outer loop
      vertex 5.87132 -18.0701 -1.5
      vertex 1.8541 -5.70634 -1.5
      vertex 3 -5.19615 -1.5
    endloop
  endfacet
  facet normal 0 0 -1
    outer loop
      vertex 0 -7 -1.5
      vertex 1.8541 -5.70634 -1.5
      vertex 5.87132 -18.0701 -1.5
    endloop
  endfacet
  facet normal 0 0 -1
    outer loop
      vertex 1.8541 -5.70634 -1.5
      vertex 0 -7 -1.5
      vertex 1.14238 -5.85762 -1.5
    endloop
  endfacet
  facet normal 0 0 -1
    outer loop
      vertex -5.87132 -18.0701 -1.5
      vertex 0 -7 -1.5
      vertex 5.87132 -18.0701 -1.5
    endloop
  endfacet
  facet normal 0 -0 -1
    outer loop
      vertex -1.8541 -5.70634 -1.5
      vertex 0 -7 -1.5
      vertex -5.87132 -18.0701 -1.5
    endloop
  endfacet
  facet normal 0 0 -1
    outer loop
      vertex 0 -7 -1.5
      vertex -1.8541 -5.70634 -1.5
      vertex -1.14238 -5.85762 -1.5
    endloop
  endfacet
  facet normal -0 0 -1
    outer loop
      vertex -1.8541 -5.70634 -1.5
      vertex -5.87132 -18.0701 -1.5
      vertex -3 -5.19615 -1.5
    endloop
  endfacet
  facet normal -0 0 -1
    outer loop
      vertex -3 -5.19615 -1.5
      vertex -5.87132 -18.0701 -1.5
      vertex -4.01478 -4.45887 -1.5
    endloop
  endfacet
  facet normal 0 0 -1
    outer loop
      vertex -15.3713 -11.1679 -1.5
      vertex -4.01478 -4.45887 -1.5
      vertex -5.87132 -18.0701 -1.5
    endloop
  endfacet
  facet normal -0 0 -1
    outer loop
      vertex -4.01478 -4.45887 -1.5
      vertex -15.3713 -11.1679 -1.5
      vertex -4.8541 -3.52671 -1.5
    endloop
  endfacet
  facet normal -0 0 -1
    outer loop
      vertex -4.8541 -3.52671 -1.5
      vertex -15.3713 -11.1679 -1.5
      vertex -5.48127 -2.44042 -1.5
    endloop
  endfacet
  facet normal 0 -0 -1
    outer loop
      vertex -7 0 -1.5
      vertex -5.48127 -2.44042 -1.5
      vertex -15.3713 -11.1679 -1.5
    endloop
  endfacet
  facet normal 0 0 -1
    outer loop
      vertex -5.48127 -2.44042 -1.5
      vertex -7 0 -1.5
      vertex -5.86889 -1.24747 -1.5
    endloop
  endfacet
  facet normal 0 0 -1
    outer loop
      vertex -5.86889 -1.24747 -1.5
      vertex -7 0 -1.5
      vertex -5.88255 -1.11745 -1.5
    endloop
  endfacet
  facet normal 0 0 -1
    outer loop
      vertex 5.86889 1.24747 -1.5
      vertex 7 0 -1.5
      vertex 5.88255 1.11745 -1.5
    endloop
  endfacet
  facet normal 0 0 -1
    outer loop
      vertex 5.48127 2.44042 -1.5
      vertex 7 0 -1.5
      vertex 5.86889 1.24747 -1.5
    endloop
  endfacet
  facet normal 0 0 -1
    outer loop
      vertex 7 0 -1.5
      vertex 5.48127 2.44042 -1.5
      vertex 15.3713 11.1679 -1.5
    endloop
  endfacet
  facet normal 0 0 -1
    outer loop
      vertex 4.8541 3.52671 -1.5
      vertex 15.3713 11.1679 -1.5
      vertex 5.48127 2.44042 -1.5
    endloop
  endfacet
  facet normal 0 0 -1
    outer loop
      vertex 4.01478 4.45887 -1.5
      vertex 15.3713 11.1679 -1.5
      vertex 4.8541 3.52671 -1.5
    endloop
  endfacet
  facet normal -0 0 -1
    outer loop
      vertex 15.3713 11.1679 -1.5
      vertex 4.01478 4.45887 -1.5
      vertex 5.87132 18.0701 -1.5
    endloop
  endfacet
  facet normal 0 0 -1
    outer loop
      vertex 3 5.19615 -1.5
      vertex 5.87132 18.0701 -1.5
      vertex 4.01478 4.45887 -1.5
    endloop
  endfacet
  facet normal 0 0 -1
    outer loop
      vertex 1.8541 5.70634 -1.5
      vertex 5.87132 18.0701 -1.5
      vertex 3 5.19615 -1.5
    endloop
  endfacet
  facet normal 0 0 -1
    outer loop
      vertex 0 7 -1.5
      vertex 1.8541 5.70634 -1.5
      vertex 1.14238 5.85762 -1.5
    endloop
  endfacet
  facet normal 0 0 -1
    outer loop
      vertex 1.8541 5.70634 -1.5
      vertex 0 7 -1.5
      vertex 5.87132 18.0701 -1.5
    endloop
  endfacet
  facet normal 0 0 -1
    outer loop
      vertex -1.8541 5.70634 -1.5
      vertex 0 7 -1.5
      vertex -1.14238 5.85762 -1.5
    endloop
  endfacet
  facet normal -0 0 -1
    outer loop
      vertex 0 7 -1.5
      vertex -1.8541 5.70634 -1.5
      vertex -5.87132 18.0701 -1.5
    endloop
  endfacet
  facet normal 0 0 -1
    outer loop
      vertex -5.87132 18.0701 -1.5
      vertex -1.8541 5.70634 -1.5
      vertex -3 5.19615 -1.5
    endloop
  endfacet
  facet normal 0 0 -1
    outer loop
      vertex -5.87132 18.0701 -1.5
      vertex -3 5.19615 -1.5
      vertex -4.01478 4.45887 -1.5
    endloop
  endfacet
  facet normal 0 0 -1
    outer loop
      vertex -15.3713 11.1679 -1.5
      vertex -4.01478 4.45887 -1.5
      vertex -4.8541 3.52671 -1.5
    endloop
  endfacet
  facet normal 0 0 -1
    outer loop
      vertex 0 7 -1.5
      vertex -5.87132 18.0701 -1.5
      vertex 5.87132 18.0701 -1.5
    endloop
  endfacet
  facet normal 0 0 -1
    outer loop
      vertex -15.3713 11.1679 -1.5
      vertex -4.8541 3.52671 -1.5
      vertex -5.48127 2.44042 -1.5
    endloop
  endfacet
  facet normal 0 0 -1
    outer loop
      vertex -7 0 -1.5
      vertex -5.48127 2.44042 -1.5
      vertex -5.86889 1.24747 -1.5
    endloop
  endfacet
  facet normal 0 0 -1
    outer loop
      vertex -7 0 -1.5
      vertex -5.86889 1.24747 -1.5
      vertex -5.88255 1.11745 -1.5
    endloop
  endfacet
  facet normal -0 0 -1
    outer loop
      vertex -5.48127 2.44042 -1.5
      vertex -7 0 -1.5
      vertex -15.3713 11.1679 -1.5
    endloop
  endfacet
  facet normal 0 0 -1
    outer loop
      vertex -19 0 -1.5
      vertex -7 0 -1.5
      vertex -15.3713 -11.1679 -1.5
    endloop
  endfacet
  facet normal 0 0 -1
    outer loop
      vertex -4.01478 4.45887 -1.5
      vertex -15.3713 11.1679 -1.5
      vertex -5.87132 18.0701 -1.5
    endloop
  endfacet
  facet normal 0 0 -1
    outer loop
      vertex -7 0 -1.5
      vertex -19 0 -1.5
      vertex -15.3713 11.1679 -1.5
    endloop
  endfacet
  facet normal 0 0 1
    outer loop
      vertex 4.89073 1.03955 -1.5
      vertex 4.89073 -1.03955 -1.5
      vertex 5 0 -1.5
    endloop
  endfacet
  facet normal 0 0 1
    outer loop
      vertex 4.56772 2.03368 -1.5
      vertex 4.89073 -1.03955 -1.5
      vertex 4.89073 1.03955 -1.5
    endloop
  endfacet
  facet normal 0 0 1
    outer loop
      vertex 4.56772 2.03368 -1.5
      vertex 4.56772 -2.03368 -1.5
      vertex 4.89073 -1.03955 -1.5
    endloop
  endfacet
  facet normal 0 0 1
    outer loop
      vertex 4.04507 2.93892 -1.5
      vertex 4.56772 -2.03368 -1.5
      vertex 4.56772 2.03368 -1.5
    endloop
  endfacet
  facet normal 0 0 1
    outer loop
      vertex 4.04507 2.93892 -1.5
      vertex 4.04507 -2.93892 -1.5
      vertex 4.56772 -2.03368 -1.5
    endloop
  endfacet
  facet normal 0 0 1
    outer loop
      vertex 3.34564 3.71571 -1.5
      vertex 4.04507 -2.93892 -1.5
      vertex 4.04507 2.93892 -1.5
    endloop
  endfacet
  facet normal 0 0 1
    outer loop
      vertex 3.34564 3.71571 -1.5
      vertex 3.34564 -3.71571 -1.5
      vertex 4.04507 -2.93892 -1.5
    endloop
  endfacet
  facet normal 0 0 1
    outer loop
      vertex 2.5 4.33012 -1.5
      vertex 3.34564 -3.71571 -1.5
      vertex 3.34564 3.71571 -1.5
    endloop
  endfacet
  facet normal 0 0 1
    outer loop
      vertex 2.5 4.33012 -1.5
      vertex 2.5 -4.33012 -1.5
      vertex 3.34564 -3.71571 -1.5
    endloop
  endfacet
  facet normal 0 0 1
    outer loop
      vertex 1.54507 4.75528 -1.5
      vertex 2.5 -4.33012 -1.5
      vertex 2.5 4.33012 -1.5
    endloop
  endfacet
  facet normal 0 0 1
    outer loop
      vertex 1.54507 4.75528 -1.5
      vertex 1.54507 -4.75528 -1.5
      vertex 2.5 -4.33012 -1.5
    endloop
  endfacet
  facet normal 0 0 1
    outer loop
      vertex 0.522629 4.9726 -1.5
      vertex 1.54507 -4.75528 -1.5
      vertex 1.54507 4.75528 -1.5
    endloop
  endfacet
  facet normal 0 0 1
    outer loop
      vertex 0.522629 4.9726 -1.5
      vertex 0.522629 -4.9726 -1.5
      vertex 1.54507 -4.75528 -1.5
    endloop
  endfacet
  facet normal -0 0 1
    outer loop
      vertex -0.522629 4.9726 -1.5
      vertex 0.522629 -4.9726 -1.5
      vertex 0.522629 4.9726 -1.5
    endloop
  endfacet
  facet normal 0 0 1
    outer loop
      vertex -0.522629 4.9726 -1.5
      vertex -0.522629 -4.9726 -1.5
      vertex 0.522629 -4.9726 -1.5
    endloop
  endfacet
  facet normal -0 0 1
    outer loop
      vertex -1.54507 4.75528 -1.5
      vertex -0.522629 -4.9726 -1.5
      vertex -0.522629 4.9726 -1.5
    endloop
  endfacet
  facet normal 0 0 1
    outer loop
      vertex -1.54507 4.75528 -1.5
      vertex -1.54507 -4.75528 -1.5
      vertex -0.522629 -4.9726 -1.5
    endloop
  endfacet
  facet normal -0 0 1
    outer loop
      vertex -2.49998 4.33012 -1.5
      vertex -1.54507 -4.75528 -1.5
      vertex -1.54507 4.75528 -1.5
    endloop
  endfacet
  facet normal 0 0 1
    outer loop
      vertex -2.49998 4.33012 -1.5
      vertex -2.5 -4.33012 -1.5
      vertex -1.54507 -4.75528 -1.5
    endloop
  endfacet
  facet normal -0 0 1
    outer loop
      vertex -3.34564 3.71571 -1.5
      vertex -2.5 -4.33012 -1.5
      vertex -2.49998 4.33012 -1.5
    endloop
  endfacet
  facet normal 0 0 1
    outer loop
      vertex -3.34564 3.71571 -1.5
      vertex -3.34564 -3.71571 -1.5
      vertex -2.5 -4.33012 -1.5
    endloop
  endfacet
  facet normal -0 0 1
    outer loop
      vertex -4.04507 2.93892 -1.5
      vertex -3.34564 -3.71571 -1.5
      vertex -3.34564 3.71571 -1.5
    endloop
  endfacet
  facet normal 0 0 1
    outer loop
      vertex -4.04507 2.93892 -1.5
      vertex -4.04507 -2.93892 -1.5
      vertex -3.34564 -3.71571 -1.5
    endloop
  endfacet
  facet normal -0 0 1
    outer loop
      vertex -4.56772 2.03368 -1.5
      vertex -4.04507 -2.93892 -1.5
      vertex -4.04507 2.93892 -1.5
    endloop
  endfacet
  facet normal 0 0 1
    outer loop
      vertex -4.56772 2.03368 -1.5
      vertex -4.56772 -2.03368 -1.5
      vertex -4.04507 -2.93892 -1.5
    endloop
  endfacet
  facet normal -0 0 1
    outer loop
      vertex -4.89073 1.03955 -1.5
      vertex -4.56772 -2.03368 -1.5
      vertex -4.56772 2.03368 -1.5
    endloop
  endfacet
  facet normal 0 0 1
    outer loop
      vertex -4.89073 1.03955 -1.5
      vertex -4.89073 -1.03955 -1.5
      vertex -4.56772 -2.03368 -1.5
    endloop
  endfacet
  facet normal 0 -0 1
    outer loop
      vertex -4.89073 -1.03955 -1.5
      vertex -4.89073 1.03955 -1.5
      vertex -5 0 -1.5
    endloop
  endfacet
  facet normal -0.707107 0.707107 0
    outer loop
      vertex 0 7 -4.5
      vertex -1.14238 5.85762 -1.5
      vertex 0 7 -1.5
    endloop
  endfacet
  facet normal -0.707107 0.707107 0
    outer loop
      vertex -1.14238 5.85762 -1.5
      vertex 0 7 -4.5
      vertex -1.14238 5.85762 -4.5
    endloop
  endfacet
  facet normal 0.406738 -0.913545 0
    outer loop
      vertex -2.49998 4.33012 -1.5
      vertex -1.54507 4.75528 4.5
      vertex -2.49998 4.33012 4.5
    endloop
  endfacet
  facet normal 0.406738 -0.913545 0
    outer loop
      vertex -1.54507 4.75528 4.5
      vertex -2.49998 4.33012 -1.5
      vertex -1.54507 4.75528 -1.5
    endloop
  endfacet
  facet normal 0.207901 -0.97815 0
    outer loop
      vertex -1.54507 4.75528 -1.5
      vertex -0.522629 4.9726 4.5
      vertex -1.54507 4.75528 4.5
    endloop
  endfacet
  facet normal 0.207901 -0.97815 0
    outer loop
      vertex -0.522629 4.9726 4.5
      vertex -1.54507 4.75528 -1.5
      vertex -0.522629 4.9726 -1.5
    endloop
  endfacet
  facet normal 0 -1 0
    outer loop
      vertex -0.522629 4.9726 -1.5
      vertex 0.522629 4.9726 4.5
      vertex -0.522629 4.9726 4.5
    endloop
  endfacet
  facet normal 0 -1 -0
    outer loop
      vertex 0.522629 4.9726 4.5
      vertex -0.522629 4.9726 -1.5
      vertex 0.522629 4.9726 -1.5
    endloop
  endfacet
  facet normal -0.207901 -0.97815 0
    outer loop
      vertex 0.522629 4.9726 -1.5
      vertex 1.54507 4.75528 4.5
      vertex 0.522629 4.9726 4.5
    endloop
  endfacet
  facet normal -0.207901 -0.97815 -0
    outer loop
      vertex 1.54507 4.75528 4.5
      vertex 0.522629 4.9726 -1.5
      vertex 1.54507 4.75528 -1.5
    endloop
  endfacet
  facet normal -0.406733 -0.913547 0
    outer loop
      vertex 1.54507 4.75528 -1.5
      vertex 2.5 4.33012 4.5
      vertex 1.54507 4.75528 4.5
    endloop
  endfacet
  facet normal -0.406733 -0.913547 -0
    outer loop
      vertex 2.5 4.33012 4.5
      vertex 1.54507 4.75528 -1.5
      vertex 2.5 4.33012 -1.5
    endloop
  endfacet
  facet normal 0.707107 0.707107 -0
    outer loop
      vertex 1.14238 5.85762 -4.5
      vertex 0 7 -1.5
      vertex 1.14238 5.85762 -1.5
    endloop
  endfacet
  facet normal 0.707107 0.707107 0
    outer loop
      vertex 0 7 -1.5
      vertex 1.14238 5.85762 -4.5
      vertex 0 7 -4.5
    endloop
  endfacet
  facet normal 0.866025 0.500001 0
    outer loop
      vertex -4.04507 -2.93892 4.5
      vertex -4.56772 -2.03368 -1.5
      vertex -4.56772 -2.03368 4.5
    endloop
  endfacet
  facet normal 0.866025 0.500001 0
    outer loop
      vertex -4.56772 -2.03368 -1.5
      vertex -4.04507 -2.93892 4.5
      vertex -4.04507 -2.93892 -1.5
    endloop
  endfacet
  facet normal 0.951056 0.309019 0
    outer loop
      vertex -4.56772 -2.03368 4.5
      vertex -4.89073 -1.03955 -1.5
      vertex -4.89073 -1.03955 4.5
    endloop
  endfacet
  facet normal 0.951056 0.309019 0
    outer loop
      vertex -4.89073 -1.03955 -1.5
      vertex -4.56772 -2.03368 4.5
      vertex -4.56772 -2.03368 -1.5
    endloop
  endfacet
  facet normal 0.994521 0.104535 0
    outer loop
      vertex -4.89073 -1.03955 4.5
      vertex -5 0 -1.5
      vertex -5 0 4.5
    endloop
  endfacet
  facet normal 0.994521 0.104535 0
    outer loop
      vertex -5 0 -1.5
      vertex -4.89073 -1.03955 4.5
      vertex -4.89073 -1.03955 -1.5
    endloop
  endfacet
  facet normal 0.994521 -0.104535 0
    outer loop
      vertex -5 0 4.5
      vertex -4.89073 1.03955 -1.5
      vertex -4.89073 1.03955 4.5
    endloop
  endfacet
  facet normal 0.994521 -0.104535 0
    outer loop
      vertex -4.89073 1.03955 -1.5
      vertex -5 0 4.5
      vertex -5 0 -1.5
    endloop
  endfacet
  facet normal 0.951056 -0.309019 0
    outer loop
      vertex -4.89073 1.03955 4.5
      vertex -4.56772 2.03368 -1.5
      vertex -4.56772 2.03368 4.5
    endloop
  endfacet
  facet normal 0.951056 -0.309019 0
    outer loop
      vertex -4.56772 2.03368 -1.5
      vertex -4.89073 1.03955 4.5
      vertex -4.89073 1.03955 -1.5
    endloop
  endfacet
  facet normal 0.866025 -0.500001 0
    outer loop
      vertex -4.56772 2.03368 4.5
      vertex -4.04507 2.93892 -1.5
      vertex -4.04507 2.93892 4.5
    endloop
  endfacet
  facet normal 0.866025 -0.500001 0
    outer loop
      vertex -4.04507 2.93892 -1.5
      vertex -4.56772 2.03368 4.5
      vertex -4.56772 2.03368 -1.5
    endloop
  endfacet
  facet normal -0.707107 0.707107 0
    outer loop
      vertex -5.88255 1.11745 -4.5
      vertex -7 0 -1.5
      vertex -5.88255 1.11745 -1.5
    endloop
  endfacet
  facet normal -0.707107 0.707107 0
    outer loop
      vertex -7 0 -1.5
      vertex -5.88255 1.11745 -4.5
      vertex -7 0 -4.5
    endloop
  endfacet
  facet normal -0.707107 -0.707107 0
    outer loop
      vertex -7 0 -4.5
      vertex -5.88255 -1.11745 -1.5
      vertex -7 0 -1.5
    endloop
  endfacet
  facet normal -0.707107 -0.707107 -0
    outer loop
      vertex -5.88255 -1.11745 -1.5
      vertex -7 0 -4.5
      vertex -5.88255 -1.11745 -4.5
    endloop
  endfacet
  facet normal 0.707107 0.707107 -0
    outer loop
      vertex 7 0 -4.5
      vertex 5.88255 1.11745 -1.5
      vertex 7 0 -1.5
    endloop
  endfacet
  facet normal 0.707107 0.707107 0
    outer loop
      vertex 5.88255 1.11745 -1.5
      vertex 7 0 -4.5
      vertex 5.88255 1.11745 -4.5
    endloop
  endfacet
  facet normal -0.866025 -0.500001 0
    outer loop
      vertex 4.56772 2.03368 -1.5
      vertex 4.04507 2.93892 4.5
      vertex 4.04507 2.93892 -1.5
    endloop
  endfacet
  facet normal -0.866025 -0.500001 0
    outer loop
      vertex 4.04507 2.93892 4.5
      vertex 4.56772 2.03368 -1.5
      vertex 4.56772 2.03368 4.5
    endloop
  endfacet
  facet normal -0.951056 -0.309019 0
    outer loop
      vertex 4.89073 1.03955 -1.5
      vertex 4.56772 2.03368 4.5
      vertex 4.56772 2.03368 -1.5
    endloop
  endfacet
  facet normal -0.951056 -0.309019 0
    outer loop
      vertex 4.56772 2.03368 4.5
      vertex 4.89073 1.03955 -1.5
      vertex 4.89073 1.03955 4.5
    endloop
  endfacet
  facet normal -0.994521 -0.104535 0
    outer loop
      vertex 5 0 -1.5
      vertex 4.89073 1.03955 4.5
      vertex 4.89073 1.03955 -1.5
    endloop
  endfacet
  facet normal -0.994521 -0.104535 0
    outer loop
      vertex 4.89073 1.03955 4.5
      vertex 5 0 -1.5
      vertex 5 0 4.5
    endloop
  endfacet
  facet normal -0.994521 0.104535 0
    outer loop
      vertex 4.89073 -1.03955 -1.5
      vertex 5 0 4.5
      vertex 5 0 -1.5
    endloop
  endfacet
  facet normal -0.994521 0.104535 0
    outer loop
      vertex 5 0 4.5
      vertex 4.89073 -1.03955 -1.5
      vertex 4.89073 -1.03955 4.5
    endloop
  endfacet
  facet normal -0.951056 0.309019 0
    outer loop
      vertex 4.56772 -2.03368 -1.5
      vertex 4.89073 -1.03955 4.5
      vertex 4.89073 -1.03955 -1.5
    endloop
  endfacet
  facet normal -0.951056 0.309019 0
    outer loop
      vertex 4.89073 -1.03955 4.5
      vertex 4.56772 -2.03368 -1.5
      vertex 4.56772 -2.03368 4.5
    endloop
  endfacet
  facet normal -0.866025 0.500001 0
    outer loop
      vertex 4.04507 -2.93892 -1.5
      vertex 4.56772 -2.03368 4.5
      vertex 4.56772 -2.03368 -1.5
    endloop
  endfacet
  facet normal -0.866025 0.500001 0
    outer loop
      vertex 4.56772 -2.03368 4.5
      vertex 4.04507 -2.93892 -1.5
      vertex 4.04507 -2.93892 4.5
    endloop
  endfacet
  facet normal 0.707107 -0.707107 0
    outer loop
      vertex 5.88255 -1.11745 -4.5
      vertex 7 0 -1.5
      vertex 5.88255 -1.11745 -1.5
    endloop
  endfacet
  facet normal 0.707107 -0.707107 0
    outer loop
      vertex 7 0 -1.5
      vertex 5.88255 -1.11745 -4.5
      vertex 7 0 -4.5
    endloop
  endfacet
  facet normal -0.406733 0.913547 0
    outer loop
      vertex 2.5 -4.33012 -1.5
      vertex 1.54507 -4.75528 4.5
      vertex 2.5 -4.33012 4.5
    endloop
  endfacet
  facet normal -0.406733 0.913547 0
    outer loop
      vertex 1.54507 -4.75528 4.5
      vertex 2.5 -4.33012 -1.5
      vertex 1.54507 -4.75528 -1.5
    endloop
  endfacet
  facet normal -0.207901 0.97815 0
    outer loop
      vertex 1.54507 -4.75528 -1.5
      vertex 0.522629 -4.9726 4.5
      vertex 1.54507 -4.75528 4.5
    endloop
  endfacet
  facet normal -0.207901 0.97815 0
    outer loop
      vertex 0.522629 -4.9726 4.5
      vertex 1.54507 -4.75528 -1.5
      vertex 0.522629 -4.9726 -1.5
    endloop
  endfacet
  facet normal 0 1 -0
    outer loop
      vertex 0.522629 -4.9726 -1.5
      vertex -0.522629 -4.9726 4.5
      vertex 0.522629 -4.9726 4.5
    endloop
  endfacet
  facet normal 0 1 0
    outer loop
      vertex -0.522629 -4.9726 4.5
      vertex 0.522629 -4.9726 -1.5
      vertex -0.522629 -4.9726 -1.5
    endloop
  endfacet
  facet normal 0.207901 0.97815 -0
    outer loop
      vertex -0.522629 -4.9726 -1.5
      vertex -1.54507 -4.75528 4.5
      vertex -0.522629 -4.9726 4.5
    endloop
  endfacet
  facet normal 0.207901 0.97815 0
    outer loop
      vertex -1.54507 -4.75528 4.5
      vertex -0.522629 -4.9726 -1.5
      vertex -1.54507 -4.75528 -1.5
    endloop
  endfacet
  facet normal 0.406733 0.913547 -0
    outer loop
      vertex -1.54507 -4.75528 -1.5
      vertex -2.5 -4.33012 4.5
      vertex -1.54507 -4.75528 4.5
    endloop
  endfacet
  facet normal 0.406733 0.913547 0
    outer loop
      vertex -2.5 -4.33012 4.5
      vertex -1.54507 -4.75528 -1.5
      vertex -2.5 -4.33012 -1.5
    endloop
  endfacet
  facet normal -0.707107 -0.707107 0
    outer loop
      vertex -1.14238 -5.85762 -4.5
      vertex 0 -7 -1.5
      vertex -1.14238 -5.85762 -1.5
    endloop
  endfacet
  facet normal -0.707107 -0.707107 -0
    outer loop
      vertex 0 -7 -1.5
      vertex -1.14238 -5.85762 -4.5
      vertex 0 -7 -4.5
    endloop
  endfacet
  facet normal 0.707107 -0.707107 0
    outer loop
      vertex 0 -7 -4.5
      vertex 1.14238 -5.85762 -1.5
      vertex 0 -7 -1.5
    endloop
  endfacet
  facet normal 0.707107 -0.707107 0
    outer loop
      vertex 1.14238 -5.85762 -1.5
      vertex 0 -7 -4.5
      vertex 1.14238 -5.85762 -4.5
    endloop
  endfacet
  facet normal 0 0 -1
    outer loop
      vertex 19 0 1.5
      vertex 15.6528 10.3017 1.5
      vertex 16.4545 9.49998 1.5
    endloop
  endfacet
  facet normal 0 0 -1
    outer loop
      vertex -7.27409 17.0509 1.5
      vertex -13.2329 12.7216 1.5
      vertex -9.49998 16.4545 1.5
    endloop
  endfacet
  facet normal 0 0 -1
    outer loop
      vertex 3.47053 18.0701 1.5
      vertex -3.47053 18.0701 1.5
      vertex 0 19 1.5
    endloop
  endfacet
  facet normal 0 0 -1
    outer loop
      vertex -15.6528 10.3017 1.5
      vertex -19 0 1.5
      vertex -16.4545 9.49998 1.5
    endloop
  endfacet
  facet normal 0 0 -1
    outer loop
      vertex -16.4545 -9.49998 1.5
      vertex -19 0 1.5
      vertex -15.6528 -10.3017 1.5
    endloop
  endfacet
  facet normal 0 0 -1
    outer loop
      vertex 0 -19 1.5
      vertex -3.47053 -18.0701 1.5
      vertex 3.47053 -18.0701 1.5
    endloop
  endfacet
  facet normal 0 0 -1
    outer loop
      vertex -9.5 -16.4545 1.5
      vertex -13.2329 -12.7216 1.5
      vertex -7.27408 -17.0509 1.5
    endloop
  endfacet
  facet normal -0 0 -1
    outer loop
      vertex 9.5 -16.4545 1.5
      vertex 7.27408 -17.0509 1.5
      vertex 13.2329 -12.7216 1.5
    endloop
  endfacet
  facet normal -0 0 -1
    outer loop
      vertex 16.4545 -9.5 1.5
      vertex 15.6528 -10.3017 1.5
      vertex 19 0 1.5
    endloop
  endfacet
  facet normal 0 0 -1
    outer loop
      vertex 13.2329 12.7216 1.5
      vertex 7.27408 17.0509 1.5
      vertex 9.5 16.4545 1.5
    endloop
  endfacet
  facet normal 0 0 1
    outer loop
      vertex -13.2329 12.7216 1.5
      vertex -15.3713 11.1679 1.5
      vertex -15.6528 10.3017 1.5
    endloop
  endfacet
  facet normal 0 0 1
    outer loop
      vertex -3.47053 18.0701 1.5
      vertex -5.87132 18.0701 1.5
      vertex -7.27409 17.0509 1.5
    endloop
  endfacet
  facet normal 0 -0 1
    outer loop
      vertex -5.87132 -18.0701 1.5
      vertex -3.47053 -18.0701 1.5
      vertex -7.27408 -17.0509 1.5
    endloop
  endfacet
  facet normal 0 -0 1
    outer loop
      vertex 15.3713 -11.1679 1.5
      vertex 15.6528 -10.3017 1.5
      vertex 13.2329 -12.7216 1.5
    endloop
  endfacet
  facet normal 0 -0 1
    outer loop
      vertex 5.87132 -18.0701 1.5
      vertex 7.27408 -17.0509 1.5
      vertex 3.47053 -18.0701 1.5
    endloop
  endfacet
  facet normal -0 -0 1
    outer loop
      vertex -15.3713 -11.1679 1.5
      vertex -13.2329 -12.7216 1.5
      vertex -15.6528 -10.3017 1.5
    endloop
  endfacet
  facet normal 0 0 1
    outer loop
      vertex 7.27408 17.0509 1.5
      vertex 5.87132 18.0701 1.5
      vertex 3.47053 18.0701 1.5
    endloop
  endfacet
  facet normal 0 0 1
    outer loop
      vertex 15.6528 10.3017 1.5
      vertex 15.3713 11.1679 1.5
      vertex 13.2329 12.7216 1.5
    endloop
  endfacet
  facet normal 0.951056 -0.309017 0
    outer loop
      vertex 15.6528 -10.3017 1.5
      vertex 19 0 -1.5
      vertex 19 0 1.5
    endloop
  endfacet
  facet normal 0.951057 -0.309017 0
    outer loop
      vertex 15.3713 -11.1679 -1.5
      vertex 15.6528 -10.3017 1.5
      vertex 15.3713 -11.1679 1.5
    endloop
  endfacet
  facet normal 0.951056 -0.309017 9.8685e-08
    outer loop
      vertex 15.6528 -10.3017 1.5
      vertex 15.3713 -11.1679 -1.5
      vertex 19 0 -1.5
    endloop
  endfacet
  facet normal 0.951056 0.309017 0
    outer loop
      vertex 15.6528 10.3017 1.5
      vertex 15.3713 11.1679 -1.5
      vertex 15.3713 11.1679 1.5
    endloop
  endfacet
  facet normal 0.951056 0.309017 -0
    outer loop
      vertex 19 0 -1.5
      vertex 15.6528 10.3017 1.5
      vertex 19 0 1.5
    endloop
  endfacet
  facet normal 0.951056 0.309017 4.52694e-08
    outer loop
      vertex 15.6528 10.3017 1.5
      vertex 19 0 -1.5
      vertex 15.3713 11.1679 -1.5
    endloop
  endfacet
  facet normal 0.587786 0.809017 -0
    outer loop
      vertex 15.3713 11.1679 -1.5
      vertex 13.2329 12.7216 1.5
      vertex 15.3713 11.1679 1.5
    endloop
  endfacet
  facet normal 0.587786 0.809017 -1.28649e-07
    outer loop
      vertex 5.87132 18.0701 -1.5
      vertex 13.2329 12.7216 1.5
      vertex 15.3713 11.1679 -1.5
    endloop
  endfacet
  facet normal 0.587786 0.809017 -4.94984e-08
    outer loop
      vertex 13.2329 12.7216 1.5
      vertex 5.87132 18.0701 -1.5
      vertex 7.27408 17.0509 1.5
    endloop
  endfacet
  facet normal 0.587786 0.809017 0
    outer loop
      vertex 7.27408 17.0509 1.5
      vertex 5.87132 18.0701 -1.5
      vertex 5.87132 18.0701 1.5
    endloop
  endfacet
  facet normal 0 1 -0
    outer loop
      vertex 5.87132 18.0701 -1.5
      vertex 3.47053 18.0701 1.5
      vertex 5.87132 18.0701 1.5
    endloop
  endfacet
  facet normal 0 1 0
    outer loop
      vertex 3.47053 18.0701 1.5
      vertex 5.87132 18.0701 -1.5
      vertex -3.47053 18.0701 1.5
    endloop
  endfacet
  facet normal 0 1 0
    outer loop
      vertex -5.87132 18.0701 -1.5
      vertex -3.47053 18.0701 1.5
      vertex 5.87132 18.0701 -1.5
    endloop
  endfacet
  facet normal 0 1 0
    outer loop
      vertex -3.47053 18.0701 1.5
      vertex -5.87132 18.0701 -1.5
      vertex -5.87132 18.0701 1.5
    endloop
  endfacet
  facet normal -0.587786 0.809017 0
    outer loop
      vertex -5.87132 18.0701 -1.5
      vertex -7.27409 17.0509 1.5
      vertex -5.87132 18.0701 1.5
    endloop
  endfacet
  facet normal -0.587786 0.809017 8.82084e-08
    outer loop
      vertex -7.27409 17.0509 1.5
      vertex -5.87132 18.0701 -1.5
      vertex -13.2329 12.7216 1.5
    endloop
  endfacet
  facet normal -0.587786 0.809017 2.99449e-08
    outer loop
      vertex -15.3713 11.1679 -1.5
      vertex -13.2329 12.7216 1.5
      vertex -5.87132 18.0701 -1.5
    endloop
  endfacet
  facet normal -0.587786 0.809017 0
    outer loop
      vertex -13.2329 12.7216 1.5
      vertex -15.3713 11.1679 -1.5
      vertex -15.3713 11.1679 1.5
    endloop
  endfacet
  facet normal -0.951056 0.309017 0
    outer loop
      vertex -15.3713 11.1679 -1.5
      vertex -15.6528 10.3017 1.5
      vertex -15.3713 11.1679 1.5
    endloop
  endfacet
  facet normal -0.951056 0.309017 3.76385e-08
    outer loop
      vertex -19 0 -1.5
      vertex -15.6528 10.3017 1.5
      vertex -15.3713 11.1679 -1.5
    endloop
  endfacet
  facet normal -0.951056 0.309017 0
    outer loop
      vertex -15.6528 10.3017 1.5
      vertex -19 0 -1.5
      vertex -19 0 1.5
    endloop
  endfacet
  facet normal -0.951056 -0.309017 0
    outer loop
      vertex -19 0 -1.5
      vertex -15.6528 -10.3017 1.5
      vertex -19 0 1.5
    endloop
  endfacet
  facet normal -0.951056 -0.309017 4.52694e-08
    outer loop
      vertex -15.3713 -11.1679 -1.5
      vertex -15.6528 -10.3017 1.5
      vertex -19 0 -1.5
    endloop
  endfacet
  facet normal -0.951056 -0.309017 0
    outer loop
      vertex -15.6528 -10.3017 1.5
      vertex -15.3713 -11.1679 -1.5
      vertex -15.3713 -11.1679 1.5
    endloop
  endfacet
  facet normal -0.587786 -0.809017 0
    outer loop
      vertex -15.3713 -11.1679 -1.5
      vertex -13.2329 -12.7216 1.5
      vertex -15.3713 -11.1679 1.5
    endloop
  endfacet
  facet normal -0.587786 -0.809017 -1.28649e-07
    outer loop
      vertex -5.87132 -18.0701 -1.5
      vertex -13.2329 -12.7216 1.5
      vertex -15.3713 -11.1679 -1.5
    endloop
  endfacet
  facet normal -0.587786 -0.809017 -4.94984e-08
    outer loop
      vertex -13.2329 -12.7216 1.5
      vertex -5.87132 -18.0701 -1.5
      vertex -7.27408 -17.0509 1.5
    endloop
  endfacet
  facet normal -0.587786 -0.809017 0
    outer loop
      vertex -7.27408 -17.0509 1.5
      vertex -5.87132 -18.0701 -1.5
      vertex -5.87132 -18.0701 1.5
    endloop
  endfacet
  facet normal 0 -1 0
    outer loop
      vertex -5.87132 -18.0701 -1.5
      vertex -3.47053 -18.0701 1.5
      vertex -5.87132 -18.0701 1.5
    endloop
  endfacet
  facet normal 0 -1 -0
    outer loop
      vertex -3.47053 -18.0701 1.5
      vertex -5.87132 -18.0701 -1.5
      vertex 3.47053 -18.0701 1.5
    endloop
  endfacet
  facet normal 0 -1 0
    outer loop
      vertex 5.87132 -18.0701 -1.5
      vertex 3.47053 -18.0701 1.5
      vertex -5.87132 -18.0701 -1.5
    endloop
  endfacet
  facet normal 0 -1 0
    outer loop
      vertex 3.47053 -18.0701 1.5
      vertex 5.87132 -18.0701 -1.5
      vertex 5.87132 -18.0701 1.5
    endloop
  endfacet
  facet normal 0.587786 -0.809017 0
    outer loop
      vertex 5.87132 -18.0701 -1.5
      vertex 7.27408 -17.0509 1.5
      vertex 5.87132 -18.0701 1.5
    endloop
  endfacet
  facet normal 0.587786 -0.809017 -7.83868e-08
    outer loop
      vertex 7.27408 -17.0509 1.5
      vertex 5.87132 -18.0701 -1.5
      vertex 13.2329 -12.7216 1.5
    endloop
  endfacet
  facet normal 0.587786 -0.809017 -5.93346e-09
    outer loop
      vertex 15.3713 -11.1679 -1.5
      vertex 13.2329 -12.7216 1.5
      vertex 5.87132 -18.0701 -1.5
    endloop
  endfacet
  facet normal 0.587786 -0.809017 0
    outer loop
      vertex 13.2329 -12.7216 1.5
      vertex 15.3713 -11.1679 -1.5
      vertex 15.3713 -11.1679 1.5
    endloop
  endfacet
  facet normal 0.587795 0.80901 -0
    outer loop
      vertex -2.5 -4.33012 -1.5
      vertex -3.34564 -3.71571 4.5
      vertex -2.5 -4.33012 4.5
    endloop
  endfacet
  facet normal 0.587795 0.80901 0
    outer loop
      vertex -3.34564 -3.71571 4.5
      vertex -2.5 -4.33012 -1.5
      vertex -3.34564 -3.71571 -1.5
    endloop
  endfacet
  facet normal 0.743143 0.669132 0
    outer loop
      vertex -3.34564 -3.71571 4.5
      vertex -4.04507 -2.93892 -1.5
      vertex -4.04507 -2.93892 4.5
    endloop
  endfacet
  facet normal 0.743143 0.669132 0
    outer loop
      vertex -4.04507 -2.93892 -1.5
      vertex -3.34564 -3.71571 4.5
      vertex -3.34564 -3.71571 -1.5
    endloop
  endfacet
  facet normal 0.743143 -0.669132 0
    outer loop
      vertex -4.04507 2.93892 4.5
      vertex -3.34564 3.71571 -1.5
      vertex -3.34564 3.71571 4.5
    endloop
  endfacet
  facet normal 0.743143 -0.669132 0
    outer loop
      vertex -3.34564 3.71571 -1.5
      vertex -4.04507 2.93892 4.5
      vertex -4.04507 2.93892 -1.5
    endloop
  endfacet
  facet normal 0.587788 -0.809015 0
    outer loop
      vertex -3.34564 3.71571 -1.5
      vertex -2.49998 4.33012 4.5
      vertex -3.34564 3.71571 4.5
    endloop
  endfacet
  facet normal 0.587788 -0.809015 0
    outer loop
      vertex -2.49998 4.33012 4.5
      vertex -3.34564 3.71571 -1.5
      vertex -2.49998 4.33012 -1.5
    endloop
  endfacet
  facet normal -0.587795 -0.80901 0
    outer loop
      vertex 2.5 4.33012 -1.5
      vertex 3.34564 3.71571 4.5
      vertex 2.5 4.33012 4.5
    endloop
  endfacet
  facet normal -0.587795 -0.80901 -0
    outer loop
      vertex 3.34564 3.71571 4.5
      vertex 2.5 4.33012 -1.5
      vertex 3.34564 3.71571 -1.5
    endloop
  endfacet
  facet normal -0.743143 -0.669132 0
    outer loop
      vertex 4.04507 2.93892 -1.5
      vertex 3.34564 3.71571 4.5
      vertex 3.34564 3.71571 -1.5
    endloop
  endfacet
  facet normal -0.743143 -0.669132 0
    outer loop
      vertex 3.34564 3.71571 4.5
      vertex 4.04507 2.93892 -1.5
      vertex 4.04507 2.93892 4.5
    endloop
  endfacet
  facet normal -0.743143 0.669132 0
    outer loop
      vertex 3.34564 -3.71571 -1.5
      vertex 4.04507 -2.93892 4.5
      vertex 4.04507 -2.93892 -1.5
    endloop
  endfacet
  facet normal -0.743143 0.669132 0
    outer loop
      vertex 4.04507 -2.93892 4.5
      vertex 3.34564 -3.71571 -1.5
      vertex 3.34564 -3.71571 4.5
    endloop
  endfacet
  facet normal -0.587795 0.80901 0
    outer loop
      vertex 3.34564 -3.71571 -1.5
      vertex 2.5 -4.33012 4.5
      vertex 3.34564 -3.71571 4.5
    endloop
  endfacet
  facet normal -0.587795 0.80901 0
    outer loop
      vertex 2.5 -4.33012 4.5
      vertex 3.34564 -3.71571 -1.5
      vertex 2.5 -4.33012 -1.5
    endloop
  endfacet
  facet normal -0 0 1
    outer loop
      vertex 4.89073 1.03955 4.5
      vertex 19 0 4.5
      vertex 16.4545 9.49998 4.5
    endloop
  endfacet
  facet normal 0 0 1
    outer loop
      vertex 3.34564 3.71571 4.5
      vertex 16.4545 9.49998 4.5
      vertex 9.5 16.4545 4.5
    endloop
  endfacet
  facet normal 0 0 1
    outer loop
      vertex 19 0 4.5
      vertex 4.89073 1.03955 4.5
      vertex 5 0 4.5
    endloop
  endfacet
  facet normal 0 0 1
    outer loop
      vertex 19 0 4.5
      vertex 4.89073 -1.03955 4.5
      vertex 16.4545 -9.5 4.5
    endloop
  endfacet
  facet normal 0 0 1
    outer loop
      vertex 4.89073 -1.03955 4.5
      vertex 19 0 4.5
      vertex 5 0 4.5
    endloop
  endfacet
  facet normal 0 0 1
    outer loop
      vertex 16.4545 9.49998 4.5
      vertex 4.56772 2.03368 4.5
      vertex 4.89073 1.03955 4.5
    endloop
  endfacet
  facet normal 0 0 1
    outer loop
      vertex 16.4545 9.49998 4.5
      vertex 4.04507 2.93892 4.5
      vertex 4.56772 2.03368 4.5
    endloop
  endfacet
  facet normal 0 0 1
    outer loop
      vertex 16.4545 9.49998 4.5
      vertex 3.34564 3.71571 4.5
      vertex 4.04507 2.93892 4.5
    endloop
  endfacet
  facet normal 0 0 1
    outer loop
      vertex 9.5 16.4545 4.5
      vertex 2.5 4.33012 4.5
      vertex 3.34564 3.71571 4.5
    endloop
  endfacet
  facet normal 0 0 1
    outer loop
      vertex 9.5 16.4545 4.5
      vertex 1.54507 4.75528 4.5
      vertex 2.5 4.33012 4.5
    endloop
  endfacet
  facet normal 0 0 1
    outer loop
      vertex 0 19 4.5
      vertex 1.54507 4.75528 4.5
      vertex 9.5 16.4545 4.5
    endloop
  endfacet
  facet normal 0 0 1
    outer loop
      vertex 1.54507 4.75528 4.5
      vertex 0 19 4.5
      vertex 0.522629 4.9726 4.5
    endloop
  endfacet
  facet normal 0 0 1
    outer loop
      vertex 0 19 4.5
      vertex -0.522629 4.9726 4.5
      vertex 0.522629 4.9726 4.5
    endloop
  endfacet
  facet normal 0 0 1
    outer loop
      vertex 0 19 4.5
      vertex -1.54507 4.75528 4.5
      vertex -0.522629 4.9726 4.5
    endloop
  endfacet
  facet normal -0 0 1
    outer loop
      vertex -9.49998 16.4545 4.5
      vertex -1.54507 4.75528 4.5
      vertex 0 19 4.5
    endloop
  endfacet
  facet normal 0 0 1
    outer loop
      vertex -1.54507 4.75528 4.5
      vertex -9.49998 16.4545 4.5
      vertex -2.49998 4.33012 4.5
    endloop
  endfacet
  facet normal 0 0 1
    outer loop
      vertex -2.49998 4.33012 4.5
      vertex -9.49998 16.4545 4.5
      vertex -3.34564 3.71571 4.5
    endloop
  endfacet
  facet normal -0 0 1
    outer loop
      vertex -16.4545 9.49998 4.5
      vertex -3.34564 3.71571 4.5
      vertex -9.49998 16.4545 4.5
    endloop
  endfacet
  facet normal 0 0 1
    outer loop
      vertex -3.34564 3.71571 4.5
      vertex -16.4545 9.49998 4.5
      vertex -4.04507 2.93892 4.5
    endloop
  endfacet
  facet normal 0 0 1
    outer loop
      vertex -4.56772 2.03368 4.5
      vertex -16.4545 9.49998 4.5
      vertex -4.89073 1.03955 4.5
    endloop
  endfacet
  facet normal 0 0 1
    outer loop
      vertex -4.04507 2.93892 4.5
      vertex -16.4545 9.49998 4.5
      vertex -4.56772 2.03368 4.5
    endloop
  endfacet
  facet normal -0 0 1
    outer loop
      vertex 4.56772 -2.03368 4.5
      vertex 16.4545 -9.5 4.5
      vertex 4.89073 -1.03955 4.5
    endloop
  endfacet
  facet normal -0 0 1
    outer loop
      vertex 4.04507 -2.93892 4.5
      vertex 16.4545 -9.5 4.5
      vertex 4.56772 -2.03368 4.5
    endloop
  endfacet
  facet normal -0 0 1
    outer loop
      vertex 3.34564 -3.71571 4.5
      vertex 16.4545 -9.5 4.5
      vertex 4.04507 -2.93892 4.5
    endloop
  endfacet
  facet normal 0 0 1
    outer loop
      vertex 16.4545 -9.5 4.5
      vertex 3.34564 -3.71571 4.5
      vertex 9.5 -16.4545 4.5
    endloop
  endfacet
  facet normal -0 0 1
    outer loop
      vertex 2.5 -4.33012 4.5
      vertex 9.5 -16.4545 4.5
      vertex 3.34564 -3.71571 4.5
    endloop
  endfacet
  facet normal -0 0 1
    outer loop
      vertex 1.54507 -4.75528 4.5
      vertex 9.5 -16.4545 4.5
      vertex 2.5 -4.33012 4.5
    endloop
  endfacet
  facet normal 0 0 1
    outer loop
      vertex 0 -19 4.5
      vertex 1.54507 -4.75528 4.5
      vertex 0.522629 -4.9726 4.5
    endloop
  endfacet
  facet normal 0 0 1
    outer loop
      vertex 1.54507 -4.75528 4.5
      vertex 0 -19 4.5
      vertex 9.5 -16.4545 4.5
    endloop
  endfacet
  facet normal -0 0 1
    outer loop
      vertex -0.522629 -4.9726 4.5
      vertex 0 -19 4.5
      vertex 0.522629 -4.9726 4.5
    endloop
  endfacet
  facet normal 0 0 1
    outer loop
      vertex -1.54507 -4.75528 4.5
      vertex 0 -19 4.5
      vertex -0.522629 -4.9726 4.5
    endloop
  endfacet
  facet normal 0 0 1
    outer loop
      vertex -9.5 -16.4545 4.5
      vertex -1.54507 -4.75528 4.5
      vertex -2.5 -4.33012 4.5
    endloop
  endfacet
  facet normal 0 0 1
    outer loop
      vertex -9.5 -16.4545 4.5
      vertex -2.5 -4.33012 4.5
      vertex -3.34564 -3.71571 4.5
    endloop
  endfacet
  facet normal 0 0 1
    outer loop
      vertex -16.4545 -9.49998 4.5
      vertex -3.34564 -3.71571 4.5
      vertex -4.04507 -2.93892 4.5
    endloop
  endfacet
  facet normal 0 0 1
    outer loop
      vertex -16.4545 -9.49998 4.5
      vertex -4.04507 -2.93892 4.5
      vertex -4.56772 -2.03368 4.5
    endloop
  endfacet
  facet normal 0 0 1
    outer loop
      vertex -16.4545 -9.49998 4.5
      vertex -4.56772 -2.03368 4.5
      vertex -4.89073 -1.03955 4.5
    endloop
  endfacet
  facet normal 0 0 1
    outer loop
      vertex -19 0 4.5
      vertex -4.89073 1.03955 4.5
      vertex -16.4545 9.49998 4.5
    endloop
  endfacet
  facet normal 0 0 1
    outer loop
      vertex -1.54507 -4.75528 4.5
      vertex -9.5 -16.4545 4.5
      vertex 0 -19 4.5
    endloop
  endfacet
  facet normal 0 0 1
    outer loop
      vertex -4.89073 1.03955 4.5
      vertex -19 0 4.5
      vertex -5 0 4.5
    endloop
  endfacet
  facet normal 0 0 1
    outer loop
      vertex -5 0 4.5
      vertex -19 0 4.5
      vertex -4.89073 -1.03955 4.5
    endloop
  endfacet
  facet normal 0 0 1
    outer loop
      vertex -3.34564 -3.71571 4.5
      vertex -16.4545 -9.49998 4.5
      vertex -9.5 -16.4545 4.5
    endloop
  endfacet
  facet normal 0 0 1
    outer loop
      vertex -4.89073 -1.03955 4.5
      vertex -19 0 4.5
      vertex -16.4545 -9.49998 4.5
    endloop
  endfacet
  facet normal 0.707107 -0.707107 0
    outer loop
      vertex 16.4545 -9.5 4.5
      vertex 15.6528 -10.3017 1.5
      vertex 16.4545 -9.5 1.5
    endloop
  endfacet
  facet normal 0.707107 -0.707107 0
    outer loop
      vertex 16.4545 -9.5 4.5
      vertex 13.2329 -12.7216 1.5
      vertex 15.6528 -10.3017 1.5
    endloop
  endfacet
  facet normal 0.707107 -0.707107 0
    outer loop
      vertex 9.5 -16.4545 4.5
      vertex 13.2329 -12.7216 1.5
      vertex 16.4545 -9.5 4.5
    endloop
  endfacet
  facet normal 0.707107 -0.707107 0
    outer loop
      vertex 13.2329 -12.7216 1.5
      vertex 9.5 -16.4545 4.5
      vertex 9.5 -16.4545 1.5
    endloop
  endfacet
  facet normal 0.965925 -0.25882 0
    outer loop
      vertex 16.4545 -9.5 4.5
      vertex 19 0 1.5
      vertex 19 0 4.5
    endloop
  endfacet
  facet normal 0.965925 -0.25882 0
    outer loop
      vertex 19 0 1.5
      vertex 16.4545 -9.5 4.5
      vertex 16.4545 -9.5 1.5
    endloop
  endfacet
  facet normal 0.965925 0.258821 0
    outer loop
      vertex 19 0 4.5
      vertex 16.4545 9.49998 1.5
      vertex 16.4545 9.49998 4.5
    endloop
  endfacet
  facet normal 0.965925 0.258821 0
    outer loop
      vertex 16.4545 9.49998 1.5
      vertex 19 0 4.5
      vertex 19 0 1.5
    endloop
  endfacet
  facet normal 0.707108 0.707106 0
    outer loop
      vertex 9.5 16.4545 4.5
      vertex 13.2329 12.7216 1.5
      vertex 9.5 16.4545 1.5
    endloop
  endfacet
  facet normal 0.707108 0.707106 1.3221e-07
    outer loop
      vertex 16.4545 9.49998 4.5
      vertex 13.2329 12.7216 1.5
      vertex 9.5 16.4545 4.5
    endloop
  endfacet
  facet normal 0.707108 0.707106 2.75468e-09
    outer loop
      vertex 13.2329 12.7216 1.5
      vertex 16.4545 9.49998 4.5
      vertex 15.6528 10.3017 1.5
    endloop
  endfacet
  facet normal 0.707108 0.707106 0
    outer loop
      vertex 15.6528 10.3017 1.5
      vertex 16.4545 9.49998 4.5
      vertex 16.4545 9.49998 1.5
    endloop
  endfacet
  facet normal 0.258821 0.965925 0
    outer loop
      vertex 7.27408 17.0509 1.5
      vertex 9.5 16.4545 4.5
      vertex 9.5 16.4545 1.5
    endloop
  endfacet
  facet normal 0.25882 0.965925 1.66902e-07
    outer loop
      vertex 3.47053 18.0701 1.5
      vertex 9.5 16.4545 4.5
      vertex 7.27408 17.0509 1.5
    endloop
  endfacet
  facet normal 0.25882 0.965925 -1.0001e-08
    outer loop
      vertex 9.5 16.4545 4.5
      vertex 3.47053 18.0701 1.5
      vertex 0 19 4.5
    endloop
  endfacet
  facet normal 0.25882 0.965925 0
    outer loop
      vertex 0 19 4.5
      vertex 3.47053 18.0701 1.5
      vertex 0 19 1.5
    endloop
  endfacet
  facet normal -0.258821 0.965925 0
    outer loop
      vertex -3.47053 18.0701 1.5
      vertex 0 19 4.5
      vertex 0 19 1.5
    endloop
  endfacet
  facet normal -0.258821 0.965925 -2.17598e-09
    outer loop
      vertex 0 19 4.5
      vertex -3.47053 18.0701 1.5
      vertex -9.49998 16.4545 4.5
    endloop
  endfacet
  facet normal -0.258821 0.965925 -1.82142e-07
    outer loop
      vertex -7.27409 17.0509 1.5
      vertex -9.49998 16.4545 4.5
      vertex -3.47053 18.0701 1.5
    endloop
  endfacet
  facet normal -0.258821 0.965925 0
    outer loop
      vertex -9.49998 16.4545 4.5
      vertex -7.27409 17.0509 1.5
      vertex -9.49998 16.4545 1.5
    endloop
  endfacet
  facet normal -0.707107 0.707107 0
    outer loop
      vertex -13.2329 12.7216 1.5
      vertex -9.49998 16.4545 4.5
      vertex -9.49998 16.4545 1.5
    endloop
  endfacet
  facet normal -0.707107 0.707107 0
    outer loop
      vertex -16.4545 9.49998 4.5
      vertex -13.2329 12.7216 1.5
      vertex -15.6528 10.3017 1.5
    endloop
  endfacet
  facet normal -0.707107 0.707107 0
    outer loop
      vertex -16.4545 9.49998 4.5
      vertex -15.6528 10.3017 1.5
      vertex -16.4545 9.49998 1.5
    endloop
  endfacet
  facet normal -0.707107 0.707107 0
    outer loop
      vertex -13.2329 12.7216 1.5
      vertex -16.4545 9.49998 4.5
      vertex -9.49998 16.4545 4.5
    endloop
  endfacet
  facet normal -0.965925 0.258821 0
    outer loop
      vertex -19 0 1.5
      vertex -16.4545 9.49998 4.5
      vertex -16.4545 9.49998 1.5
    endloop
  endfacet
  facet normal -0.965925 0.258821 0
    outer loop
      vertex -16.4545 9.49998 4.5
      vertex -19 0 1.5
      vertex -19 0 4.5
    endloop
  endfacet
  facet normal -0.965925 -0.258821 0
    outer loop
      vertex -16.4545 -9.49998 1.5
      vertex -19 0 4.5
      vertex -19 0 1.5
    endloop
  endfacet
  facet normal -0.965925 -0.258821 0
    outer loop
      vertex -19 0 4.5
      vertex -16.4545 -9.49998 1.5
      vertex -16.4545 -9.49998 4.5
    endloop
  endfacet
  facet normal -0.707108 -0.707106 0
    outer loop
      vertex -15.6528 -10.3017 1.5
      vertex -16.4545 -9.49998 4.5
      vertex -16.4545 -9.49998 1.5
    endloop
  endfacet
  facet normal -0.707108 -0.707106 2.75468e-09
    outer loop
      vertex -13.2329 -12.7216 1.5
      vertex -16.4545 -9.49998 4.5
      vertex -15.6528 -10.3017 1.5
    endloop
  endfacet
  facet normal -0.707108 -0.707106 -0
    outer loop
      vertex -9.5 -16.4545 4.5
      vertex -13.2329 -12.7216 1.5
      vertex -9.5 -16.4545 1.5
    endloop
  endfacet
  facet normal -0.707108 -0.707106 1.3221e-07
    outer loop
      vertex -13.2329 -12.7216 1.5
      vertex -9.5 -16.4545 4.5
      vertex -16.4545 -9.49998 4.5
    endloop
  endfacet
  facet normal -0.258821 -0.965925 0
    outer loop
      vertex -7.27408 -17.0509 1.5
      vertex -9.5 -16.4545 4.5
      vertex -9.5 -16.4545 1.5
    endloop
  endfacet
  facet normal -0.25882 -0.965925 1.66902e-07
    outer loop
      vertex -3.47053 -18.0701 1.5
      vertex -9.5 -16.4545 4.5
      vertex -7.27408 -17.0509 1.5
    endloop
  endfacet
  facet normal -0.25882 -0.965925 -1.0001e-08
    outer loop
      vertex -9.5 -16.4545 4.5
      vertex -3.47053 -18.0701 1.5
      vertex 0 -19 4.5
    endloop
  endfacet
  facet normal -0.25882 -0.965925 -0
    outer loop
      vertex 0 -19 4.5
      vertex -3.47053 -18.0701 1.5
      vertex 0 -19 1.5
    endloop
  endfacet
  facet normal 0.25882 -0.965925 0
    outer loop
      vertex 3.47053 -18.0701 1.5
      vertex 0 -19 4.5
      vertex 0 -19 1.5
    endloop
  endfacet
  facet normal 0.25882 -0.965925 -1.0001e-08
    outer loop
      vertex 0 -19 4.5
      vertex 3.47053 -18.0701 1.5
      vertex 9.5 -16.4545 4.5
    endloop
  endfacet
  facet normal 0.25882 -0.965925 1.66902e-07
    outer loop
      vertex 7.27408 -17.0509 1.5
      vertex 9.5 -16.4545 4.5
      vertex 3.47053 -18.0701 1.5
    endloop
  endfacet
  facet normal 0.258821 -0.965925 0
    outer loop
      vertex 9.5 -16.4545 4.5
      vertex 7.27408 -17.0509 1.5
      vertex 9.5 -16.4545 1.5
    endloop
  endfacet
  facet normal 0.994522 0.104528 0
    outer loop
      vertex 5.88255 1.11745 -1.5
      vertex 5.86889 1.24747 -4.5
      vertex 5.86889 1.24747 -1.5
    endloop
  endfacet
  facet normal 0.994522 0.104528 0
    outer loop
      vertex 5.86889 1.24747 -4.5
      vertex 5.88255 1.11745 -1.5
      vertex 5.88255 1.11745 -4.5
    endloop
  endfacet
  facet normal -0.994522 0.104528 0
    outer loop
      vertex -5.88255 1.11745 -4.5
      vertex -5.86889 1.24747 -1.5
      vertex -5.86889 1.24747 -4.5
    endloop
  endfacet
  facet normal -0.994522 0.104528 0
    outer loop
      vertex -5.86889 1.24747 -1.5
      vertex -5.88255 1.11745 -4.5
      vertex -5.88255 1.11745 -1.5
    endloop
  endfacet
  facet normal 0.587786 0.809017 -0
    outer loop
      vertex 4.01478 4.45887 -4.5
      vertex 3 5.19615 -1.5
      vertex 4.01478 4.45887 -1.5
    endloop
  endfacet
  facet normal 0.587786 0.809017 0
    outer loop
      vertex 3 5.19615 -1.5
      vertex 4.01478 4.45887 -4.5
      vertex 3 5.19615 -4.5
    endloop
  endfacet
  facet normal 0.406737 0.913545 -0
    outer loop
      vertex 3 5.19615 -4.5
      vertex 1.8541 5.70634 -1.5
      vertex 3 5.19615 -1.5
    endloop
  endfacet
  facet normal 0.406737 0.913545 0
    outer loop
      vertex 1.8541 5.70634 -1.5
      vertex 3 5.19615 -4.5
      vertex 1.8541 5.70634 -4.5
    endloop
  endfacet
  facet normal -0.743145 0.669131 0
    outer loop
      vertex -4.8541 3.52671 -4.5
      vertex -4.01478 4.45887 -1.5
      vertex -4.01478 4.45887 -4.5
    endloop
  endfacet
  facet normal -0.743145 0.669131 0
    outer loop
      vertex -4.01478 4.45887 -1.5
      vertex -4.8541 3.52671 -4.5
      vertex -4.8541 3.52671 -1.5
    endloop
  endfacet
  facet normal -0.866025 0.5 0
    outer loop
      vertex -5.48127 2.44042 -4.5
      vertex -4.8541 3.52671 -1.5
      vertex -4.8541 3.52671 -4.5
    endloop
  endfacet
  facet normal -0.866025 0.5 0
    outer loop
      vertex -4.8541 3.52671 -1.5
      vertex -5.48127 2.44042 -4.5
      vertex -5.48127 2.44042 -1.5
    endloop
  endfacet
  facet normal -0.406737 0.913545 0
    outer loop
      vertex -1.8541 5.70634 -4.5
      vertex -3 5.19615 -1.5
      vertex -1.8541 5.70634 -1.5
    endloop
  endfacet
  facet normal -0.406737 0.913545 0
    outer loop
      vertex -3 5.19615 -1.5
      vertex -1.8541 5.70634 -4.5
      vertex -3 5.19615 -4.5
    endloop
  endfacet
  facet normal 0.866025 0.5 0
    outer loop
      vertex 5.48127 2.44042 -1.5
      vertex 4.8541 3.52671 -4.5
      vertex 4.8541 3.52671 -1.5
    endloop
  endfacet
  facet normal 0.866025 0.5 0
    outer loop
      vertex 4.8541 3.52671 -4.5
      vertex 5.48127 2.44042 -1.5
      vertex 5.48127 2.44042 -4.5
    endloop
  endfacet
  facet normal 0.951057 0.309017 0
    outer loop
      vertex 5.86889 1.24747 -1.5
      vertex 5.48127 2.44042 -4.5
      vertex 5.48127 2.44042 -1.5
    endloop
  endfacet
  facet normal 0.951057 0.309017 0
    outer loop
      vertex 5.48127 2.44042 -4.5
      vertex 5.86889 1.24747 -1.5
      vertex 5.86889 1.24747 -4.5
    endloop
  endfacet
  facet normal 0.743145 0.669131 0
    outer loop
      vertex 4.8541 3.52671 -1.5
      vertex 4.01478 4.45887 -4.5
      vertex 4.01478 4.45887 -1.5
    endloop
  endfacet
  facet normal 0.743145 0.669131 0
    outer loop
      vertex 4.01478 4.45887 -4.5
      vertex 4.8541 3.52671 -1.5
      vertex 4.8541 3.52671 -4.5
    endloop
  endfacet
  facet normal 0.207912 0.978148 -0
    outer loop
      vertex 1.8541 5.70634 -4.5
      vertex 1.14238 5.85762 -1.5
      vertex 1.8541 5.70634 -1.5
    endloop
  endfacet
  facet normal 0.207912 0.978148 0
    outer loop
      vertex 1.14238 5.85762 -1.5
      vertex 1.8541 5.70634 -4.5
      vertex 1.14238 5.85762 -4.5
    endloop
  endfacet
  facet normal -0.951057 0.309017 0
    outer loop
      vertex -5.86889 1.24747 -4.5
      vertex -5.48127 2.44042 -1.5
      vertex -5.48127 2.44042 -4.5
    endloop
  endfacet
  facet normal -0.951057 0.309017 0
    outer loop
      vertex -5.48127 2.44042 -1.5
      vertex -5.86889 1.24747 -4.5
      vertex -5.86889 1.24747 -1.5
    endloop
  endfacet
  facet normal -0.587785 0.809017 0
    outer loop
      vertex -3 5.19615 -4.5
      vertex -4.01478 4.45887 -1.5
      vertex -3 5.19615 -1.5
    endloop
  endfacet
  facet normal -0.587785 0.809017 0
    outer loop
      vertex -4.01478 4.45887 -1.5
      vertex -3 5.19615 -4.5
      vertex -4.01478 4.45887 -4.5
    endloop
  endfacet
  facet normal -0.207912 0.978148 0
    outer loop
      vertex -1.14238 5.85762 -4.5
      vertex -1.8541 5.70634 -1.5
      vertex -1.14238 5.85762 -1.5
    endloop
  endfacet
  facet normal -0.207912 0.978148 0
    outer loop
      vertex -1.8541 5.70634 -1.5
      vertex -1.14238 5.85762 -4.5
      vertex -1.8541 5.70634 -4.5
    endloop
  endfacet
  facet normal 0.994522 -0.104528 0
    outer loop
      vertex 5.86889 -1.24747 -1.5
      vertex 5.88255 -1.11745 -4.5
      vertex 5.88255 -1.11745 -1.5
    endloop
  endfacet
  facet normal 0.994522 -0.104528 0
    outer loop
      vertex 5.88255 -1.11745 -4.5
      vertex 5.86889 -1.24747 -1.5
      vertex 5.86889 -1.24747 -4.5
    endloop
  endfacet
  facet normal 0.207912 -0.978148 0
    outer loop
      vertex 1.14238 -5.85762 -4.5
      vertex 1.8541 -5.70634 -1.5
      vertex 1.14238 -5.85762 -1.5
    endloop
  endfacet
  facet normal 0.207912 -0.978148 0
    outer loop
      vertex 1.8541 -5.70634 -1.5
      vertex 1.14238 -5.85762 -4.5
      vertex 1.8541 -5.70634 -4.5
    endloop
  endfacet
  facet normal 0.743145 -0.669131 0
    outer loop
      vertex 4.01478 -4.45887 -1.5
      vertex 4.8541 -3.52671 -4.5
      vertex 4.8541 -3.52671 -1.5
    endloop
  endfacet
  facet normal 0.743145 -0.669131 0
    outer loop
      vertex 4.8541 -3.52671 -4.5
      vertex 4.01478 -4.45887 -1.5
      vertex 4.01478 -4.45887 -4.5
    endloop
  endfacet
  facet normal 0.951057 -0.309017 0
    outer loop
      vertex 5.48127 -2.44042 -1.5
      vertex 5.86889 -1.24747 -4.5
      vertex 5.86889 -1.24747 -1.5
    endloop
  endfacet
  facet normal 0.951057 -0.309017 0
    outer loop
      vertex 5.86889 -1.24747 -4.5
      vertex 5.48127 -2.44042 -1.5
      vertex 5.48127 -2.44042 -4.5
    endloop
  endfacet
  facet normal 0.866025 -0.5 0
    outer loop
      vertex 4.8541 -3.52671 -1.5
      vertex 5.48127 -2.44042 -4.5
      vertex 5.48127 -2.44042 -1.5
    endloop
  endfacet
  facet normal 0.866025 -0.5 0
    outer loop
      vertex 5.48127 -2.44042 -4.5
      vertex 4.8541 -3.52671 -1.5
      vertex 4.8541 -3.52671 -4.5
    endloop
  endfacet
  facet normal -0.866025 -0.5 0
    outer loop
      vertex -4.8541 -3.52671 -4.5
      vertex -5.48127 -2.44042 -1.5
      vertex -5.48127 -2.44042 -4.5
    endloop
  endfacet
  facet normal -0.866025 -0.5 0
    outer loop
      vertex -5.48127 -2.44042 -1.5
      vertex -4.8541 -3.52671 -4.5
      vertex -4.8541 -3.52671 -1.5
    endloop
  endfacet
  facet normal 0.587786 -0.809017 0
    outer loop
      vertex 3 -5.19615 -4.5
      vertex 4.01478 -4.45887 -1.5
      vertex 3 -5.19615 -1.5
    endloop
  endfacet
  facet normal 0.587786 -0.809017 0
    outer loop
      vertex 4.01478 -4.45887 -1.5
      vertex 3 -5.19615 -4.5
      vertex 4.01478 -4.45887 -4.5
    endloop
  endfacet
  facet normal 0.406737 -0.913545 0
    outer loop
      vertex 1.8541 -5.70634 -4.5
      vertex 3 -5.19615 -1.5
      vertex 1.8541 -5.70634 -1.5
    endloop
  endfacet
  facet normal 0.406737 -0.913545 0
    outer loop
      vertex 3 -5.19615 -1.5
      vertex 1.8541 -5.70634 -4.5
      vertex 3 -5.19615 -4.5
    endloop
  endfacet
  facet normal -0.207912 -0.978148 0
    outer loop
      vertex -1.8541 -5.70634 -4.5
      vertex -1.14238 -5.85762 -1.5
      vertex -1.8541 -5.70634 -1.5
    endloop
  endfacet
  facet normal -0.207912 -0.978148 -0
    outer loop
      vertex -1.14238 -5.85762 -1.5
      vertex -1.8541 -5.70634 -4.5
      vertex -1.14238 -5.85762 -4.5
    endloop
  endfacet
  facet normal -0.406737 -0.913545 0
    outer loop
      vertex -3 -5.19615 -4.5
      vertex -1.8541 -5.70634 -1.5
      vertex -3 -5.19615 -1.5
    endloop
  endfacet
  facet normal -0.406737 -0.913545 -0
    outer loop
      vertex -1.8541 -5.70634 -1.5
      vertex -3 -5.19615 -4.5
      vertex -1.8541 -5.70634 -4.5
    endloop
  endfacet
  facet normal -0.743145 -0.669131 0
    outer loop
      vertex -4.01478 -4.45887 -4.5
      vertex -4.8541 -3.52671 -1.5
      vertex -4.8541 -3.52671 -4.5
    endloop
  endfacet
  facet normal -0.743145 -0.669131 0
    outer loop
      vertex -4.8541 -3.52671 -1.5
      vertex -4.01478 -4.45887 -4.5
      vertex -4.01478 -4.45887 -1.5
    endloop
  endfacet
  facet normal -0.951057 -0.309017 0
    outer loop
      vertex -5.48127 -2.44042 -4.5
      vertex -5.86889 -1.24747 -1.5
      vertex -5.86889 -1.24747 -4.5
    endloop
  endfacet
  facet normal -0.951057 -0.309017 0
    outer loop
      vertex -5.86889 -1.24747 -1.5
      vertex -5.48127 -2.44042 -4.5
      vertex -5.48127 -2.44042 -1.5
    endloop
  endfacet
  facet normal -0.994522 -0.104528 0
    outer loop
      vertex -5.86889 -1.24747 -4.5
      vertex -5.88255 -1.11745 -1.5
      vertex -5.88255 -1.11745 -4.5
    endloop
  endfacet
  facet normal -0.994522 -0.104528 0
    outer loop
      vertex -5.88255 -1.11745 -1.5
      vertex -5.86889 -1.24747 -4.5
      vertex -5.86889 -1.24747 -1.5
    endloop
  endfacet
  facet normal -0.587786 -0.809017 0
    outer loop
      vertex -4.01478 -4.45887 -4.5
      vertex -3 -5.19615 -1.5
      vertex -4.01478 -4.45887 -1.5
    endloop
  endfacet
  facet normal -0.587786 -0.809017 -0
    outer loop
      vertex -3 -5.19615 -1.5
      vertex -4.01478 -4.45887 -4.5
      vertex -3 -5.19615 -4.5
    endloop
  endfacet
endsolid OpenSCAD_Model
