solid OpenSCAD_Model
  facet normal 0 0 -1
    outer loop
      vertex 4.98792 -6.25464 -6.5
      vertex 4.98792 6.25464 -6.5
      vertex 8 0 -6.5
    endloop
  endfacet
  facet normal 0 0 -1
    outer loop
      vertex -1.78017 -7.79942 -6.5
      vertex 4.98792 6.25464 -6.5
      vertex 4.98792 -6.25464 -6.5
    endloop
  endfacet
  facet normal 0 0 -1
    outer loop
      vertex -1.78017 -7.79942 -6.5
      vertex -1.78017 7.79942 -6.5
      vertex 4.98792 6.25464 -6.5
    endloop
  endfacet
  facet normal 0 0 -1
    outer loop
      vertex -7.20775 -3.47107 -6.5
      vertex -1.78017 7.79942 -6.5
      vertex -1.78017 -7.79942 -6.5
    endloop
  endfacet
  facet normal 0 0 -1
    outer loop
      vertex -1.78017 7.79942 -6.5
      vertex -7.20775 -3.47107 -6.5
      vertex -7.20775 3.47107 -6.5
    endloop
  endfacet
  facet normal -0 0 -1
    outer loop
      vertex 19 0 -2.5
      vertex 4.98792 -6.25464 -2.5
      vertex 8 0 -2.5
    endloop
  endfacet
  facet normal 0 0 -1
    outer loop
      vertex 0 -19 -2.5
      vertex 4.98792 -6.25464 -2.5
      vertex 19 0 -2.5
    endloop
  endfacet
  facet normal 0 0 -1
    outer loop
      vertex 0 -19 -2.5
      vertex -1.78017 -7.79942 -2.5
      vertex 4.98792 -6.25464 -2.5
    endloop
  endfacet
  facet normal 0 0 -1
    outer loop
      vertex 0 -19 -2.5
      vertex -7.20775 -3.47107 -2.5
      vertex -1.78017 -7.79942 -2.5
    endloop
  endfacet
  facet normal 0 0 -1
    outer loop
      vertex -7.20775 -3.47107 -2.5
      vertex -19 0 -2.5
      vertex -7.20775 3.47107 -2.5
    endloop
  endfacet
  facet normal 0 0 -1
    outer loop
      vertex -19 0 -2.5
      vertex -7.20775 -3.47107 -2.5
      vertex 0 -19 -2.5
    endloop
  endfacet
  facet normal 0 0 -1
    outer loop
      vertex 4.98792 6.25464 -2.5
      vertex 19 0 -2.5
      vertex 8 0 -2.5
    endloop
  endfacet
  facet normal 0 0 -1
    outer loop
      vertex 4.98792 6.25464 -2.5
      vertex 0 19 -2.5
      vertex 19 0 -2.5
    endloop
  endfacet
  facet normal 0 0 -1
    outer loop
      vertex -1.78017 7.79942 -2.5
      vertex 0 19 -2.5
      vertex 4.98792 6.25464 -2.5
    endloop
  endfacet
  facet normal 0 0 -1
    outer loop
      vertex -7.20775 3.47107 -2.5
      vertex 0 19 -2.5
      vertex -1.78017 7.79942 -2.5
    endloop
  endfacet
  facet normal 0 0 -1
    outer loop
      vertex 0 19 -2.5
      vertex -7.20775 3.47107 -2.5
      vertex -19 0 -2.5
    endloop
  endfacet
  facet normal 0.900968 -0.433885 0
    outer loop
      vertex 4.98792 -6.25464 -2.5
      vertex 8 0 -6.5
      vertex 8 0 -2.5
    endloop
  endfacet
  facet normal 0.900968 -0.433885 0
    outer loop
      vertex 8 0 -6.5
      vertex 4.98792 -6.25464 -2.5
      vertex 4.98792 -6.25464 -6.5
    endloop
  endfacet
  facet normal 0.900968 0.433885 0
    outer loop
      vertex 8 0 -2.5
      vertex 4.98792 6.25464 -6.5
      vertex 4.98792 6.25464 -2.5
    endloop
  endfacet
  facet normal 0.900968 0.433885 0
    outer loop
      vertex 4.98792 6.25464 -6.5
      vertex 8 0 -2.5
      vertex 8 0 -6.5
    endloop
  endfacet
  facet normal 0.222523 0.974927 -0
    outer loop
      vertex 4.98792 6.25464 -6.5
      vertex -1.78017 7.79942 -2.5
      vertex 4.98792 6.25464 -2.5
    endloop
  endfacet
  facet normal 0.222523 0.974927 0
    outer loop
      vertex -1.78017 7.79942 -2.5
      vertex 4.98792 6.25464 -6.5
      vertex -1.78017 7.79942 -6.5
    endloop
  endfacet
  facet normal -0.62349 0.781831 0
    outer loop
      vertex -1.78017 7.79942 -6.5
      vertex -7.20775 3.47107 -2.5
      vertex -1.78017 7.79942 -2.5
    endloop
  endfacet
  facet normal -0.62349 0.781831 0
    outer loop
      vertex -7.20775 3.47107 -2.5
      vertex -1.78017 7.79942 -6.5
      vertex -7.20775 3.47107 -6.5
    endloop
  endfacet
  facet normal -1 0 0
    outer loop
      vertex -7.20775 -3.47107 -6.5
      vertex -7.20775 3.47107 -2.5
      vertex -7.20775 3.47107 -6.5
    endloop
  endfacet
  facet normal -1 -0 0
    outer loop
      vertex -7.20775 3.47107 -2.5
      vertex -7.20775 -3.47107 -6.5
      vertex -7.20775 -3.47107 -2.5
    endloop
  endfacet
  facet normal -0.62349 -0.781831 0
    outer loop
      vertex -7.20775 -3.47107 -6.5
      vertex -1.78017 -7.79942 -2.5
      vertex -7.20775 -3.47107 -2.5
    endloop
  endfacet
  facet normal -0.62349 -0.781831 -0
    outer loop
      vertex -1.78017 -7.79942 -2.5
      vertex -7.20775 -3.47107 -6.5
      vertex -1.78017 -7.79942 -6.5
    endloop
  endfacet
  facet normal 0.222523 -0.974927 0
    outer loop
      vertex -1.78017 -7.79942 -6.5
      vertex 4.98792 -6.25464 -2.5
      vertex -1.78017 -7.79942 -2.5
    endloop
  endfacet
  facet normal 0.222523 -0.974927 0
    outer loop
      vertex 4.98792 -6.25464 -2.5
      vertex -1.78017 -7.79942 -6.5
      vertex 4.98792 -6.25464 -6.5
    endloop
  endfacet
  facet normal 0.20791 0.978148 -0
    outer loop
      vertex -0.418106 -3.97807 -3.5
      vertex -1.23605 -3.80421 6.5
      vertex -0.418106 -3.97807 6.5
    endloop
  endfacet
  facet normal 0.20791 0.978148 0
    outer loop
      vertex -1.23605 -3.80421 6.5
      vertex -0.418106 -3.97807 -3.5
      vertex -1.23605 -3.80421 -3.5
    endloop
  endfacet
  facet normal 0.406724 0.913551 -0
    outer loop
      vertex -1.23605 -3.80421 -3.5
      vertex -2 -3.4641 6.5
      vertex -1.23605 -3.80421 6.5
    endloop
  endfacet
  facet normal 0.406724 0.913551 0
    outer loop
      vertex -2 -3.4641 6.5
      vertex -1.23605 -3.80421 -3.5
      vertex -2 -3.4641 -3.5
    endloop
  endfacet
  facet normal 0.587797 0.809008 -0
    outer loop
      vertex -2 -3.4641 -3.5
      vertex -2.67651 -2.97256 6.5
      vertex -2 -3.4641 6.5
    endloop
  endfacet
  facet normal 0.587797 0.809008 0
    outer loop
      vertex -2.67651 -2.97256 6.5
      vertex -2 -3.4641 -3.5
      vertex -2.67651 -2.97256 -3.5
    endloop
  endfacet
  facet normal 0.743144 0.669132 0
    outer loop
      vertex -2.67651 -2.97256 6.5
      vertex -3.23605 -2.35114 -3.5
      vertex -3.23605 -2.35114 6.5
    endloop
  endfacet
  facet normal 0.743144 0.669132 0
    outer loop
      vertex -3.23605 -2.35114 -3.5
      vertex -2.67651 -2.97256 6.5
      vertex -2.67651 -2.97256 -3.5
    endloop
  endfacet
  facet normal 0.866022 0.500005 0
    outer loop
      vertex -3.23605 -2.35114 6.5
      vertex -3.65417 -1.62694 -3.5
      vertex -3.65417 -1.62694 6.5
    endloop
  endfacet
  facet normal 0.866022 0.500005 0
    outer loop
      vertex -3.65417 -1.62694 -3.5
      vertex -3.23605 -2.35114 6.5
      vertex -3.23605 -2.35114 -3.5
    endloop
  endfacet
  facet normal 0.951057 0.309015 0
    outer loop
      vertex -3.65417 -1.62694 6.5
      vertex -3.91258 -0.831635 -3.5
      vertex -3.91258 -0.831635 6.5
    endloop
  endfacet
  facet normal 0.951057 0.309015 0
    outer loop
      vertex -3.91258 -0.831635 -3.5
      vertex -3.65417 -1.62694 6.5
      vertex -3.65417 -1.62694 -3.5
    endloop
  endfacet
  facet normal 0.994521 0.104539 0
    outer loop
      vertex -3.91258 -0.831635 6.5
      vertex -4 0 -3.5
      vertex -4 0 6.5
    endloop
  endfacet
  facet normal 0.994521 0.104539 0
    outer loop
      vertex -4 0 -3.5
      vertex -3.91258 -0.831635 6.5
      vertex -3.91258 -0.831635 -3.5
    endloop
  endfacet
  facet normal 0.994521 -0.104539 0
    outer loop
      vertex -4 0 6.5
      vertex -3.91258 0.831635 -3.5
      vertex -3.91258 0.831635 6.5
    endloop
  endfacet
  facet normal 0.994521 -0.104539 0
    outer loop
      vertex -3.91258 0.831635 -3.5
      vertex -4 0 6.5
      vertex -4 0 -3.5
    endloop
  endfacet
  facet normal 0.951057 -0.309015 0
    outer loop
      vertex -3.91258 0.831635 6.5
      vertex -3.65417 1.62694 -3.5
      vertex -3.65417 1.62694 6.5
    endloop
  endfacet
  facet normal 0.951057 -0.309015 0
    outer loop
      vertex -3.65417 1.62694 -3.5
      vertex -3.91258 0.831635 6.5
      vertex -3.91258 0.831635 -3.5
    endloop
  endfacet
  facet normal 0.866022 -0.500005 0
    outer loop
      vertex -3.65417 1.62694 6.5
      vertex -3.23605 2.35114 -3.5
      vertex -3.23605 2.35114 6.5
    endloop
  endfacet
  facet normal 0.866022 -0.500005 0
    outer loop
      vertex -3.23605 2.35114 -3.5
      vertex -3.65417 1.62694 6.5
      vertex -3.65417 1.62694 -3.5
    endloop
  endfacet
  facet normal 0.743144 -0.669132 0
    outer loop
      vertex -3.23605 2.35114 6.5
      vertex -2.67651 2.97256 -3.5
      vertex -2.67651 2.97256 6.5
    endloop
  endfacet
  facet normal 0.743144 -0.669132 0
    outer loop
      vertex -2.67651 2.97256 -3.5
      vertex -3.23605 2.35114 6.5
      vertex -3.23605 2.35114 -3.5
    endloop
  endfacet
  facet normal 0.587789 -0.809015 0
    outer loop
      vertex -2.67651 2.97256 -3.5
      vertex -1.99998 3.4641 6.5
      vertex -2.67651 2.97256 6.5
    endloop
  endfacet
  facet normal 0.587789 -0.809015 0
    outer loop
      vertex -1.99998 3.4641 6.5
      vertex -2.67651 2.97256 -3.5
      vertex -1.99998 3.4641 -3.5
    endloop
  endfacet
  facet normal 0.406731 -0.913548 0
    outer loop
      vertex -1.99998 3.4641 -3.5
      vertex -1.23605 3.80421 6.5
      vertex -1.99998 3.4641 6.5
    endloop
  endfacet
  facet normal 0.406731 -0.913548 0
    outer loop
      vertex -1.23605 3.80421 6.5
      vertex -1.99998 3.4641 -3.5
      vertex -1.23605 3.80421 -3.5
    endloop
  endfacet
  facet normal 0.20791 -0.978148 0
    outer loop
      vertex -1.23605 3.80421 -3.5
      vertex -0.418106 3.97807 6.5
      vertex -1.23605 3.80421 6.5
    endloop
  endfacet
  facet normal 0.20791 -0.978148 0
    outer loop
      vertex -0.418106 3.97807 6.5
      vertex -1.23605 3.80421 -3.5
      vertex -0.418106 3.97807 -3.5
    endloop
  endfacet
  facet normal 0 -1 0
    outer loop
      vertex -0.418106 3.97807 -3.5
      vertex 0.418106 3.97807 6.5
      vertex -0.418106 3.97807 6.5
    endloop
  endfacet
  facet normal 0 -1 -0
    outer loop
      vertex 0.418106 3.97807 6.5
      vertex -0.418106 3.97807 -3.5
      vertex 0.418106 3.97807 -3.5
    endloop
  endfacet
  facet normal -0.20791 -0.978148 0
    outer loop
      vertex 0.418106 3.97807 -3.5
      vertex 1.23605 3.80421 6.5
      vertex 0.418106 3.97807 6.5
    endloop
  endfacet
  facet normal -0.20791 -0.978148 -0
    outer loop
      vertex 1.23605 3.80421 6.5
      vertex 0.418106 3.97807 -3.5
      vertex 1.23605 3.80421 -3.5
    endloop
  endfacet
  facet normal -0.406724 -0.913551 0
    outer loop
      vertex 1.23605 3.80421 -3.5
      vertex 2 3.4641 6.5
      vertex 1.23605 3.80421 6.5
    endloop
  endfacet
  facet normal -0.406724 -0.913551 -0
    outer loop
      vertex 2 3.4641 6.5
      vertex 1.23605 3.80421 -3.5
      vertex 2 3.4641 -3.5
    endloop
  endfacet
  facet normal -0.587797 -0.809008 0
    outer loop
      vertex 2 3.4641 -3.5
      vertex 2.67651 2.97256 6.5
      vertex 2 3.4641 6.5
    endloop
  endfacet
  facet normal -0.587797 -0.809008 -0
    outer loop
      vertex 2.67651 2.97256 6.5
      vertex 2 3.4641 -3.5
      vertex 2.67651 2.97256 -3.5
    endloop
  endfacet
  facet normal -0.743144 -0.669132 0
    outer loop
      vertex 3.23605 2.35114 -3.5
      vertex 2.67651 2.97256 6.5
      vertex 2.67651 2.97256 -3.5
    endloop
  endfacet
  facet normal -0.743144 -0.669132 0
    outer loop
      vertex 2.67651 2.97256 6.5
      vertex 3.23605 2.35114 -3.5
      vertex 3.23605 2.35114 6.5
    endloop
  endfacet
  facet normal -0.866022 -0.500005 0
    outer loop
      vertex 3.65417 1.62694 -3.5
      vertex 3.23605 2.35114 6.5
      vertex 3.23605 2.35114 -3.5
    endloop
  endfacet
  facet normal -0.866022 -0.500005 0
    outer loop
      vertex 3.23605 2.35114 6.5
      vertex 3.65417 1.62694 -3.5
      vertex 3.65417 1.62694 6.5
    endloop
  endfacet
  facet normal -0.951057 -0.309015 0
    outer loop
      vertex 3.91258 0.831635 -3.5
      vertex 3.65417 1.62694 6.5
      vertex 3.65417 1.62694 -3.5
    endloop
  endfacet
  facet normal -0.951057 -0.309015 0
    outer loop
      vertex 3.65417 1.62694 6.5
      vertex 3.91258 0.831635 -3.5
      vertex 3.91258 0.831635 6.5
    endloop
  endfacet
  facet normal -0.994521 -0.104539 0
    outer loop
      vertex 4 0 -3.5
      vertex 3.91258 0.831635 6.5
      vertex 3.91258 0.831635 -3.5
    endloop
  endfacet
  facet normal -0.994521 -0.104539 0
    outer loop
      vertex 3.91258 0.831635 6.5
      vertex 4 0 -3.5
      vertex 4 0 6.5
    endloop
  endfacet
  facet normal -0.994521 0.104539 0
    outer loop
      vertex 3.91258 -0.831635 -3.5
      vertex 4 0 6.5
      vertex 4 0 -3.5
    endloop
  endfacet
  facet normal -0.994521 0.104539 0
    outer loop
      vertex 4 0 6.5
      vertex 3.91258 -0.831635 -3.5
      vertex 3.91258 -0.831635 6.5
    endloop
  endfacet
  facet normal -0.951057 0.309015 0
    outer loop
      vertex 3.65417 -1.62694 -3.5
      vertex 3.91258 -0.831635 6.5
      vertex 3.91258 -0.831635 -3.5
    endloop
  endfacet
  facet normal -0.951057 0.309015 0
    outer loop
      vertex 3.91258 -0.831635 6.5
      vertex 3.65417 -1.62694 -3.5
      vertex 3.65417 -1.62694 6.5
    endloop
  endfacet
  facet normal -0.866022 0.500005 0
    outer loop
      vertex 3.23605 -2.35114 -3.5
      vertex 3.65417 -1.62694 6.5
      vertex 3.65417 -1.62694 -3.5
    endloop
  endfacet
  facet normal -0.866022 0.500005 0
    outer loop
      vertex 3.65417 -1.62694 6.5
      vertex 3.23605 -2.35114 -3.5
      vertex 3.23605 -2.35114 6.5
    endloop
  endfacet
  facet normal -0.743144 0.669132 0
    outer loop
      vertex 2.67651 -2.97256 -3.5
      vertex 3.23605 -2.35114 6.5
      vertex 3.23605 -2.35114 -3.5
    endloop
  endfacet
  facet normal -0.743144 0.669132 0
    outer loop
      vertex 3.23605 -2.35114 6.5
      vertex 2.67651 -2.97256 -3.5
      vertex 2.67651 -2.97256 6.5
    endloop
  endfacet
  facet normal -0.587797 0.809008 0
    outer loop
      vertex 2.67651 -2.97256 -3.5
      vertex 2 -3.4641 6.5
      vertex 2.67651 -2.97256 6.5
    endloop
  endfacet
  facet normal -0.587797 0.809008 0
    outer loop
      vertex 2 -3.4641 6.5
      vertex 2.67651 -2.97256 -3.5
      vertex 2 -3.4641 -3.5
    endloop
  endfacet
  facet normal -0.406724 0.913551 0
    outer loop
      vertex 2 -3.4641 -3.5
      vertex 1.23605 -3.80421 6.5
      vertex 2 -3.4641 6.5
    endloop
  endfacet
  facet normal -0.406724 0.913551 0
    outer loop
      vertex 1.23605 -3.80421 6.5
      vertex 2 -3.4641 -3.5
      vertex 1.23605 -3.80421 -3.5
    endloop
  endfacet
  facet normal -0.20791 0.978148 0
    outer loop
      vertex 1.23605 -3.80421 -3.5
      vertex 0.418106 -3.97807 6.5
      vertex 1.23605 -3.80421 6.5
    endloop
  endfacet
  facet normal -0.20791 0.978148 0
    outer loop
      vertex 0.418106 -3.97807 6.5
      vertex 1.23605 -3.80421 -3.5
      vertex 0.418106 -3.97807 -3.5
    endloop
  endfacet
  facet normal 0 1 -0
    outer loop
      vertex 0.418106 -3.97807 -3.5
      vertex -0.418106 -3.97807 6.5
      vertex 0.418106 -3.97807 6.5
    endloop
  endfacet
  facet normal 0 1 0
    outer loop
      vertex -0.418106 -3.97807 6.5
      vertex 0.418106 -3.97807 -3.5
      vertex -0.418106 -3.97807 -3.5
    endloop
  endfacet
  facet normal 0 0 -1
    outer loop
      vertex 18.2709 -8.13472 -0.5
      vertex 19 0 -0.5
      vertex 20 0 -0.5
    endloop
  endfacet
  facet normal 0 0 -1
    outer loop
      vertex 13.3826 -14.8629 -0.5
      vertex 19 0 -0.5
      vertex 18.2709 -8.13472 -0.5
    endloop
  endfacet
  facet normal 0 0 -1
    outer loop
      vertex 0 -19 -0.5
      vertex 13.3826 -14.8629 -0.5
      vertex 6.18033 -19.0211 -0.5
    endloop
  endfacet
  facet normal -0 0 -1
    outer loop
      vertex 13.3826 -14.8629 -0.5
      vertex 0 -19 -0.5
      vertex 19 0 -0.5
    endloop
  endfacet
  facet normal 0 0 -1
    outer loop
      vertex -2.09056 -19.8904 -0.5
      vertex 0 -19 -0.5
      vertex 6.18033 -19.0211 -0.5
    endloop
  endfacet
  facet normal 0 0 -1
    outer loop
      vertex -10 -17.3205 -0.5
      vertex 0 -19 -0.5
      vertex -2.09056 -19.8904 -0.5
    endloop
  endfacet
  facet normal 0 0 -1
    outer loop
      vertex -16.1803 -11.7557 -0.5
      vertex 0 -19 -0.5
      vertex -10 -17.3205 -0.5
    endloop
  endfacet
  facet normal 0 0 -1
    outer loop
      vertex -16.1803 -11.7557 -0.5
      vertex -19 0 -0.5
      vertex 0 -19 -0.5
    endloop
  endfacet
  facet normal 0 -0 -1
    outer loop
      vertex -19 0 -0.5
      vertex -16.1803 -11.7557 -0.5
      vertex -19.5629 -4.15823 -0.5
    endloop
  endfacet
  facet normal 0 0 -1
    outer loop
      vertex 19 0 -0.5
      vertex 18.2709 8.13472 -0.5
      vertex 20 0 -0.5
    endloop
  endfacet
  facet normal 0 0 -1
    outer loop
      vertex 19 0 -0.5
      vertex 13.3826 14.8629 -0.5
      vertex 18.2709 8.13472 -0.5
    endloop
  endfacet
  facet normal 0 0 -1
    outer loop
      vertex 0 19 -0.5
      vertex 13.3826 14.8629 -0.5
      vertex 19 0 -0.5
    endloop
  endfacet
  facet normal 0 0 -1
    outer loop
      vertex 13.3826 14.8629 -0.5
      vertex 0 19 -0.5
      vertex 6.18033 19.0211 -0.5
    endloop
  endfacet
  facet normal 0 0 -1
    outer loop
      vertex 0 19 -0.5
      vertex -2.09056 19.8904 -0.5
      vertex 6.18033 19.0211 -0.5
    endloop
  endfacet
  facet normal -0 0 -1
    outer loop
      vertex 0 19 -0.5
      vertex -9.99998 17.3205 -0.5
      vertex -2.09056 19.8904 -0.5
    endloop
  endfacet
  facet normal 0 0 -1
    outer loop
      vertex 0 19 -0.5
      vertex -16.1803 11.7557 -0.5
      vertex -9.99998 17.3205 -0.5
    endloop
  endfacet
  facet normal 0 0 -1
    outer loop
      vertex -19 0 -0.5
      vertex -16.1803 11.7557 -0.5
      vertex 0 19 -0.5
    endloop
  endfacet
  facet normal 0 0 -1
    outer loop
      vertex -19 0 -0.5
      vertex -19.5629 4.15823 -0.5
      vertex -16.1803 11.7557 -0.5
    endloop
  endfacet
  facet normal 0 0 -1
    outer loop
      vertex -19.5629 4.15823 -0.5
      vertex -19 0 -0.5
      vertex -19.5629 -4.15823 -0.5
    endloop
  endfacet
  facet normal 0.707107 0.707107 0
    outer loop
      vertex 19 0 -0.5
      vertex 0 19 -2.5
      vertex 0 19 -0.5
    endloop
  endfacet
  facet normal 0.707107 0.707107 0
    outer loop
      vertex 0 19 -2.5
      vertex 19 0 -0.5
      vertex 19 0 -2.5
    endloop
  endfacet
  facet normal -0.707107 0.707107 0
    outer loop
      vertex -19 0 -2.5
      vertex 0 19 -0.5
      vertex 0 19 -2.5
    endloop
  endfacet
  facet normal -0.707107 0.707107 0
    outer loop
      vertex 0 19 -0.5
      vertex -19 0 -2.5
      vertex -19 0 -0.5
    endloop
  endfacet
  facet normal -0.707107 -0.707107 0
    outer loop
      vertex 0 -19 -2.5
      vertex -19 0 -0.5
      vertex -19 0 -2.5
    endloop
  endfacet
  facet normal -0.707107 -0.707107 0
    outer loop
      vertex -19 0 -0.5
      vertex 0 -19 -2.5
      vertex 0 -19 -0.5
    endloop
  endfacet
  facet normal 0.707107 -0.707107 0
    outer loop
      vertex 0 -19 -0.5
      vertex 19 0 -2.5
      vertex 19 0 -0.5
    endloop
  endfacet
  facet normal 0.707107 -0.707107 0
    outer loop
      vertex 19 0 -2.5
      vertex 0 -19 -0.5
      vertex 0 -19 -2.5
    endloop
  endfacet
  facet normal 0 0 1
    outer loop
      vertex 8 0 1.5
      vertex 20 0 1.5
      vertex 18.2709 8.13472 1.5
    endloop
  endfacet
  facet normal 0 0 1
    outer loop
      vertex 5.65685 5.65685 1.5
      vertex 18.2709 8.13472 1.5
      vertex 13.3826 14.8629 1.5
    endloop
  endfacet
  facet normal 0 0 1
    outer loop
      vertex 20 0 1.5
      vertex 8 0 1.5
      vertex 18.2709 -8.13472 1.5
    endloop
  endfacet
  facet normal -0 0 1
    outer loop
      vertex 5.65685 -5.65685 1.5
      vertex 18.2709 -8.13472 1.5
      vertex 8 0 1.5
    endloop
  endfacet
  facet normal 0 0 1
    outer loop
      vertex 5.65685 5.65685 1.5
      vertex 13.3826 14.8629 1.5
      vertex 6.18033 19.0211 1.5
    endloop
  endfacet
  facet normal 0 0 1
    outer loop
      vertex 18.2709 8.13472 1.5
      vertex 5.65685 5.65685 1.5
      vertex 8 0 1.5
    endloop
  endfacet
  facet normal 0 0 1
    outer loop
      vertex 6.18033 19.0211 1.5
      vertex 0 8 1.5
      vertex 5.65685 5.65685 1.5
    endloop
  endfacet
  facet normal 0 0 1
    outer loop
      vertex -2.09056 19.8904 1.5
      vertex 0 8 1.5
      vertex 6.18033 19.0211 1.5
    endloop
  endfacet
  facet normal -0 0 1
    outer loop
      vertex -9.99998 17.3205 1.5
      vertex 0 8 1.5
      vertex -2.09056 19.8904 1.5
    endloop
  endfacet
  facet normal 0 0 1
    outer loop
      vertex 0 8 1.5
      vertex -9.99998 17.3205 1.5
      vertex -5.65685 5.65685 1.5
    endloop
  endfacet
  facet normal -0 0 1
    outer loop
      vertex -16.1803 11.7557 1.5
      vertex -5.65685 5.65685 1.5
      vertex -9.99998 17.3205 1.5
    endloop
  endfacet
  facet normal 0 0 1
    outer loop
      vertex 18.2709 -8.13472 1.5
      vertex 5.65685 -5.65685 1.5
      vertex 13.3826 -14.8629 1.5
    endloop
  endfacet
  facet normal 0 0 1
    outer loop
      vertex 13.3826 -14.8629 1.5
      vertex 5.65685 -5.65685 1.5
      vertex 6.18033 -19.0211 1.5
    endloop
  endfacet
  facet normal -0 0 1
    outer loop
      vertex 0 -8 1.5
      vertex 6.18033 -19.0211 1.5
      vertex 5.65685 -5.65685 1.5
    endloop
  endfacet
  facet normal 0 0 1
    outer loop
      vertex 0 -8 1.5
      vertex -2.09056 -19.8904 1.5
      vertex 6.18033 -19.0211 1.5
    endloop
  endfacet
  facet normal 0 0 1
    outer loop
      vertex -10 -17.3205 1.5
      vertex 0 -8 1.5
      vertex -5.65685 -5.65685 1.5
    endloop
  endfacet
  facet normal -0 0 1
    outer loop
      vertex -19.5629 -4.15823 1.5
      vertex -5.65685 -5.65685 1.5
      vertex -8 0 1.5
    endloop
  endfacet
  facet normal 0 0 1
    outer loop
      vertex 0 -8 1.5
      vertex -10 -17.3205 1.5
      vertex -2.09056 -19.8904 1.5
    endloop
  endfacet
  facet normal 0 0 1
    outer loop
      vertex -19.5629 4.15823 1.5
      vertex -5.65685 5.65685 1.5
      vertex -16.1803 11.7557 1.5
    endloop
  endfacet
  facet normal 0 0 1
    outer loop
      vertex -5.65685 5.65685 1.5
      vertex -19.5629 4.15823 1.5
      vertex -8 0 1.5
    endloop
  endfacet
  facet normal 0 0 1
    outer loop
      vertex -5.65685 -5.65685 1.5
      vertex -16.1803 -11.7557 1.5
      vertex -10 -17.3205 1.5
    endloop
  endfacet
  facet normal 0 0 1
    outer loop
      vertex -19.5629 -4.15823 1.5
      vertex -8 0 1.5
      vertex -19.5629 4.15823 1.5
    endloop
  endfacet
  facet normal 0 0 1
    outer loop
      vertex -5.65685 -5.65685 1.5
      vertex -19.5629 -4.15823 1.5
      vertex -16.1803 -11.7557 1.5
    endloop
  endfacet
  facet normal 0.5 -0.866025 0
    outer loop
      vertex 6.18033 -19.0211 -0.5
      vertex 13.3826 -14.8629 1.5
      vertex 6.18033 -19.0211 1.5
    endloop
  endfacet
  facet normal 0.5 -0.866025 0
    outer loop
      vertex 13.3826 -14.8629 1.5
      vertex 6.18033 -19.0211 -0.5
      vertex 13.3826 -14.8629 -0.5
    endloop
  endfacet
  facet normal 0.809017 -0.587786 0
    outer loop
      vertex 13.3826 -14.8629 1.5
      vertex 18.2709 -8.13472 -0.5
      vertex 18.2709 -8.13472 1.5
    endloop
  endfacet
  facet normal 0.809017 -0.587786 0
    outer loop
      vertex 18.2709 -8.13472 -0.5
      vertex 13.3826 -14.8629 1.5
      vertex 13.3826 -14.8629 -0.5
    endloop
  endfacet
  facet normal 0.978147 -0.207913 0
    outer loop
      vertex 18.2709 -8.13472 1.5
      vertex 20 0 -0.5
      vertex 20 0 1.5
    endloop
  endfacet
  facet normal 0.978147 -0.207913 0
    outer loop
      vertex 20 0 -0.5
      vertex 18.2709 -8.13472 1.5
      vertex 18.2709 -8.13472 -0.5
    endloop
  endfacet
  facet normal 0.978147 0.207913 0
    outer loop
      vertex 20 0 1.5
      vertex 18.2709 8.13472 -0.5
      vertex 18.2709 8.13472 1.5
    endloop
  endfacet
  facet normal 0.978147 0.207913 0
    outer loop
      vertex 18.2709 8.13472 -0.5
      vertex 20 0 1.5
      vertex 20 0 -0.5
    endloop
  endfacet
  facet normal 0.809017 0.587786 0
    outer loop
      vertex 18.2709 8.13472 1.5
      vertex 13.3826 14.8629 -0.5
      vertex 13.3826 14.8629 1.5
    endloop
  endfacet
  facet normal 0.809017 0.587786 0
    outer loop
      vertex 13.3826 14.8629 -0.5
      vertex 18.2709 8.13472 1.5
      vertex 18.2709 8.13472 -0.5
    endloop
  endfacet
  facet normal 0.5 0.866025 -0
    outer loop
      vertex 13.3826 14.8629 -0.5
      vertex 6.18033 19.0211 1.5
      vertex 13.3826 14.8629 1.5
    endloop
  endfacet
  facet normal 0.5 0.866025 0
    outer loop
      vertex 6.18033 19.0211 1.5
      vertex 13.3826 14.8629 -0.5
      vertex 6.18033 19.0211 -0.5
    endloop
  endfacet
  facet normal 0.104529 0.994522 -0
    outer loop
      vertex 6.18033 19.0211 -0.5
      vertex -2.09056 19.8904 1.5
      vertex 6.18033 19.0211 1.5
    endloop
  endfacet
  facet normal 0.104529 0.994522 0
    outer loop
      vertex -2.09056 19.8904 1.5
      vertex 6.18033 19.0211 -0.5
      vertex -2.09056 19.8904 -0.5
    endloop
  endfacet
  facet normal -0.309017 0.951056 0
    outer loop
      vertex -2.09056 19.8904 -0.5
      vertex -9.99998 17.3205 1.5
      vertex -2.09056 19.8904 1.5
    endloop
  endfacet
  facet normal -0.309017 0.951056 0
    outer loop
      vertex -9.99998 17.3205 1.5
      vertex -2.09056 19.8904 -0.5
      vertex -9.99998 17.3205 -0.5
    endloop
  endfacet
  facet normal -0.66913 0.743145 0
    outer loop
      vertex -9.99998 17.3205 -0.5
      vertex -16.1803 11.7557 1.5
      vertex -9.99998 17.3205 1.5
    endloop
  endfacet
  facet normal -0.66913 0.743145 0
    outer loop
      vertex -16.1803 11.7557 1.5
      vertex -9.99998 17.3205 -0.5
      vertex -16.1803 11.7557 -0.5
    endloop
  endfacet
  facet normal -0.913545 0.406737 0
    outer loop
      vertex -19.5629 4.15823 -0.5
      vertex -16.1803 11.7557 1.5
      vertex -16.1803 11.7557 -0.5
    endloop
  endfacet
  facet normal -0.913545 0.406737 0
    outer loop
      vertex -16.1803 11.7557 1.5
      vertex -19.5629 4.15823 -0.5
      vertex -19.5629 4.15823 1.5
    endloop
  endfacet
  facet normal -1 0 0
    outer loop
      vertex -19.5629 -4.15823 -0.5
      vertex -19.5629 4.15823 1.5
      vertex -19.5629 4.15823 -0.5
    endloop
  endfacet
  facet normal -1 -0 0
    outer loop
      vertex -19.5629 4.15823 1.5
      vertex -19.5629 -4.15823 -0.5
      vertex -19.5629 -4.15823 1.5
    endloop
  endfacet
  facet normal -0.913545 -0.406737 0
    outer loop
      vertex -16.1803 -11.7557 -0.5
      vertex -19.5629 -4.15823 1.5
      vertex -19.5629 -4.15823 -0.5
    endloop
  endfacet
  facet normal -0.913545 -0.406737 0
    outer loop
      vertex -19.5629 -4.15823 1.5
      vertex -16.1803 -11.7557 -0.5
      vertex -16.1803 -11.7557 1.5
    endloop
  endfacet
  facet normal -0.669131 -0.743144 0
    outer loop
      vertex -16.1803 -11.7557 -0.5
      vertex -10 -17.3205 1.5
      vertex -16.1803 -11.7557 1.5
    endloop
  endfacet
  facet normal -0.669131 -0.743144 -0
    outer loop
      vertex -10 -17.3205 1.5
      vertex -16.1803 -11.7557 -0.5
      vertex -10 -17.3205 -0.5
    endloop
  endfacet
  facet normal -0.309017 -0.951057 0
    outer loop
      vertex -10 -17.3205 -0.5
      vertex -2.09056 -19.8904 1.5
      vertex -10 -17.3205 1.5
    endloop
  endfacet
  facet normal -0.309017 -0.951057 -0
    outer loop
      vertex -2.09056 -19.8904 1.5
      vertex -10 -17.3205 -0.5
      vertex -2.09056 -19.8904 -0.5
    endloop
  endfacet
  facet normal 0.104529 -0.994522 0
    outer loop
      vertex -2.09056 -19.8904 -0.5
      vertex 6.18033 -19.0211 1.5
      vertex -2.09056 -19.8904 1.5
    endloop
  endfacet
  facet normal 0.104529 -0.994522 0
    outer loop
      vertex 6.18033 -19.0211 1.5
      vertex -2.09056 -19.8904 -0.5
      vertex 6.18033 -19.0211 -0.5
    endloop
  endfacet
  facet normal -0 0 1
    outer loop
      vertex 3.65417 1.62694 6.5
      vertex 8 0 6.5
      vertex 5.65685 5.65685 6.5
    endloop
  endfacet
  facet normal 0 0 1
    outer loop
      vertex 3.91258 -0.831635 6.5
      vertex 8 0 6.5
      vertex 4 0 6.5
    endloop
  endfacet
  facet normal 0 0 1
    outer loop
      vertex 8 0 6.5
      vertex 3.91258 0.831635 6.5
      vertex 4 0 6.5
    endloop
  endfacet
  facet normal 0 0 1
    outer loop
      vertex 8 0 6.5
      vertex 3.65417 1.62694 6.5
      vertex 3.91258 0.831635 6.5
    endloop
  endfacet
  facet normal 0 0 1
    outer loop
      vertex 5.65685 5.65685 6.5
      vertex 3.23605 2.35114 6.5
      vertex 3.65417 1.62694 6.5
    endloop
  endfacet
  facet normal 0 0 1
    outer loop
      vertex 5.65685 5.65685 6.5
      vertex 2.67651 2.97256 6.5
      vertex 3.23605 2.35114 6.5
    endloop
  endfacet
  facet normal 0 0 1
    outer loop
      vertex 5.65685 5.65685 6.5
      vertex 2 3.4641 6.5
      vertex 2.67651 2.97256 6.5
    endloop
  endfacet
  facet normal 0 0 1
    outer loop
      vertex 5.65685 5.65685 6.5
      vertex 1.23605 3.80421 6.5
      vertex 2 3.4641 6.5
    endloop
  endfacet
  facet normal 0 0 1
    outer loop
      vertex 0 8 6.5
      vertex 1.23605 3.80421 6.5
      vertex 5.65685 5.65685 6.5
    endloop
  endfacet
  facet normal 0 0 1
    outer loop
      vertex 1.23605 3.80421 6.5
      vertex 0 8 6.5
      vertex 0.418106 3.97807 6.5
    endloop
  endfacet
  facet normal 0 0 1
    outer loop
      vertex 0 8 6.5
      vertex -0.418106 3.97807 6.5
      vertex 0.418106 3.97807 6.5
    endloop
  endfacet
  facet normal 0 0 1
    outer loop
      vertex 0 8 6.5
      vertex -1.23605 3.80421 6.5
      vertex -0.418106 3.97807 6.5
    endloop
  endfacet
  facet normal -0 0 1
    outer loop
      vertex -5.65685 5.65685 6.5
      vertex -1.23605 3.80421 6.5
      vertex 0 8 6.5
    endloop
  endfacet
  facet normal 0 0 1
    outer loop
      vertex -1.23605 3.80421 6.5
      vertex -5.65685 5.65685 6.5
      vertex -1.99998 3.4641 6.5
    endloop
  endfacet
  facet normal 0 0 1
    outer loop
      vertex -1.99998 3.4641 6.5
      vertex -5.65685 5.65685 6.5
      vertex -2.67651 2.97256 6.5
    endloop
  endfacet
  facet normal 0 0 1
    outer loop
      vertex -2.67651 2.97256 6.5
      vertex -5.65685 5.65685 6.5
      vertex -3.23605 2.35114 6.5
    endloop
  endfacet
  facet normal 0 0 1
    outer loop
      vertex -3.65417 1.62694 6.5
      vertex -8 0 6.5
      vertex -3.91258 0.831635 6.5
    endloop
  endfacet
  facet normal 0 0 1
    outer loop
      vertex -8 0 6.5
      vertex -3.65417 1.62694 6.5
      vertex -5.65685 5.65685 6.5
    endloop
  endfacet
  facet normal 0 0 1
    outer loop
      vertex -3.23605 2.35114 6.5
      vertex -5.65685 5.65685 6.5
      vertex -3.65417 1.62694 6.5
    endloop
  endfacet
  facet normal 0 0 1
    outer loop
      vertex 3.65417 -1.62694 6.5
      vertex 8 0 6.5
      vertex 3.91258 -0.831635 6.5
    endloop
  endfacet
  facet normal 0 0 1
    outer loop
      vertex 8 0 6.5
      vertex 3.65417 -1.62694 6.5
      vertex 5.65685 -5.65685 6.5
    endloop
  endfacet
  facet normal -0 0 1
    outer loop
      vertex 3.23605 -2.35114 6.5
      vertex 5.65685 -5.65685 6.5
      vertex 3.65417 -1.62694 6.5
    endloop
  endfacet
  facet normal -0 0 1
    outer loop
      vertex 2.67651 -2.97256 6.5
      vertex 5.65685 -5.65685 6.5
      vertex 3.23605 -2.35114 6.5
    endloop
  endfacet
  facet normal -0 0 1
    outer loop
      vertex 2 -3.4641 6.5
      vertex 5.65685 -5.65685 6.5
      vertex 2.67651 -2.97256 6.5
    endloop
  endfacet
  facet normal -0 0 1
    outer loop
      vertex 1.23605 -3.80421 6.5
      vertex 5.65685 -5.65685 6.5
      vertex 2 -3.4641 6.5
    endloop
  endfacet
  facet normal 0 0 1
    outer loop
      vertex 0 -8 6.5
      vertex 1.23605 -3.80421 6.5
      vertex 0.418106 -3.97807 6.5
    endloop
  endfacet
  facet normal 0 0 1
    outer loop
      vertex 1.23605 -3.80421 6.5
      vertex 0 -8 6.5
      vertex 5.65685 -5.65685 6.5
    endloop
  endfacet
  facet normal -0 0 1
    outer loop
      vertex -0.418106 -3.97807 6.5
      vertex 0 -8 6.5
      vertex 0.418106 -3.97807 6.5
    endloop
  endfacet
  facet normal 0 0 1
    outer loop
      vertex -1.23605 -3.80421 6.5
      vertex 0 -8 6.5
      vertex -0.418106 -3.97807 6.5
    endloop
  endfacet
  facet normal 0 0 1
    outer loop
      vertex -5.65685 -5.65685 6.5
      vertex -1.23605 -3.80421 6.5
      vertex -2 -3.4641 6.5
    endloop
  endfacet
  facet normal 0 0 1
    outer loop
      vertex -5.65685 -5.65685 6.5
      vertex -2 -3.4641 6.5
      vertex -2.67651 -2.97256 6.5
    endloop
  endfacet
  facet normal 0 0 1
    outer loop
      vertex -5.65685 -5.65685 6.5
      vertex -2.67651 -2.97256 6.5
      vertex -3.23605 -2.35114 6.5
    endloop
  endfacet
  facet normal 0 0 1
    outer loop
      vertex -5.65685 -5.65685 6.5
      vertex -3.23605 -2.35114 6.5
      vertex -3.65417 -1.62694 6.5
    endloop
  endfacet
  facet normal 0 0 1
    outer loop
      vertex -3.91258 0.831635 6.5
      vertex -8 0 6.5
      vertex -4 0 6.5
    endloop
  endfacet
  facet normal 0 0 1
    outer loop
      vertex -1.23605 -3.80421 6.5
      vertex -5.65685 -5.65685 6.5
      vertex 0 -8 6.5
    endloop
  endfacet
  facet normal 0 0 1
    outer loop
      vertex -8 0 6.5
      vertex -3.65417 -1.62694 6.5
      vertex -3.91258 -0.831635 6.5
    endloop
  endfacet
  facet normal 0 0 1
    outer loop
      vertex -4 0 6.5
      vertex -8 0 6.5
      vertex -3.91258 -0.831635 6.5
    endloop
  endfacet
  facet normal 0 0 1
    outer loop
      vertex -3.65417 -1.62694 6.5
      vertex -8 0 6.5
      vertex -5.65685 -5.65685 6.5
    endloop
  endfacet
  facet normal 0.923879 -0.382685 0
    outer loop
      vertex 5.65685 -5.65685 6.5
      vertex 8 0 1.5
      vertex 8 0 6.5
    endloop
  endfacet
  facet normal 0.923879 -0.382685 0
    outer loop
      vertex 8 0 1.5
      vertex 5.65685 -5.65685 6.5
      vertex 5.65685 -5.65685 1.5
    endloop
  endfacet
  facet normal 0.923879 0.382685 0
    outer loop
      vertex 8 0 6.5
      vertex 5.65685 5.65685 1.5
      vertex 5.65685 5.65685 6.5
    endloop
  endfacet
  facet normal 0.923879 0.382685 0
    outer loop
      vertex 5.65685 5.65685 1.5
      vertex 8 0 6.5
      vertex 8 0 1.5
    endloop
  endfacet
  facet normal 0.382685 0.923879 -0
    outer loop
      vertex 5.65685 5.65685 1.5
      vertex 0 8 6.5
      vertex 5.65685 5.65685 6.5
    endloop
  endfacet
  facet normal 0.382685 0.923879 0
    outer loop
      vertex 0 8 6.5
      vertex 5.65685 5.65685 1.5
      vertex 0 8 1.5
    endloop
  endfacet
  facet normal -0.382685 0.923879 0
    outer loop
      vertex 0 8 1.5
      vertex -5.65685 5.65685 6.5
      vertex 0 8 6.5
    endloop
  endfacet
  facet normal -0.382685 0.923879 0
    outer loop
      vertex -5.65685 5.65685 6.5
      vertex 0 8 1.5
      vertex -5.65685 5.65685 1.5
    endloop
  endfacet
  facet normal -0.923879 0.382685 0
    outer loop
      vertex -8 0 1.5
      vertex -5.65685 5.65685 6.5
      vertex -5.65685 5.65685 1.5
    endloop
  endfacet
  facet normal -0.923879 0.382685 0
    outer loop
      vertex -5.65685 5.65685 6.5
      vertex -8 0 1.5
      vertex -8 0 6.5
    endloop
  endfacet
  facet normal -0.923879 -0.382685 0
    outer loop
      vertex -5.65685 -5.65685 1.5
      vertex -8 0 6.5
      vertex -8 0 1.5
    endloop
  endfacet
  facet normal -0.923879 -0.382685 0
    outer loop
      vertex -8 0 6.5
      vertex -5.65685 -5.65685 1.5
      vertex -5.65685 -5.65685 6.5
    endloop
  endfacet
  facet normal -0.382685 -0.923879 0
    outer loop
      vertex -5.65685 -5.65685 1.5
      vertex 0 -8 6.5
      vertex -5.65685 -5.65685 6.5
    endloop
  endfacet
  facet normal -0.382685 -0.923879 -0
    outer loop
      vertex 0 -8 6.5
      vertex -5.65685 -5.65685 1.5
      vertex 0 -8 1.5
    endloop
  endfacet
  facet normal 0.382685 -0.923879 0
    outer loop
      vertex 0 -8 1.5
      vertex 5.65685 -5.65685 6.5
      vertex 0 -8 6.5
    endloop
  endfacet
  facet normal 0.382685 -0.923879 0
    outer loop
      vertex 5.65685 -5.65685 6.5
      vertex 0 -8 1.5
      vertex 5.65685 -5.65685 1.5
    endloop
  endfacet
  facet normal 0 0 1
    outer loop
      vertex 3.91258 0.831635 -3.5
      vertex 3.91258 -0.831635 -3.5
      vertex 4 0 -3.5
    endloop
  endfacet
  facet normal 0 0 1
    outer loop
      vertex 3.65417 1.62694 -3.5
      vertex 3.91258 -0.831635 -3.5
      vertex 3.91258 0.831635 -3.5
    endloop
  endfacet
  facet normal 0 0 1
    outer loop
      vertex 3.65417 1.62694 -3.5
      vertex 3.65417 -1.62694 -3.5
      vertex 3.91258 -0.831635 -3.5
    endloop
  endfacet
  facet normal 0 0 1
    outer loop
      vertex 3.23605 2.35114 -3.5
      vertex 3.65417 -1.62694 -3.5
      vertex 3.65417 1.62694 -3.5
    endloop
  endfacet
  facet normal 0 0 1
    outer loop
      vertex 3.23605 2.35114 -3.5
      vertex 3.23605 -2.35114 -3.5
      vertex 3.65417 -1.62694 -3.5
    endloop
  endfacet
  facet normal 0 0 1
    outer loop
      vertex 2.67651 2.97256 -3.5
      vertex 3.23605 -2.35114 -3.5
      vertex 3.23605 2.35114 -3.5
    endloop
  endfacet
  facet normal 0 0 1
    outer loop
      vertex 2.67651 2.97256 -3.5
      vertex 2.67651 -2.97256 -3.5
      vertex 3.23605 -2.35114 -3.5
    endloop
  endfacet
  facet normal 0 0 1
    outer loop
      vertex 2 3.4641 -3.5
      vertex 2.67651 -2.97256 -3.5
      vertex 2.67651 2.97256 -3.5
    endloop
  endfacet
  facet normal 0 0 1
    outer loop
      vertex 2 3.4641 -3.5
      vertex 2 -3.4641 -3.5
      vertex 2.67651 -2.97256 -3.5
    endloop
  endfacet
  facet normal 0 0 1
    outer loop
      vertex 1.23605 3.80421 -3.5
      vertex 2 -3.4641 -3.5
      vertex 2 3.4641 -3.5
    endloop
  endfacet
  facet normal 0 0 1
    outer loop
      vertex 1.23605 3.80421 -3.5
      vertex 1.23605 -3.80421 -3.5
      vertex 2 -3.4641 -3.5
    endloop
  endfacet
  facet normal 0 0 1
    outer loop
      vertex 0.418106 3.97807 -3.5
      vertex 1.23605 -3.80421 -3.5
      vertex 1.23605 3.80421 -3.5
    endloop
  endfacet
  facet normal 0 0 1
    outer loop
      vertex 0.418106 3.97807 -3.5
      vertex 0.418106 -3.97807 -3.5
      vertex 1.23605 -3.80421 -3.5
    endloop
  endfacet
  facet normal -0 0 1
    outer loop
      vertex -0.418106 3.97807 -3.5
      vertex 0.418106 -3.97807 -3.5
      vertex 0.418106 3.97807 -3.5
    endloop
  endfacet
  facet normal 0 0 1
    outer loop
      vertex -0.418106 3.97807 -3.5
      vertex -0.418106 -3.97807 -3.5
      vertex 0.418106 -3.97807 -3.5
    endloop
  endfacet
  facet normal -0 0 1
    outer loop
      vertex -1.23605 3.80421 -3.5
      vertex -0.418106 -3.97807 -3.5
      vertex -0.418106 3.97807 -3.5
    endloop
  endfacet
  facet normal 0 0 1
    outer loop
      vertex -1.23605 3.80421 -3.5
      vertex -1.23605 -3.80421 -3.5
      vertex -0.418106 -3.97807 -3.5
    endloop
  endfacet
  facet normal -0 0 1
    outer loop
      vertex -1.99998 3.4641 -3.5
      vertex -1.23605 -3.80421 -3.5
      vertex -1.23605 3.80421 -3.5
    endloop
  endfacet
  facet normal 0 0 1
    outer loop
      vertex -1.99998 3.4641 -3.5
      vertex -2 -3.4641 -3.5
      vertex -1.23605 -3.80421 -3.5
    endloop
  endfacet
  facet normal -0 0 1
    outer loop
      vertex -2.67651 2.97256 -3.5
      vertex -2 -3.4641 -3.5
      vertex -1.99998 3.4641 -3.5
    endloop
  endfacet
  facet normal 0 0 1
    outer loop
      vertex -2.67651 2.97256 -3.5
      vertex -2.67651 -2.97256 -3.5
      vertex -2 -3.4641 -3.5
    endloop
  endfacet
  facet normal -0 0 1
    outer loop
      vertex -3.23605 2.35114 -3.5
      vertex -2.67651 -2.97256 -3.5
      vertex -2.67651 2.97256 -3.5
    endloop
  endfacet
  facet normal 0 0 1
    outer loop
      vertex -3.23605 2.35114 -3.5
      vertex -3.23605 -2.35114 -3.5
      vertex -2.67651 -2.97256 -3.5
    endloop
  endfacet
  facet normal -0 0 1
    outer loop
      vertex -3.65417 1.62694 -3.5
      vertex -3.23605 -2.35114 -3.5
      vertex -3.23605 2.35114 -3.5
    endloop
  endfacet
  facet normal 0 0 1
    outer loop
      vertex -3.65417 1.62694 -3.5
      vertex -3.65417 -1.62694 -3.5
      vertex -3.23605 -2.35114 -3.5
    endloop
  endfacet
  facet normal -0 0 1
    outer loop
      vertex -3.91258 0.831635 -3.5
      vertex -3.65417 -1.62694 -3.5
      vertex -3.65417 1.62694 -3.5
    endloop
  endfacet
  facet normal 0 0 1
    outer loop
      vertex -3.91258 0.831635 -3.5
      vertex -3.91258 -0.831635 -3.5
      vertex -3.65417 -1.62694 -3.5
    endloop
  endfacet
  facet normal 0 -0 1
    outer loop
      vertex -3.91258 -0.831635 -3.5
      vertex -3.91258 0.831635 -3.5
      vertex -4 0 -3.5
    endloop
  endfacet
endsolid OpenSCAD_Model
