solid OpenSCAD_Model
  facet normal 0 0 -1
    outer loop
      vertex -6 0 -4.5
      vertex -5.66312 -1.88076 -4.5
      vertex -5.86889 -1.24747 -4.5
    endloop
  endfacet
  facet normal 0 0 -1
    outer loop
      vertex -5.66312 -1.88076 -4.5
      vertex -6 0 -4.5
      vertex -5.66312 1.88076 -4.5
    endloop
  endfacet
  facet normal 0 0 -1
    outer loop
      vertex -5.66312 1.88076 -4.5
      vertex -6 0 -4.5
      vertex -5.86889 1.24747 -4.5
    endloop
  endfacet
  facet normal 0 0 -1
    outer loop
      vertex 5.68704 -1.80713 -4.5
      vertex 5.68704 1.80713 -4.5
      vertex 7 0 -4.5
    endloop
  endfacet
  facet normal 0 0 -1
    outer loop
      vertex 4.8541 -3.52671 -4.5
      vertex 5.68704 -1.80713 -4.5
      vertex 5.48127 -2.44042 -4.5
    endloop
  endfacet
  facet normal -0 0 -1
    outer loop
      vertex 5.68704 -1.80713 -4.5
      vertex 3.47608 -4.85026 -4.5
      vertex 5.68704 1.80713 -4.5
    endloop
  endfacet
  facet normal 0 0 -1
    outer loop
      vertex 5.68704 -1.80713 -4.5
      vertex 4.8541 -3.52671 -4.5
      vertex 3.47608 -4.85026 -4.5
    endloop
  endfacet
  facet normal 0 0 -1
    outer loop
      vertex 3.47608 4.85026 -4.5
      vertex 5.68704 1.80713 -4.5
      vertex 3.47608 -4.85026 -4.5
    endloop
  endfacet
  facet normal 0 0 -1
    outer loop
      vertex 3.47608 -4.85026 -4.5
      vertex 4.8541 -3.52671 -4.5
      vertex 4.01478 -4.45887 -4.5
    endloop
  endfacet
  facet normal -0 -0 -1
    outer loop
      vertex 4.8541 3.52671 -4.5
      vertex 5.68704 1.80713 -4.5
      vertex 3.47608 4.85026 -4.5
    endloop
  endfacet
  facet normal 0 0 -1
    outer loop
      vertex 5.68704 1.80713 -4.5
      vertex 4.8541 3.52671 -4.5
      vertex 5.48127 2.44042 -4.5
    endloop
  endfacet
  facet normal 0 0 -1
    outer loop
      vertex 4.8541 3.52671 -4.5
      vertex 3.47608 4.85026 -4.5
      vertex 4.01478 4.45887 -4.5
    endloop
  endfacet
  facet normal 0 0 -1
    outer loop
      vertex 0.0387118 -5.96713 -4.5
      vertex 3.47608 -4.85026 -4.5
      vertex 2.16312 -6.65739 -4.5
    endloop
  endfacet
  facet normal -0 0 -1
    outer loop
      vertex 3.47608 -4.85026 -4.5
      vertex 0.0387118 -5.96713 -4.5
      vertex 3.47608 4.85026 -4.5
    endloop
  endfacet
  facet normal 0 0 -1
    outer loop
      vertex 0.0387118 5.96713 -4.5
      vertex 3.47608 4.85026 -4.5
      vertex 0.0387118 -5.96713 -4.5
    endloop
  endfacet
  facet normal 0 0 -1
    outer loop
      vertex 3.47608 4.85026 -4.5
      vertex 0.0387118 5.96713 -4.5
      vertex 2.16312 6.65739 -4.5
    endloop
  endfacet
  facet normal 0 0 -1
    outer loop
      vertex -1.8541 -5.70634 -4.5
      vertex 0.0387118 -5.96713 -4.5
      vertex -0.627171 -5.96713 -4.5
    endloop
  endfacet
  facet normal 0 0 -1
    outer loop
      vertex 0.0387118 -5.96713 -4.5
      vertex -3.53872 4.80475 -4.5
      vertex 0.0387118 5.96713 -4.5
    endloop
  endfacet
  facet normal 0 0 -1
    outer loop
      vertex 0.0387118 -5.96713 -4.5
      vertex -1.8541 -5.70634 -4.5
      vertex -3.53872 -4.80475 -4.5
    endloop
  endfacet
  facet normal 0 -0 -1
    outer loop
      vertex -1.8541 5.70634 -4.5
      vertex 0.0387118 5.96713 -4.5
      vertex -3.53872 4.80475 -4.5
    endloop
  endfacet
  facet normal -0 0 -1
    outer loop
      vertex 0.0387118 5.96713 -4.5
      vertex -1.8541 5.70634 -4.5
      vertex -0.627171 5.96713 -4.5
    endloop
  endfacet
  facet normal 0 0 -1
    outer loop
      vertex -3.53872 -4.80475 -4.5
      vertex -1.8541 -5.70634 -4.5
      vertex -3 -5.19615 -4.5
    endloop
  endfacet
  facet normal 0 0 -1
    outer loop
      vertex -1.8541 5.70634 -4.5
      vertex -3.53872 4.80475 -4.5
      vertex -3 5.19615 -4.5
    endloop
  endfacet
  facet normal 0 0 -1
    outer loop
      vertex 0.0387118 -5.96713 -4.5
      vertex -3.53872 -4.80475 -4.5
      vertex -3.53872 4.80475 -4.5
    endloop
  endfacet
  facet normal 0 0 -1
    outer loop
      vertex -5.66312 -1.88076 -4.5
      vertex -3.53872 -4.80475 -4.5
      vertex -5.66312 -4.11449 -4.5
    endloop
  endfacet
  facet normal 0 0 -1
    outer loop
      vertex -3.53872 -4.80475 -4.5
      vertex -5.66312 -1.88076 -4.5
      vertex -3.53872 4.80475 -4.5
    endloop
  endfacet
  facet normal 0 0 -1
    outer loop
      vertex -5.66312 1.88076 -4.5
      vertex -3.53872 4.80475 -4.5
      vertex -5.66312 -1.88076 -4.5
    endloop
  endfacet
  facet normal 0 0 -1
    outer loop
      vertex -3.53872 4.80475 -4.5
      vertex -5.66312 1.88076 -4.5
      vertex -5.66312 4.11449 -4.5
    endloop
  endfacet
  facet normal -0 0 -1
    outer loop
      vertex -5.66312 1.88076 -2.5
      vertex -5.86889 1.24747 -2.5
      vertex -5.66312 4.11449 -2.5
    endloop
  endfacet
  facet normal 0 0 -1
    outer loop
      vertex 7 0 -2.5
      vertex 16 0 -2.5
      vertex 12.9443 -9.40456 -2.5
    endloop
  endfacet
  facet normal 0 0 -1
    outer loop
      vertex 16 0 -2.5
      vertex 7 0 -2.5
      vertex 12.9443 9.40456 -2.5
    endloop
  endfacet
  facet normal 0 0 -1
    outer loop
      vertex 5.48127 -2.44042 -2.5
      vertex 7 0 -2.5
      vertex 12.9443 -9.40456 -2.5
    endloop
  endfacet
  facet normal 0 0 -1
    outer loop
      vertex 7 0 -2.5
      vertex 5.48127 -2.44042 -2.5
      vertex 5.68704 -1.80713 -2.5
    endloop
  endfacet
  facet normal 0 0 -1
    outer loop
      vertex 2.16312 -6.65739 -2.5
      vertex 12.9443 -9.40456 -2.5
      vertex 4.94426 -15.2169 -2.5
    endloop
  endfacet
  facet normal 0 0 -1
    outer loop
      vertex 12.9443 -9.40456 -2.5
      vertex 4.8541 -3.52671 -2.5
      vertex 5.48127 -2.44042 -2.5
    endloop
  endfacet
  facet normal 0 0 -1
    outer loop
      vertex 12.9443 -9.40456 -2.5
      vertex 4.01478 -4.45887 -2.5
      vertex 4.8541 -3.52671 -2.5
    endloop
  endfacet
  facet normal 0 0 -1
    outer loop
      vertex 12.9443 -9.40456 -2.5
      vertex 2.16312 -6.65739 -2.5
      vertex 4.01478 -4.45887 -2.5
    endloop
  endfacet
  facet normal 0 0 -1
    outer loop
      vertex 4.01478 -4.45887 -2.5
      vertex 2.16312 -6.65739 -2.5
      vertex 3.47608 -4.85026 -2.5
    endloop
  endfacet
  facet normal 0 0 -1
    outer loop
      vertex -4.94426 -15.2169 -2.5
      vertex 2.16312 -6.65739 -2.5
      vertex 4.94426 -15.2169 -2.5
    endloop
  endfacet
  facet normal 0 -0 -1
    outer loop
      vertex -0.627171 -5.96713 -2.5
      vertex 2.16312 -6.65739 -2.5
      vertex -4.94426 -15.2169 -2.5
    endloop
  endfacet
  facet normal 0 0 -1
    outer loop
      vertex 2.16312 -6.65739 -2.5
      vertex -0.627171 -5.96713 -2.5
      vertex 0.0387118 -5.96713 -2.5
    endloop
  endfacet
  facet normal -0 0 -1
    outer loop
      vertex -0.627171 -5.96713 -2.5
      vertex -4.94426 -15.2169 -2.5
      vertex -1.8541 -5.70634 -2.5
    endloop
  endfacet
  facet normal -0 0 -1
    outer loop
      vertex -1.8541 -5.70634 -2.5
      vertex -4.94426 -15.2169 -2.5
      vertex -3 -5.19615 -2.5
    endloop
  endfacet
  facet normal 0 0 -1
    outer loop
      vertex -5.66312 -4.11449 -2.5
      vertex -3 -5.19615 -2.5
      vertex -4.94426 -15.2169 -2.5
    endloop
  endfacet
  facet normal 0 0 -1
    outer loop
      vertex -3 -5.19615 -2.5
      vertex -5.66312 -4.11449 -2.5
      vertex -3.53872 -4.80475 -2.5
    endloop
  endfacet
  facet normal 0 0 -1
    outer loop
      vertex -5.66312 -4.11449 -2.5
      vertex -5.86889 -1.24747 -2.5
      vertex -5.66312 -1.88076 -2.5
    endloop
  endfacet
  facet normal 0 0 -1
    outer loop
      vertex -12.9443 -9.40456 -2.5
      vertex -5.66312 -4.11449 -2.5
      vertex -4.94426 -15.2169 -2.5
    endloop
  endfacet
  facet normal 0 0 -1
    outer loop
      vertex -16 0 -2.5
      vertex -5.66312 -4.11449 -2.5
      vertex -12.9443 -9.40456 -2.5
    endloop
  endfacet
  facet normal 0 0 -1
    outer loop
      vertex -5.66312 -4.11449 -2.5
      vertex -16 0 -2.5
      vertex -5.86889 -1.24747 -2.5
    endloop
  endfacet
  facet normal 0 0 -1
    outer loop
      vertex 5.48127 2.44042 -2.5
      vertex 7 0 -2.5
      vertex 5.68704 1.80713 -2.5
    endloop
  endfacet
  facet normal 0 0 -1
    outer loop
      vertex 7 0 -2.5
      vertex 5.48127 2.44042 -2.5
      vertex 12.9443 9.40456 -2.5
    endloop
  endfacet
  facet normal 0 0 -1
    outer loop
      vertex 4.8541 3.52671 -2.5
      vertex 12.9443 9.40456 -2.5
      vertex 5.48127 2.44042 -2.5
    endloop
  endfacet
  facet normal 0 0 -1
    outer loop
      vertex 4.01478 4.45887 -2.5
      vertex 12.9443 9.40456 -2.5
      vertex 4.8541 3.52671 -2.5
    endloop
  endfacet
  facet normal 0 0 -1
    outer loop
      vertex 2.16312 6.65739 -2.5
      vertex 12.9443 9.40456 -2.5
      vertex 4.01478 4.45887 -2.5
    endloop
  endfacet
  facet normal 0 0 -1
    outer loop
      vertex 2.16312 6.65739 -2.5
      vertex 4.01478 4.45887 -2.5
      vertex 3.47608 4.85026 -2.5
    endloop
  endfacet
  facet normal -0 0 -1
    outer loop
      vertex 12.9443 9.40456 -2.5
      vertex 2.16312 6.65739 -2.5
      vertex 4.94426 15.2169 -2.5
    endloop
  endfacet
  facet normal 0 0 -1
    outer loop
      vertex -0.627171 5.96713 -2.5
      vertex 2.16312 6.65739 -2.5
      vertex 0.0387118 5.96713 -2.5
    endloop
  endfacet
  facet normal -0 0 -1
    outer loop
      vertex 2.16312 6.65739 -2.5
      vertex -0.627171 5.96713 -2.5
      vertex -4.94426 15.2169 -2.5
    endloop
  endfacet
  facet normal 0 0 -1
    outer loop
      vertex -4.94426 15.2169 -2.5
      vertex -0.627171 5.96713 -2.5
      vertex -1.8541 5.70634 -2.5
    endloop
  endfacet
  facet normal 0 0 -1
    outer loop
      vertex -4.94426 15.2169 -2.5
      vertex -1.8541 5.70634 -2.5
      vertex -3 5.19615 -2.5
    endloop
  endfacet
  facet normal 0 0 -1
    outer loop
      vertex -5.66312 4.11449 -2.5
      vertex -3 5.19615 -2.5
      vertex -3.53872 4.80475 -2.5
    endloop
  endfacet
  facet normal 0 0 -1
    outer loop
      vertex 2.16312 6.65739 -2.5
      vertex -4.94426 15.2169 -2.5
      vertex 4.94426 15.2169 -2.5
    endloop
  endfacet
  facet normal -0 0 -1
    outer loop
      vertex -3 5.19615 -2.5
      vertex -5.66312 4.11449 -2.5
      vertex -4.94426 15.2169 -2.5
    endloop
  endfacet
  facet normal 0 0 -1
    outer loop
      vertex -16 0 -2.5
      vertex -5.66312 4.11449 -2.5
      vertex -5.86889 1.24747 -2.5
    endloop
  endfacet
  facet normal 0 0 -1
    outer loop
      vertex -16 0 -2.5
      vertex -5.86889 1.24747 -2.5
      vertex -6 0 -2.5
    endloop
  endfacet
  facet normal 0 0 -1
    outer loop
      vertex -5.86889 -1.24747 -2.5
      vertex -16 0 -2.5
      vertex -6 0 -2.5
    endloop
  endfacet
  facet normal 0 0 -1
    outer loop
      vertex -5.66312 4.11449 -2.5
      vertex -12.9443 9.40456 -2.5
      vertex -4.94426 15.2169 -2.5
    endloop
  endfacet
  facet normal -0 0 -1
    outer loop
      vertex -5.66312 4.11449 -2.5
      vertex -16 0 -2.5
      vertex -12.9443 9.40456 -2.5
    endloop
  endfacet
  facet normal 0.809017 0.587785 0
    outer loop
      vertex 7 0 -2.5
      vertex 5.68704 1.80713 -4.5
      vertex 5.68704 1.80713 -2.5
    endloop
  endfacet
  facet normal 0.809017 0.587785 0
    outer loop
      vertex 5.68704 1.80713 -4.5
      vertex 7 0 -2.5
      vertex 7 0 -4.5
    endloop
  endfacet
  facet normal 0.809017 0.587786 0
    outer loop
      vertex 3.47608 4.85026 -2.5
      vertex 2.16312 6.65739 -4.5
      vertex 2.16312 6.65739 -2.5
    endloop
  endfacet
  facet normal 0.809017 0.587786 0
    outer loop
      vertex 2.16312 6.65739 -4.5
      vertex 3.47608 4.85026 -2.5
      vertex 3.47608 4.85026 -4.5
    endloop
  endfacet
  facet normal -0.309018 0.951056 0
    outer loop
      vertex -3.53872 4.80475 -4.5
      vertex -5.66312 4.11449 -2.5
      vertex -3.53872 4.80475 -2.5
    endloop
  endfacet
  facet normal -0.309018 0.951056 0
    outer loop
      vertex -5.66312 4.11449 -2.5
      vertex -3.53872 4.80475 -4.5
      vertex -5.66312 4.11449 -4.5
    endloop
  endfacet
  facet normal -0.309018 0.951056 0
    outer loop
      vertex 2.16312 6.65739 -4.5
      vertex 0.0387118 5.96713 -2.5
      vertex 2.16312 6.65739 -2.5
    endloop
  endfacet
  facet normal -0.309018 0.951056 0
    outer loop
      vertex 0.0387118 5.96713 -2.5
      vertex 2.16312 6.65739 -4.5
      vertex 0.0387118 5.96713 -4.5
    endloop
  endfacet
  facet normal -1 0 0
    outer loop
      vertex -5.66312 -4.11449 -4.5
      vertex -5.66312 -1.88076 -2.5
      vertex -5.66312 -1.88076 -4.5
    endloop
  endfacet
  facet normal -1 -0 0
    outer loop
      vertex -5.66312 -1.88076 -2.5
      vertex -5.66312 -4.11449 -4.5
      vertex -5.66312 -4.11449 -2.5
    endloop
  endfacet
  facet normal -1 0 0
    outer loop
      vertex -5.66312 1.88076 -4.5
      vertex -5.66312 4.11449 -2.5
      vertex -5.66312 4.11449 -4.5
    endloop
  endfacet
  facet normal -1 -0 0
    outer loop
      vertex -5.66312 4.11449 -2.5
      vertex -5.66312 1.88076 -4.5
      vertex -5.66312 1.88076 -2.5
    endloop
  endfacet
  facet normal -0.309018 -0.951056 0
    outer loop
      vertex -5.66312 -4.11449 -4.5
      vertex -3.53872 -4.80475 -2.5
      vertex -5.66312 -4.11449 -2.5
    endloop
  endfacet
  facet normal -0.309018 -0.951056 -0
    outer loop
      vertex -3.53872 -4.80475 -2.5
      vertex -5.66312 -4.11449 -4.5
      vertex -3.53872 -4.80475 -4.5
    endloop
  endfacet
  facet normal -0.309018 -0.951056 0
    outer loop
      vertex 0.0387118 -5.96713 -4.5
      vertex 2.16312 -6.65739 -2.5
      vertex 0.0387118 -5.96713 -2.5
    endloop
  endfacet
  facet normal -0.309018 -0.951056 -0
    outer loop
      vertex 2.16312 -6.65739 -2.5
      vertex 0.0387118 -5.96713 -4.5
      vertex 2.16312 -6.65739 -4.5
    endloop
  endfacet
  facet normal 0.809017 -0.587785 0
    outer loop
      vertex 5.68704 -1.80713 -2.5
      vertex 7 0 -4.5
      vertex 7 0 -2.5
    endloop
  endfacet
  facet normal 0.809017 -0.587785 0
    outer loop
      vertex 7 0 -4.5
      vertex 5.68704 -1.80713 -2.5
      vertex 5.68704 -1.80713 -4.5
    endloop
  endfacet
  facet normal 0.809017 -0.587786 0
    outer loop
      vertex 2.16312 -6.65739 -2.5
      vertex 3.47608 -4.85026 -4.5
      vertex 3.47608 -4.85026 -2.5
    endloop
  endfacet
  facet normal 0.809017 -0.587786 0
    outer loop
      vertex 3.47608 -4.85026 -4.5
      vertex 2.16312 -6.65739 -2.5
      vertex 2.16312 -6.65739 -4.5
    endloop
  endfacet
  facet normal 0.207901 0.97815 -0
    outer loop
      vertex -0.522629 -4.9726 -1.5
      vertex -1.54507 -4.75528 4.5
      vertex -0.522629 -4.9726 4.5
    endloop
  endfacet
  facet normal 0.207901 0.97815 0
    outer loop
      vertex -1.54507 -4.75528 4.5
      vertex -0.522629 -4.9726 -1.5
      vertex -1.54507 -4.75528 -1.5
    endloop
  endfacet
  facet normal 0.406733 0.913547 -0
    outer loop
      vertex -1.54507 -4.75528 -1.5
      vertex -2.5 -4.33012 4.5
      vertex -1.54507 -4.75528 4.5
    endloop
  endfacet
  facet normal 0.406733 0.913547 0
    outer loop
      vertex -2.5 -4.33012 4.5
      vertex -1.54507 -4.75528 -1.5
      vertex -2.5 -4.33012 -1.5
    endloop
  endfacet
  facet normal 0.587795 0.80901 -0
    outer loop
      vertex -2.5 -4.33012 -1.5
      vertex -3.34564 -3.71571 4.5
      vertex -2.5 -4.33012 4.5
    endloop
  endfacet
  facet normal 0.587795 0.80901 0
    outer loop
      vertex -3.34564 -3.71571 4.5
      vertex -2.5 -4.33012 -1.5
      vertex -3.34564 -3.71571 -1.5
    endloop
  endfacet
  facet normal 0.743143 0.669132 0
    outer loop
      vertex -3.34564 -3.71571 4.5
      vertex -4.04507 -2.93892 -1.5
      vertex -4.04507 -2.93892 4.5
    endloop
  endfacet
  facet normal 0.743143 0.669132 0
    outer loop
      vertex -4.04507 -2.93892 -1.5
      vertex -3.34564 -3.71571 4.5
      vertex -3.34564 -3.71571 -1.5
    endloop
  endfacet
  facet normal 0.866025 0.500001 0
    outer loop
      vertex -4.04507 -2.93892 4.5
      vertex -4.56772 -2.03368 -1.5
      vertex -4.56772 -2.03368 4.5
    endloop
  endfacet
  facet normal 0.866025 0.500001 0
    outer loop
      vertex -4.56772 -2.03368 -1.5
      vertex -4.04507 -2.93892 4.5
      vertex -4.04507 -2.93892 -1.5
    endloop
  endfacet
  facet normal 0.951056 0.309019 0
    outer loop
      vertex -4.56772 -2.03368 4.5
      vertex -4.89073 -1.03955 -1.5
      vertex -4.89073 -1.03955 4.5
    endloop
  endfacet
  facet normal 0.951056 0.309019 0
    outer loop
      vertex -4.89073 -1.03955 -1.5
      vertex -4.56772 -2.03368 4.5
      vertex -4.56772 -2.03368 -1.5
    endloop
  endfacet
  facet normal 0.994521 0.104535 0
    outer loop
      vertex -4.89073 -1.03955 4.5
      vertex -5 0 -1.5
      vertex -5 0 4.5
    endloop
  endfacet
  facet normal 0.994521 0.104535 0
    outer loop
      vertex -5 0 -1.5
      vertex -4.89073 -1.03955 4.5
      vertex -4.89073 -1.03955 -1.5
    endloop
  endfacet
  facet normal 0.994521 -0.104535 0
    outer loop
      vertex -5 0 4.5
      vertex -4.89073 1.03955 -1.5
      vertex -4.89073 1.03955 4.5
    endloop
  endfacet
  facet normal 0.994521 -0.104535 0
    outer loop
      vertex -4.89073 1.03955 -1.5
      vertex -5 0 4.5
      vertex -5 0 -1.5
    endloop
  endfacet
  facet normal 0.951056 -0.309019 0
    outer loop
      vertex -4.89073 1.03955 4.5
      vertex -4.56772 2.03368 -1.5
      vertex -4.56772 2.03368 4.5
    endloop
  endfacet
  facet normal 0.951056 -0.309019 0
    outer loop
      vertex -4.56772 2.03368 -1.5
      vertex -4.89073 1.03955 4.5
      vertex -4.89073 1.03955 -1.5
    endloop
  endfacet
  facet normal 0.866025 -0.500001 0
    outer loop
      vertex -4.56772 2.03368 4.5
      vertex -4.04507 2.93892 -1.5
      vertex -4.04507 2.93892 4.5
    endloop
  endfacet
  facet normal 0.866025 -0.500001 0
    outer loop
      vertex -4.04507 2.93892 -1.5
      vertex -4.56772 2.03368 4.5
      vertex -4.56772 2.03368 -1.5
    endloop
  endfacet
  facet normal 0.743143 -0.669132 0
    outer loop
      vertex -4.04507 2.93892 4.5
      vertex -3.34564 3.71571 -1.5
      vertex -3.34564 3.71571 4.5
    endloop
  endfacet
  facet normal 0.743143 -0.669132 0
    outer loop
      vertex -3.34564 3.71571 -1.5
      vertex -4.04507 2.93892 4.5
      vertex -4.04507 2.93892 -1.5
    endloop
  endfacet
  facet normal 0.587788 -0.809015 0
    outer loop
      vertex -3.34564 3.71571 -1.5
      vertex -2.49998 4.33012 4.5
      vertex -3.34564 3.71571 4.5
    endloop
  endfacet
  facet normal 0.587788 -0.809015 0
    outer loop
      vertex -2.49998 4.33012 4.5
      vertex -3.34564 3.71571 -1.5
      vertex -2.49998 4.33012 -1.5
    endloop
  endfacet
  facet normal 0.406738 -0.913545 0
    outer loop
      vertex -2.49998 4.33012 -1.5
      vertex -1.54507 4.75528 4.5
      vertex -2.49998 4.33012 4.5
    endloop
  endfacet
  facet normal 0.406738 -0.913545 0
    outer loop
      vertex -1.54507 4.75528 4.5
      vertex -2.49998 4.33012 -1.5
      vertex -1.54507 4.75528 -1.5
    endloop
  endfacet
  facet normal 0.207901 -0.97815 0
    outer loop
      vertex -1.54507 4.75528 -1.5
      vertex -0.522629 4.9726 4.5
      vertex -1.54507 4.75528 4.5
    endloop
  endfacet
  facet normal 0.207901 -0.97815 0
    outer loop
      vertex -0.522629 4.9726 4.5
      vertex -1.54507 4.75528 -1.5
      vertex -0.522629 4.9726 -1.5
    endloop
  endfacet
  facet normal 0 -1 0
    outer loop
      vertex -0.522629 4.9726 -1.5
      vertex 0.522629 4.9726 4.5
      vertex -0.522629 4.9726 4.5
    endloop
  endfacet
  facet normal 0 -1 -0
    outer loop
      vertex 0.522629 4.9726 4.5
      vertex -0.522629 4.9726 -1.5
      vertex 0.522629 4.9726 -1.5
    endloop
  endfacet
  facet normal -0.207901 -0.97815 0
    outer loop
      vertex 0.522629 4.9726 -1.5
      vertex 1.54507 4.75528 4.5
      vertex 0.522629 4.9726 4.5
    endloop
  endfacet
  facet normal -0.207901 -0.97815 -0
    outer loop
      vertex 1.54507 4.75528 4.5
      vertex 0.522629 4.9726 -1.5
      vertex 1.54507 4.75528 -1.5
    endloop
  endfacet
  facet normal -0.406733 -0.913547 0
    outer loop
      vertex 1.54507 4.75528 -1.5
      vertex 2.5 4.33012 4.5
      vertex 1.54507 4.75528 4.5
    endloop
  endfacet
  facet normal -0.406733 -0.913547 -0
    outer loop
      vertex 2.5 4.33012 4.5
      vertex 1.54507 4.75528 -1.5
      vertex 2.5 4.33012 -1.5
    endloop
  endfacet
  facet normal -0.587795 -0.80901 0
    outer loop
      vertex 2.5 4.33012 -1.5
      vertex 3.34564 3.71571 4.5
      vertex 2.5 4.33012 4.5
    endloop
  endfacet
  facet normal -0.587795 -0.80901 -0
    outer loop
      vertex 3.34564 3.71571 4.5
      vertex 2.5 4.33012 -1.5
      vertex 3.34564 3.71571 -1.5
    endloop
  endfacet
  facet normal -0.743143 -0.669132 0
    outer loop
      vertex 4.04507 2.93892 -1.5
      vertex 3.34564 3.71571 4.5
      vertex 3.34564 3.71571 -1.5
    endloop
  endfacet
  facet normal -0.743143 -0.669132 0
    outer loop
      vertex 3.34564 3.71571 4.5
      vertex 4.04507 2.93892 -1.5
      vertex 4.04507 2.93892 4.5
    endloop
  endfacet
  facet normal -0.866025 -0.500001 0
    outer loop
      vertex 4.56772 2.03368 -1.5
      vertex 4.04507 2.93892 4.5
      vertex 4.04507 2.93892 -1.5
    endloop
  endfacet
  facet normal -0.866025 -0.500001 0
    outer loop
      vertex 4.04507 2.93892 4.5
      vertex 4.56772 2.03368 -1.5
      vertex 4.56772 2.03368 4.5
    endloop
  endfacet
  facet normal -0.951056 -0.309019 0
    outer loop
      vertex 4.89073 1.03955 -1.5
      vertex 4.56772 2.03368 4.5
      vertex 4.56772 2.03368 -1.5
    endloop
  endfacet
  facet normal -0.951056 -0.309019 0
    outer loop
      vertex 4.56772 2.03368 4.5
      vertex 4.89073 1.03955 -1.5
      vertex 4.89073 1.03955 4.5
    endloop
  endfacet
  facet normal -0.994521 -0.104535 0
    outer loop
      vertex 5 0 -1.5
      vertex 4.89073 1.03955 4.5
      vertex 4.89073 1.03955 -1.5
    endloop
  endfacet
  facet normal -0.994521 -0.104535 0
    outer loop
      vertex 4.89073 1.03955 4.5
      vertex 5 0 -1.5
      vertex 5 0 4.5
    endloop
  endfacet
  facet normal -0.994521 0.104535 0
    outer loop
      vertex 4.89073 -1.03955 -1.5
      vertex 5 0 4.5
      vertex 5 0 -1.5
    endloop
  endfacet
  facet normal -0.994521 0.104535 0
    outer loop
      vertex 5 0 4.5
      vertex 4.89073 -1.03955 -1.5
      vertex 4.89073 -1.03955 4.5
    endloop
  endfacet
  facet normal -0.951056 0.309019 0
    outer loop
      vertex 4.56772 -2.03368 -1.5
      vertex 4.89073 -1.03955 4.5
      vertex 4.89073 -1.03955 -1.5
    endloop
  endfacet
  facet normal -0.951056 0.309019 0
    outer loop
      vertex 4.89073 -1.03955 4.5
      vertex 4.56772 -2.03368 -1.5
      vertex 4.56772 -2.03368 4.5
    endloop
  endfacet
  facet normal -0.866025 0.500001 0
    outer loop
      vertex 4.04507 -2.93892 -1.5
      vertex 4.56772 -2.03368 4.5
      vertex 4.56772 -2.03368 -1.5
    endloop
  endfacet
  facet normal -0.866025 0.500001 0
    outer loop
      vertex 4.56772 -2.03368 4.5
      vertex 4.04507 -2.93892 -1.5
      vertex 4.04507 -2.93892 4.5
    endloop
  endfacet
  facet normal -0.743143 0.669132 0
    outer loop
      vertex 3.34564 -3.71571 -1.5
      vertex 4.04507 -2.93892 4.5
      vertex 4.04507 -2.93892 -1.5
    endloop
  endfacet
  facet normal -0.743143 0.669132 0
    outer loop
      vertex 4.04507 -2.93892 4.5
      vertex 3.34564 -3.71571 -1.5
      vertex 3.34564 -3.71571 4.5
    endloop
  endfacet
  facet normal -0.587795 0.80901 0
    outer loop
      vertex 3.34564 -3.71571 -1.5
      vertex 2.5 -4.33012 4.5
      vertex 3.34564 -3.71571 4.5
    endloop
  endfacet
  facet normal -0.587795 0.80901 0
    outer loop
      vertex 2.5 -4.33012 4.5
      vertex 3.34564 -3.71571 -1.5
      vertex 2.5 -4.33012 -1.5
    endloop
  endfacet
  facet normal -0.406733 0.913547 0
    outer loop
      vertex 2.5 -4.33012 -1.5
      vertex 1.54507 -4.75528 4.5
      vertex 2.5 -4.33012 4.5
    endloop
  endfacet
  facet normal -0.406733 0.913547 0
    outer loop
      vertex 1.54507 -4.75528 4.5
      vertex 2.5 -4.33012 -1.5
      vertex 1.54507 -4.75528 -1.5
    endloop
  endfacet
  facet normal -0.207901 0.97815 0
    outer loop
      vertex 1.54507 -4.75528 -1.5
      vertex 0.522629 -4.9726 4.5
      vertex 1.54507 -4.75528 4.5
    endloop
  endfacet
  facet normal -0.207901 0.97815 0
    outer loop
      vertex 0.522629 -4.9726 4.5
      vertex 1.54507 -4.75528 -1.5
      vertex 0.522629 -4.9726 -1.5
    endloop
  endfacet
  facet normal 0 1 -0
    outer loop
      vertex 0.522629 -4.9726 -1.5
      vertex -0.522629 -4.9726 4.5
      vertex 0.522629 -4.9726 4.5
    endloop
  endfacet
  facet normal 0 1 0
    outer loop
      vertex -0.522629 -4.9726 4.5
      vertex 0.522629 -4.9726 -1.5
      vertex -0.522629 -4.9726 -1.5
    endloop
  endfacet
  facet normal -0 0 -1
    outer loop
      vertex 18 0 2.5
      vertex 12.9443 -9.40456 2.5
      vertex 16 0 2.5
    endloop
  endfacet
  facet normal 0 0 -1
    outer loop
      vertex 11.2228 -14.073 2.5
      vertex 12.9443 -9.40456 2.5
      vertex 18 0 2.5
    endloop
  endfacet
  facet normal -0 0 -1
    outer loop
      vertex 11.2228 -14.073 2.5
      vertex 4.94426 -15.2169 2.5
      vertex 12.9443 -9.40456 2.5
    endloop
  endfacet
  facet normal 0 0 -1
    outer loop
      vertex -4.00537 -17.5487 2.5
      vertex 4.94426 -15.2169 2.5
      vertex 11.2228 -14.073 2.5
    endloop
  endfacet
  facet normal 0 0 -1
    outer loop
      vertex -4.00537 -17.5487 2.5
      vertex -4.94426 -15.2169 2.5
      vertex 4.94426 -15.2169 2.5
    endloop
  endfacet
  facet normal 0 0 -1
    outer loop
      vertex -4.00537 -17.5487 2.5
      vertex -12.9443 -9.40456 2.5
      vertex -4.94426 -15.2169 2.5
    endloop
  endfacet
  facet normal 0 0 -1
    outer loop
      vertex -12.9443 -9.40456 2.5
      vertex -16.2174 -7.80991 2.5
      vertex -16 0 2.5
    endloop
  endfacet
  facet normal 0 0 -1
    outer loop
      vertex -16.2174 -7.80991 2.5
      vertex -12.9443 -9.40456 2.5
      vertex -4.00537 -17.5487 2.5
    endloop
  endfacet
  facet normal 0 0 -1
    outer loop
      vertex 12.9443 9.40456 2.5
      vertex 18 0 2.5
      vertex 16 0 2.5
    endloop
  endfacet
  facet normal 0 0 -1
    outer loop
      vertex 12.9443 9.40456 2.5
      vertex 11.2228 14.073 2.5
      vertex 18 0 2.5
    endloop
  endfacet
  facet normal 0 0 -1
    outer loop
      vertex 4.94426 15.2169 2.5
      vertex 11.2228 14.073 2.5
      vertex 12.9443 9.40456 2.5
    endloop
  endfacet
  facet normal 0 0 -1
    outer loop
      vertex 4.94426 15.2169 2.5
      vertex -4.00537 17.5487 2.5
      vertex 11.2228 14.073 2.5
    endloop
  endfacet
  facet normal 0 0 -1
    outer loop
      vertex -4.94426 15.2169 2.5
      vertex -4.00537 17.5487 2.5
      vertex 4.94426 15.2169 2.5
    endloop
  endfacet
  facet normal 0 0 -1
    outer loop
      vertex -12.9443 9.40456 2.5
      vertex -4.00537 17.5487 2.5
      vertex -4.94426 15.2169 2.5
    endloop
  endfacet
  facet normal -0 0 -1
    outer loop
      vertex -12.9443 9.40456 2.5
      vertex -16.2174 7.80991 2.5
      vertex -4.00537 17.5487 2.5
    endloop
  endfacet
  facet normal 0 0 -1
    outer loop
      vertex -16 0 2.5
      vertex -16.2174 7.80991 2.5
      vertex -12.9443 9.40456 2.5
    endloop
  endfacet
  facet normal 0 0 -1
    outer loop
      vertex -16.2174 7.80991 2.5
      vertex -16 0 2.5
      vertex -16.2174 -7.80991 2.5
    endloop
  endfacet
  facet normal 0.951056 -0.309018 0
    outer loop
      vertex 12.9443 -9.40456 2.5
      vertex 16 0 -2.5
      vertex 16 0 2.5
    endloop
  endfacet
  facet normal 0.951056 -0.309018 0
    outer loop
      vertex 16 0 -2.5
      vertex 12.9443 -9.40456 2.5
      vertex 12.9443 -9.40456 -2.5
    endloop
  endfacet
  facet normal 0.951056 0.309018 0
    outer loop
      vertex 16 0 2.5
      vertex 12.9443 9.40456 -2.5
      vertex 12.9443 9.40456 2.5
    endloop
  endfacet
  facet normal 0.951056 0.309018 0
    outer loop
      vertex 12.9443 9.40456 -2.5
      vertex 16 0 2.5
      vertex 16 0 -2.5
    endloop
  endfacet
  facet normal 0.587786 0.809017 -0
    outer loop
      vertex 12.9443 9.40456 -2.5
      vertex 4.94426 15.2169 2.5
      vertex 12.9443 9.40456 2.5
    endloop
  endfacet
  facet normal 0.587786 0.809017 0
    outer loop
      vertex 4.94426 15.2169 2.5
      vertex 12.9443 9.40456 -2.5
      vertex 4.94426 15.2169 -2.5
    endloop
  endfacet
  facet normal 0 1 -0
    outer loop
      vertex 4.94426 15.2169 -2.5
      vertex -4.94426 15.2169 2.5
      vertex 4.94426 15.2169 2.5
    endloop
  endfacet
  facet normal 0 1 0
    outer loop
      vertex -4.94426 15.2169 2.5
      vertex 4.94426 15.2169 -2.5
      vertex -4.94426 15.2169 -2.5
    endloop
  endfacet
  facet normal -0.587786 0.809017 0
    outer loop
      vertex -4.94426 15.2169 -2.5
      vertex -12.9443 9.40456 2.5
      vertex -4.94426 15.2169 2.5
    endloop
  endfacet
  facet normal -0.587786 0.809017 0
    outer loop
      vertex -12.9443 9.40456 2.5
      vertex -4.94426 15.2169 -2.5
      vertex -12.9443 9.40456 -2.5
    endloop
  endfacet
  facet normal -0.951056 0.309018 0
    outer loop
      vertex -16 0 -2.5
      vertex -12.9443 9.40456 2.5
      vertex -12.9443 9.40456 -2.5
    endloop
  endfacet
  facet normal -0.951056 0.309018 0
    outer loop
      vertex -12.9443 9.40456 2.5
      vertex -16 0 -2.5
      vertex -16 0 2.5
    endloop
  endfacet
  facet normal -0.951056 -0.309018 0
    outer loop
      vertex -12.9443 -9.40456 -2.5
      vertex -16 0 2.5
      vertex -16 0 -2.5
    endloop
  endfacet
  facet normal -0.951056 -0.309018 0
    outer loop
      vertex -16 0 2.5
      vertex -12.9443 -9.40456 -2.5
      vertex -12.9443 -9.40456 2.5
    endloop
  endfacet
  facet normal -0.587786 -0.809017 0
    outer loop
      vertex -12.9443 -9.40456 -2.5
      vertex -4.94426 -15.2169 2.5
      vertex -12.9443 -9.40456 2.5
    endloop
  endfacet
  facet normal -0.587786 -0.809017 -0
    outer loop
      vertex -4.94426 -15.2169 2.5
      vertex -12.9443 -9.40456 -2.5
      vertex -4.94426 -15.2169 -2.5
    endloop
  endfacet
  facet normal 0 -1 0
    outer loop
      vertex -4.94426 -15.2169 -2.5
      vertex 4.94426 -15.2169 2.5
      vertex -4.94426 -15.2169 2.5
    endloop
  endfacet
  facet normal 0 -1 -0
    outer loop
      vertex 4.94426 -15.2169 2.5
      vertex -4.94426 -15.2169 -2.5
      vertex 4.94426 -15.2169 -2.5
    endloop
  endfacet
  facet normal 0.587786 -0.809017 0
    outer loop
      vertex 4.94426 -15.2169 -2.5
      vertex 12.9443 -9.40456 2.5
      vertex 4.94426 -15.2169 2.5
    endloop
  endfacet
  facet normal 0.587786 -0.809017 0
    outer loop
      vertex 12.9443 -9.40456 2.5
      vertex 4.94426 -15.2169 -2.5
      vertex 12.9443 -9.40456 -2.5
    endloop
  endfacet
  facet normal -0 0 1
    outer loop
      vertex 4.56772 2.03368 4.5
      vertex 18 0 4.5
      vertex 11.2228 14.073 4.5
    endloop
  endfacet
  facet normal 0 0 1
    outer loop
      vertex 4.89073 -1.03955 4.5
      vertex 18 0 4.5
      vertex 5 0 4.5
    endloop
  endfacet
  facet normal 0 0 1
    outer loop
      vertex 18 0 4.5
      vertex 4.89073 1.03955 4.5
      vertex 5 0 4.5
    endloop
  endfacet
  facet normal 0 0 1
    outer loop
      vertex 18 0 4.5
      vertex 4.56772 2.03368 4.5
      vertex 4.89073 1.03955 4.5
    endloop
  endfacet
  facet normal 0 0 1
    outer loop
      vertex 11.2228 14.073 4.5
      vertex 4.04507 2.93892 4.5
      vertex 4.56772 2.03368 4.5
    endloop
  endfacet
  facet normal 0 0 1
    outer loop
      vertex 11.2228 14.073 4.5
      vertex 3.34564 3.71571 4.5
      vertex 4.04507 2.93892 4.5
    endloop
  endfacet
  facet normal 0 0 1
    outer loop
      vertex 11.2228 14.073 4.5
      vertex 2.5 4.33012 4.5
      vertex 3.34564 3.71571 4.5
    endloop
  endfacet
  facet normal 0 0 1
    outer loop
      vertex 11.2228 14.073 4.5
      vertex 1.54507 4.75528 4.5
      vertex 2.5 4.33012 4.5
    endloop
  endfacet
  facet normal 0 0 1
    outer loop
      vertex -4.00537 17.5487 4.5
      vertex 1.54507 4.75528 4.5
      vertex 11.2228 14.073 4.5
    endloop
  endfacet
  facet normal 0 0 1
    outer loop
      vertex 1.54507 4.75528 4.5
      vertex -4.00537 17.5487 4.5
      vertex 0.522629 4.9726 4.5
    endloop
  endfacet
  facet normal 0 0 1
    outer loop
      vertex 0.522629 4.9726 4.5
      vertex -4.00537 17.5487 4.5
      vertex -0.522629 4.9726 4.5
    endloop
  endfacet
  facet normal 0 0 1
    outer loop
      vertex -0.522629 4.9726 4.5
      vertex -4.00537 17.5487 4.5
      vertex -1.54507 4.75528 4.5
    endloop
  endfacet
  facet normal 0 0 1
    outer loop
      vertex -1.54507 4.75528 4.5
      vertex -4.00537 17.5487 4.5
      vertex -2.49998 4.33012 4.5
    endloop
  endfacet
  facet normal 0 0 1
    outer loop
      vertex -4.00537 17.5487 4.5
      vertex -3.34564 3.71571 4.5
      vertex -2.49998 4.33012 4.5
    endloop
  endfacet
  facet normal -0 0 1
    outer loop
      vertex -16.2174 7.80991 4.5
      vertex -3.34564 3.71571 4.5
      vertex -4.00537 17.5487 4.5
    endloop
  endfacet
  facet normal 0 0 1
    outer loop
      vertex -3.34564 3.71571 4.5
      vertex -16.2174 7.80991 4.5
      vertex -4.04507 2.93892 4.5
    endloop
  endfacet
  facet normal 0 0 1
    outer loop
      vertex -4.04507 2.93892 4.5
      vertex -16.2174 7.80991 4.5
      vertex -4.56772 2.03368 4.5
    endloop
  endfacet
  facet normal 0 0 1
    outer loop
      vertex -4.56772 2.03368 4.5
      vertex -16.2174 7.80991 4.5
      vertex -4.89073 1.03955 4.5
    endloop
  endfacet
  facet normal 0 0 1
    outer loop
      vertex -4.89073 1.03955 4.5
      vertex -16.2174 7.80991 4.5
      vertex -5 0 4.5
    endloop
  endfacet
  facet normal 0 0 1
    outer loop
      vertex 4.56772 -2.03368 4.5
      vertex 18 0 4.5
      vertex 4.89073 -1.03955 4.5
    endloop
  endfacet
  facet normal 0 0 1
    outer loop
      vertex 18 0 4.5
      vertex 4.56772 -2.03368 4.5
      vertex 11.2228 -14.073 4.5
    endloop
  endfacet
  facet normal -0 0 1
    outer loop
      vertex 4.04507 -2.93892 4.5
      vertex 11.2228 -14.073 4.5
      vertex 4.56772 -2.03368 4.5
    endloop
  endfacet
  facet normal -0 0 1
    outer loop
      vertex 3.34564 -3.71571 4.5
      vertex 11.2228 -14.073 4.5
      vertex 4.04507 -2.93892 4.5
    endloop
  endfacet
  facet normal -0 0 1
    outer loop
      vertex 2.5 -4.33012 4.5
      vertex 11.2228 -14.073 4.5
      vertex 3.34564 -3.71571 4.5
    endloop
  endfacet
  facet normal -0 0 1
    outer loop
      vertex 1.54507 -4.75528 4.5
      vertex 11.2228 -14.073 4.5
      vertex 2.5 -4.33012 4.5
    endloop
  endfacet
  facet normal 0 0 1
    outer loop
      vertex -4.00537 -17.5487 4.5
      vertex 1.54507 -4.75528 4.5
      vertex 0.522629 -4.9726 4.5
    endloop
  endfacet
  facet normal 0 0 1
    outer loop
      vertex -4.00537 -17.5487 4.5
      vertex 0.522629 -4.9726 4.5
      vertex -0.522629 -4.9726 4.5
    endloop
  endfacet
  facet normal 0 0 1
    outer loop
      vertex -4.00537 -17.5487 4.5
      vertex -0.522629 -4.9726 4.5
      vertex -1.54507 -4.75528 4.5
    endloop
  endfacet
  facet normal 0 0 1
    outer loop
      vertex -4.00537 -17.5487 4.5
      vertex -1.54507 -4.75528 4.5
      vertex -2.5 -4.33012 4.5
    endloop
  endfacet
  facet normal 0 0 1
    outer loop
      vertex 1.54507 -4.75528 4.5
      vertex -4.00537 -17.5487 4.5
      vertex 11.2228 -14.073 4.5
    endloop
  endfacet
  facet normal 0 0 1
    outer loop
      vertex -3.34564 -3.71571 4.5
      vertex -4.00537 -17.5487 4.5
      vertex -2.5 -4.33012 4.5
    endloop
  endfacet
  facet normal 0 0 1
    outer loop
      vertex -16.2174 -7.80991 4.5
      vertex -3.34564 -3.71571 4.5
      vertex -4.04507 -2.93892 4.5
    endloop
  endfacet
  facet normal 0 0 1
    outer loop
      vertex -16.2174 -7.80991 4.5
      vertex -4.04507 -2.93892 4.5
      vertex -4.56772 -2.03368 4.5
    endloop
  endfacet
  facet normal 0 0 1
    outer loop
      vertex -16.2174 -7.80991 4.5
      vertex -4.56772 -2.03368 4.5
      vertex -4.89073 -1.03955 4.5
    endloop
  endfacet
  facet normal 0 0 1
    outer loop
      vertex -16.2174 -7.80991 4.5
      vertex -4.89073 -1.03955 4.5
      vertex -5 0 4.5
    endloop
  endfacet
  facet normal 0 0 1
    outer loop
      vertex -16.2174 -7.80991 4.5
      vertex -5 0 4.5
      vertex -16.2174 7.80991 4.5
    endloop
  endfacet
  facet normal 0 0 1
    outer loop
      vertex -3.34564 -3.71571 4.5
      vertex -16.2174 -7.80991 4.5
      vertex -4.00537 -17.5487 4.5
    endloop
  endfacet
  facet normal 0.900969 -0.433884 0
    outer loop
      vertex 11.2228 -14.073 4.5
      vertex 18 0 2.5
      vertex 18 0 4.5
    endloop
  endfacet
  facet normal 0.900969 -0.433884 0
    outer loop
      vertex 18 0 2.5
      vertex 11.2228 -14.073 4.5
      vertex 11.2228 -14.073 2.5
    endloop
  endfacet
  facet normal 0.900969 0.433884 0
    outer loop
      vertex 18 0 4.5
      vertex 11.2228 14.073 2.5
      vertex 11.2228 14.073 4.5
    endloop
  endfacet
  facet normal 0.900969 0.433884 0
    outer loop
      vertex 11.2228 14.073 2.5
      vertex 18 0 4.5
      vertex 18 0 2.5
    endloop
  endfacet
  facet normal 0.222521 0.974928 -0
    outer loop
      vertex 11.2228 14.073 2.5
      vertex -4.00537 17.5487 4.5
      vertex 11.2228 14.073 4.5
    endloop
  endfacet
  facet normal 0.222521 0.974928 0
    outer loop
      vertex -4.00537 17.5487 4.5
      vertex 11.2228 14.073 2.5
      vertex -4.00537 17.5487 2.5
    endloop
  endfacet
  facet normal -0.623489 0.781832 0
    outer loop
      vertex -4.00537 17.5487 2.5
      vertex -16.2174 7.80991 4.5
      vertex -4.00537 17.5487 4.5
    endloop
  endfacet
  facet normal -0.623489 0.781832 0
    outer loop
      vertex -16.2174 7.80991 4.5
      vertex -4.00537 17.5487 2.5
      vertex -16.2174 7.80991 2.5
    endloop
  endfacet
  facet normal -1 0 0
    outer loop
      vertex -16.2174 -7.80991 2.5
      vertex -16.2174 7.80991 4.5
      vertex -16.2174 7.80991 2.5
    endloop
  endfacet
  facet normal -1 -0 0
    outer loop
      vertex -16.2174 7.80991 4.5
      vertex -16.2174 -7.80991 2.5
      vertex -16.2174 -7.80991 4.5
    endloop
  endfacet
  facet normal -0.623489 -0.781832 0
    outer loop
      vertex -16.2174 -7.80991 2.5
      vertex -4.00537 -17.5487 4.5
      vertex -16.2174 -7.80991 4.5
    endloop
  endfacet
  facet normal -0.623489 -0.781832 -0
    outer loop
      vertex -4.00537 -17.5487 4.5
      vertex -16.2174 -7.80991 2.5
      vertex -4.00537 -17.5487 2.5
    endloop
  endfacet
  facet normal 0.222521 -0.974928 0
    outer loop
      vertex -4.00537 -17.5487 2.5
      vertex 11.2228 -14.073 4.5
      vertex -4.00537 -17.5487 4.5
    endloop
  endfacet
  facet normal 0.222521 -0.974928 0
    outer loop
      vertex 11.2228 -14.073 4.5
      vertex -4.00537 -17.5487 2.5
      vertex 11.2228 -14.073 2.5
    endloop
  endfacet
  facet normal 0.866025 0.5 0
    outer loop
      vertex 5.48127 2.44042 -2.5
      vertex 4.8541 3.52671 -4.5
      vertex 4.8541 3.52671 -2.5
    endloop
  endfacet
  facet normal 0.866025 0.5 0
    outer loop
      vertex 4.8541 3.52671 -4.5
      vertex 5.48127 2.44042 -2.5
      vertex 5.48127 2.44042 -4.5
    endloop
  endfacet
  facet normal -0.951057 0.309017 0
    outer loop
      vertex -5.86889 1.24747 -4.5
      vertex -5.66312 1.88076 -2.5
      vertex -5.66312 1.88076 -4.5
    endloop
  endfacet
  facet normal -0.951057 0.309017 0
    outer loop
      vertex -5.66312 1.88076 -2.5
      vertex -5.86889 1.24747 -4.5
      vertex -5.86889 1.24747 -2.5
    endloop
  endfacet
  facet normal 0.743145 0.669131 0
    outer loop
      vertex 4.8541 3.52671 -2.5
      vertex 4.01478 4.45887 -4.5
      vertex 4.01478 4.45887 -2.5
    endloop
  endfacet
  facet normal 0.743145 0.669131 0
    outer loop
      vertex 4.01478 4.45887 -4.5
      vertex 4.8541 3.52671 -2.5
      vertex 4.8541 3.52671 -4.5
    endloop
  endfacet
  facet normal -0.406737 0.913545 0
    outer loop
      vertex -1.8541 5.70634 -4.5
      vertex -3 5.19615 -2.5
      vertex -1.8541 5.70634 -2.5
    endloop
  endfacet
  facet normal -0.406737 0.913545 0
    outer loop
      vertex -3 5.19615 -2.5
      vertex -1.8541 5.70634 -4.5
      vertex -3 5.19615 -4.5
    endloop
  endfacet
  facet normal 0.587786 0.809017 -0
    outer loop
      vertex 4.01478 4.45887 -4.5
      vertex 3.47608 4.85026 -2.5
      vertex 4.01478 4.45887 -2.5
    endloop
  endfacet
  facet normal 0.587786 0.809017 0
    outer loop
      vertex 3.47608 4.85026 -2.5
      vertex 4.01478 4.45887 -4.5
      vertex 3.47608 4.85026 -4.5
    endloop
  endfacet
  facet normal 0 1 -0
    outer loop
      vertex 0.0387118 5.96713 -4.5
      vertex -0.627171 5.96713 -2.5
      vertex 0.0387118 5.96713 -2.5
    endloop
  endfacet
  facet normal 0 1 0
    outer loop
      vertex -0.627171 5.96713 -2.5
      vertex 0.0387118 5.96713 -4.5
      vertex -0.627171 5.96713 -4.5
    endloop
  endfacet
  facet normal -0.994522 0.104529 0
    outer loop
      vertex -6 0 -4.5
      vertex -5.86889 1.24747 -2.5
      vertex -5.86889 1.24747 -4.5
    endloop
  endfacet
  facet normal -0.994522 0.104529 0
    outer loop
      vertex -5.86889 1.24747 -2.5
      vertex -6 0 -4.5
      vertex -6 0 -2.5
    endloop
  endfacet
  facet normal -0.587785 0.809017 0
    outer loop
      vertex -3 5.19615 -4.5
      vertex -3.53872 4.80475 -2.5
      vertex -3 5.19615 -2.5
    endloop
  endfacet
  facet normal -0.587785 0.809017 0
    outer loop
      vertex -3.53872 4.80475 -2.5
      vertex -3 5.19615 -4.5
      vertex -3.53872 4.80475 -4.5
    endloop
  endfacet
  facet normal -0.207911 0.978148 0
    outer loop
      vertex -0.627171 5.96713 -4.5
      vertex -1.8541 5.70634 -2.5
      vertex -0.627171 5.96713 -2.5
    endloop
  endfacet
  facet normal -0.207911 0.978148 0
    outer loop
      vertex -1.8541 5.70634 -2.5
      vertex -0.627171 5.96713 -4.5
      vertex -1.8541 5.70634 -4.5
    endloop
  endfacet
  facet normal 0.951057 -0.309017 0
    outer loop
      vertex 5.48127 -2.44042 -2.5
      vertex 5.68704 -1.80713 -4.5
      vertex 5.68704 -1.80713 -2.5
    endloop
  endfacet
  facet normal 0.951057 -0.309017 0
    outer loop
      vertex 5.68704 -1.80713 -4.5
      vertex 5.48127 -2.44042 -2.5
      vertex 5.48127 -2.44042 -4.5
    endloop
  endfacet
  facet normal 0.587786 -0.809017 0
    outer loop
      vertex 3.47608 -4.85026 -4.5
      vertex 4.01478 -4.45887 -2.5
      vertex 3.47608 -4.85026 -2.5
    endloop
  endfacet
  facet normal 0.587786 -0.809017 0
    outer loop
      vertex 4.01478 -4.45887 -2.5
      vertex 3.47608 -4.85026 -4.5
      vertex 4.01478 -4.45887 -4.5
    endloop
  endfacet
  facet normal 0.951057 0.309017 0
    outer loop
      vertex 5.68704 1.80713 -2.5
      vertex 5.48127 2.44042 -4.5
      vertex 5.48127 2.44042 -2.5
    endloop
  endfacet
  facet normal 0.951057 0.309017 0
    outer loop
      vertex 5.48127 2.44042 -4.5
      vertex 5.68704 1.80713 -2.5
      vertex 5.68704 1.80713 -4.5
    endloop
  endfacet
  facet normal 0 0 1
    outer loop
      vertex 4.89073 1.03955 -1.5
      vertex 4.89073 -1.03955 -1.5
      vertex 5 0 -1.5
    endloop
  endfacet
  facet normal 0 0 1
    outer loop
      vertex 4.56772 2.03368 -1.5
      vertex 4.89073 -1.03955 -1.5
      vertex 4.89073 1.03955 -1.5
    endloop
  endfacet
  facet normal 0 0 1
    outer loop
      vertex 4.56772 2.03368 -1.5
      vertex 4.56772 -2.03368 -1.5
      vertex 4.89073 -1.03955 -1.5
    endloop
  endfacet
  facet normal 0 0 1
    outer loop
      vertex 4.04507 2.93892 -1.5
      vertex 4.56772 -2.03368 -1.5
      vertex 4.56772 2.03368 -1.5
    endloop
  endfacet
  facet normal 0 0 1
    outer loop
      vertex 4.04507 2.93892 -1.5
      vertex 4.04507 -2.93892 -1.5
      vertex 4.56772 -2.03368 -1.5
    endloop
  endfacet
  facet normal 0 0 1
    outer loop
      vertex 3.34564 3.71571 -1.5
      vertex 4.04507 -2.93892 -1.5
      vertex 4.04507 2.93892 -1.5
    endloop
  endfacet
  facet normal 0 0 1
    outer loop
      vertex 3.34564 3.71571 -1.5
      vertex 3.34564 -3.71571 -1.5
      vertex 4.04507 -2.93892 -1.5
    endloop
  endfacet
  facet normal 0 0 1
    outer loop
      vertex 2.5 4.33012 -1.5
      vertex 3.34564 -3.71571 -1.5
      vertex 3.34564 3.71571 -1.5
    endloop
  endfacet
  facet normal 0 0 1
    outer loop
      vertex 2.5 4.33012 -1.5
      vertex 2.5 -4.33012 -1.5
      vertex 3.34564 -3.71571 -1.5
    endloop
  endfacet
  facet normal 0 0 1
    outer loop
      vertex 1.54507 4.75528 -1.5
      vertex 2.5 -4.33012 -1.5
      vertex 2.5 4.33012 -1.5
    endloop
  endfacet
  facet normal 0 0 1
    outer loop
      vertex 1.54507 4.75528 -1.5
      vertex 1.54507 -4.75528 -1.5
      vertex 2.5 -4.33012 -1.5
    endloop
  endfacet
  facet normal 0 0 1
    outer loop
      vertex 0.522629 4.9726 -1.5
      vertex 1.54507 -4.75528 -1.5
      vertex 1.54507 4.75528 -1.5
    endloop
  endfacet
  facet normal 0 0 1
    outer loop
      vertex 0.522629 4.9726 -1.5
      vertex 0.522629 -4.9726 -1.5
      vertex 1.54507 -4.75528 -1.5
    endloop
  endfacet
  facet normal -0 0 1
    outer loop
      vertex -0.522629 4.9726 -1.5
      vertex 0.522629 -4.9726 -1.5
      vertex 0.522629 4.9726 -1.5
    endloop
  endfacet
  facet normal 0 0 1
    outer loop
      vertex -0.522629 4.9726 -1.5
      vertex -0.522629 -4.9726 -1.5
      vertex 0.522629 -4.9726 -1.5
    endloop
  endfacet
  facet normal -0 0 1
    outer loop
      vertex -1.54507 4.75528 -1.5
      vertex -0.522629 -4.9726 -1.5
      vertex -0.522629 4.9726 -1.5
    endloop
  endfacet
  facet normal 0 0 1
    outer loop
      vertex -1.54507 4.75528 -1.5
      vertex -1.54507 -4.75528 -1.5
      vertex -0.522629 -4.9726 -1.5
    endloop
  endfacet
  facet normal -0 0 1
    outer loop
      vertex -2.49998 4.33012 -1.5
      vertex -1.54507 -4.75528 -1.5
      vertex -1.54507 4.75528 -1.5
    endloop
  endfacet
  facet normal 0 0 1
    outer loop
      vertex -2.49998 4.33012 -1.5
      vertex -2.5 -4.33012 -1.5
      vertex -1.54507 -4.75528 -1.5
    endloop
  endfacet
  facet normal -0 0 1
    outer loop
      vertex -3.34564 3.71571 -1.5
      vertex -2.5 -4.33012 -1.5
      vertex -2.49998 4.33012 -1.5
    endloop
  endfacet
  facet normal 0 0 1
    outer loop
      vertex -3.34564 3.71571 -1.5
      vertex -3.34564 -3.71571 -1.5
      vertex -2.5 -4.33012 -1.5
    endloop
  endfacet
  facet normal -0 0 1
    outer loop
      vertex -4.04507 2.93892 -1.5
      vertex -3.34564 -3.71571 -1.5
      vertex -3.34564 3.71571 -1.5
    endloop
  endfacet
  facet normal 0 0 1
    outer loop
      vertex -4.04507 2.93892 -1.5
      vertex -4.04507 -2.93892 -1.5
      vertex -3.34564 -3.71571 -1.5
    endloop
  endfacet
  facet normal -0 0 1
    outer loop
      vertex -4.56772 2.03368 -1.5
      vertex -4.04507 -2.93892 -1.5
      vertex -4.04507 2.93892 -1.5
    endloop
  endfacet
  facet normal 0 0 1
    outer loop
      vertex -4.56772 2.03368 -1.5
      vertex -4.56772 -2.03368 -1.5
      vertex -4.04507 -2.93892 -1.5
    endloop
  endfacet
  facet normal -0 0 1
    outer loop
      vertex -4.89073 1.03955 -1.5
      vertex -4.56772 -2.03368 -1.5
      vertex -4.56772 2.03368 -1.5
    endloop
  endfacet
  facet normal 0 0 1
    outer loop
      vertex -4.89073 1.03955 -1.5
      vertex -4.89073 -1.03955 -1.5
      vertex -4.56772 -2.03368 -1.5
    endloop
  endfacet
  facet normal 0 -0 1
    outer loop
      vertex -4.89073 -1.03955 -1.5
      vertex -4.89073 1.03955 -1.5
      vertex -5 0 -1.5
    endloop
  endfacet
  facet normal 0.866025 -0.5 0
    outer loop
      vertex 4.8541 -3.52671 -2.5
      vertex 5.48127 -2.44042 -4.5
      vertex 5.48127 -2.44042 -2.5
    endloop
  endfacet
  facet normal 0.866025 -0.5 0
    outer loop
      vertex 5.48127 -2.44042 -4.5
      vertex 4.8541 -3.52671 -2.5
      vertex 4.8541 -3.52671 -4.5
    endloop
  endfacet
  facet normal -0.994522 -0.104529 0
    outer loop
      vertex -5.86889 -1.24747 -4.5
      vertex -6 0 -2.5
      vertex -6 0 -4.5
    endloop
  endfacet
  facet normal -0.994522 -0.104529 0
    outer loop
      vertex -6 0 -2.5
      vertex -5.86889 -1.24747 -4.5
      vertex -5.86889 -1.24747 -2.5
    endloop
  endfacet
  facet normal -0.207911 -0.978148 0
    outer loop
      vertex -1.8541 -5.70634 -4.5
      vertex -0.627171 -5.96713 -2.5
      vertex -1.8541 -5.70634 -2.5
    endloop
  endfacet
  facet normal -0.207911 -0.978148 -0
    outer loop
      vertex -0.627171 -5.96713 -2.5
      vertex -1.8541 -5.70634 -4.5
      vertex -0.627171 -5.96713 -4.5
    endloop
  endfacet
  facet normal 0 -1 0
    outer loop
      vertex -0.627171 -5.96713 -4.5
      vertex 0.0387118 -5.96713 -2.5
      vertex -0.627171 -5.96713 -2.5
    endloop
  endfacet
  facet normal 0 -1 -0
    outer loop
      vertex 0.0387118 -5.96713 -2.5
      vertex -0.627171 -5.96713 -4.5
      vertex 0.0387118 -5.96713 -4.5
    endloop
  endfacet
  facet normal -0.951057 -0.309017 0
    outer loop
      vertex -5.66312 -1.88076 -4.5
      vertex -5.86889 -1.24747 -2.5
      vertex -5.86889 -1.24747 -4.5
    endloop
  endfacet
  facet normal -0.951057 -0.309017 0
    outer loop
      vertex -5.86889 -1.24747 -2.5
      vertex -5.66312 -1.88076 -4.5
      vertex -5.66312 -1.88076 -2.5
    endloop
  endfacet
  facet normal 0.743145 -0.669131 0
    outer loop
      vertex 4.01478 -4.45887 -2.5
      vertex 4.8541 -3.52671 -4.5
      vertex 4.8541 -3.52671 -2.5
    endloop
  endfacet
  facet normal 0.743145 -0.669131 0
    outer loop
      vertex 4.8541 -3.52671 -4.5
      vertex 4.01478 -4.45887 -2.5
      vertex 4.01478 -4.45887 -4.5
    endloop
  endfacet
  facet normal -0.587785 -0.809017 0
    outer loop
      vertex -3.53872 -4.80475 -4.5
      vertex -3 -5.19615 -2.5
      vertex -3.53872 -4.80475 -2.5
    endloop
  endfacet
  facet normal -0.587785 -0.809017 -0
    outer loop
      vertex -3 -5.19615 -2.5
      vertex -3.53872 -4.80475 -4.5
      vertex -3 -5.19615 -4.5
    endloop
  endfacet
  facet normal -0.406737 -0.913545 0
    outer loop
      vertex -3 -5.19615 -4.5
      vertex -1.8541 -5.70634 -2.5
      vertex -3 -5.19615 -2.5
    endloop
  endfacet
  facet normal -0.406737 -0.913545 -0
    outer loop
      vertex -1.8541 -5.70634 -2.5
      vertex -3 -5.19615 -4.5
      vertex -1.8541 -5.70634 -4.5
    endloop
  endfacet
endsolid OpenSCAD_Model
