solid OpenSCAD_Model
  facet normal 0 0 -1
    outer loop
      vertex 0 -10 -9.5
      vertex 0 10 -9.5
      vertex 10 0 -9.5
    endloop
  endfacet
  facet normal 0 -0 -1
    outer loop
      vertex 0 10 -9.5
      vertex 0 -10 -9.5
      vertex -10 0 -9.5
    endloop
  endfacet
  facet normal 0 0 -1
    outer loop
      vertex 10 0 -7.5
      vertex 18 0 -7.5
      vertex 11.2228 -14.073 -7.5
    endloop
  endfacet
  facet normal 0 0 -1
    outer loop
      vertex 18 0 -7.5
      vertex 10 0 -7.5
      vertex 11.2228 14.073 -7.5
    endloop
  endfacet
  facet normal 0 0 -1
    outer loop
      vertex 11.2228 -14.073 -7.5
      vertex 0 -10 -7.5
      vertex 10 0 -7.5
    endloop
  endfacet
  facet normal 0 0 -1
    outer loop
      vertex -4.00537 -17.5487 -7.5
      vertex 0 -10 -7.5
      vertex 11.2228 -14.073 -7.5
    endloop
  endfacet
  facet normal 0 0 -1
    outer loop
      vertex -16.2174 -7.80991 -7.5
      vertex 0 -10 -7.5
      vertex -4.00537 -17.5487 -7.5
    endloop
  endfacet
  facet normal 0 0 -1
    outer loop
      vertex 0 -10 -7.5
      vertex -16.2174 -7.80991 -7.5
      vertex -10 0 -7.5
    endloop
  endfacet
  facet normal 0 0 -1
    outer loop
      vertex 0 10 -7.5
      vertex 11.2228 14.073 -7.5
      vertex 10 0 -7.5
    endloop
  endfacet
  facet normal 0 0 -1
    outer loop
      vertex 0 10 -7.5
      vertex -4.00537 17.5487 -7.5
      vertex 11.2228 14.073 -7.5
    endloop
  endfacet
  facet normal 0 0 -1
    outer loop
      vertex -16.2174 7.80991 -7.5
      vertex 0 10 -7.5
      vertex -10 0 -7.5
    endloop
  endfacet
  facet normal 0 0 -1
    outer loop
      vertex -16.2174 7.80991 -7.5
      vertex -10 0 -7.5
      vertex -16.2174 -7.80991 -7.5
    endloop
  endfacet
  facet normal -0 0 -1
    outer loop
      vertex 0 10 -7.5
      vertex -16.2174 7.80991 -7.5
      vertex -4.00537 17.5487 -7.5
    endloop
  endfacet
  facet normal 0.707107 0.707107 0
    outer loop
      vertex 10 0 -7.5
      vertex 0 10 -9.5
      vertex 0 10 -7.5
    endloop
  endfacet
  facet normal 0.707107 0.707107 0
    outer loop
      vertex 0 10 -9.5
      vertex 10 0 -7.5
      vertex 10 0 -9.5
    endloop
  endfacet
  facet normal -0.707107 0.707107 0
    outer loop
      vertex -10 0 -9.5
      vertex 0 10 -7.5
      vertex 0 10 -9.5
    endloop
  endfacet
  facet normal -0.707107 0.707107 0
    outer loop
      vertex 0 10 -7.5
      vertex -10 0 -9.5
      vertex -10 0 -7.5
    endloop
  endfacet
  facet normal -0.707107 -0.707107 0
    outer loop
      vertex 0 -10 -9.5
      vertex -10 0 -7.5
      vertex -10 0 -9.5
    endloop
  endfacet
  facet normal -0.707107 -0.707107 0
    outer loop
      vertex -10 0 -7.5
      vertex 0 -10 -9.5
      vertex 0 -10 -7.5
    endloop
  endfacet
  facet normal 0.707107 -0.707107 0
    outer loop
      vertex 0 -10 -7.5
      vertex 10 0 -9.5
      vertex 10 0 -7.5
    endloop
  endfacet
  facet normal 0.707107 -0.707107 0
    outer loop
      vertex 10 0 -9.5
      vertex 0 -10 -7.5
      vertex 0 -10 -9.5
    endloop
  endfacet
  facet normal 0.207897 0.978151 -0
    outer loop
      vertex -0.313583 -2.98355 -6.5
      vertex -0.927048 -2.85316 9.5
      vertex -0.313583 -2.98355 9.5
    endloop
  endfacet
  facet normal 0.207897 0.978151 0
    outer loop
      vertex -0.927048 -2.85316 9.5
      vertex -0.313583 -2.98355 -6.5
      vertex -0.927048 -2.85316 -6.5
    endloop
  endfacet
  facet normal 0.406739 0.913544 -0
    outer loop
      vertex -0.927048 -2.85316 -6.5
      vertex -1.5 -2.59807 9.5
      vertex -0.927048 -2.85316 9.5
    endloop
  endfacet
  facet normal 0.406739 0.913544 0
    outer loop
      vertex -1.5 -2.59807 9.5
      vertex -0.927048 -2.85316 -6.5
      vertex -1.5 -2.59807 -6.5
    endloop
  endfacet
  facet normal 0.587785 0.809017 -0
    outer loop
      vertex -1.5 -2.59807 -6.5
      vertex -2.00739 -2.22943 9.5
      vertex -1.5 -2.59807 9.5
    endloop
  endfacet
  facet normal 0.587785 0.809017 0
    outer loop
      vertex -2.00739 -2.22943 9.5
      vertex -1.5 -2.59807 -6.5
      vertex -2.00739 -2.22943 -6.5
    endloop
  endfacet
  facet normal 0.743143 0.669133 0
    outer loop
      vertex -2.00739 -2.22943 9.5
      vertex -2.42705 -1.76335 -6.5
      vertex -2.42705 -1.76335 9.5
    endloop
  endfacet
  facet normal 0.743143 0.669133 0
    outer loop
      vertex -2.42705 -1.76335 -6.5
      vertex -2.00739 -2.22943 9.5
      vertex -2.00739 -2.22943 -6.5
    endloop
  endfacet
  facet normal 0.866029 0.499993 0
    outer loop
      vertex -2.42705 -1.76335 9.5
      vertex -2.74063 -1.2202 -6.5
      vertex -2.74063 -1.2202 9.5
    endloop
  endfacet
  facet normal 0.866029 0.499993 0
    outer loop
      vertex -2.74063 -1.2202 -6.5
      vertex -2.42705 -1.76335 9.5
      vertex -2.42705 -1.76335 -6.5
    endloop
  endfacet
  facet normal 0.951057 0.309015 0
    outer loop
      vertex -2.74063 -1.2202 9.5
      vertex -2.93443 -0.623734 -6.5
      vertex -2.93443 -0.623734 9.5
    endloop
  endfacet
  facet normal 0.951057 0.309015 0
    outer loop
      vertex -2.93443 -0.623734 -6.5
      vertex -2.74063 -1.2202 9.5
      vertex -2.74063 -1.2202 -6.5
    endloop
  endfacet
  facet normal 0.99452 0.104544 0
    outer loop
      vertex -2.93443 -0.623734 9.5
      vertex -3 0 -6.5
      vertex -3 0 9.5
    endloop
  endfacet
  facet normal 0.99452 0.104544 0
    outer loop
      vertex -3 0 -6.5
      vertex -2.93443 -0.623734 9.5
      vertex -2.93443 -0.623734 -6.5
    endloop
  endfacet
  facet normal 0.99452 -0.104544 0
    outer loop
      vertex -3 0 9.5
      vertex -2.93443 0.623734 -6.5
      vertex -2.93443 0.623734 9.5
    endloop
  endfacet
  facet normal 0.99452 -0.104544 0
    outer loop
      vertex -2.93443 0.623734 -6.5
      vertex -3 0 9.5
      vertex -3 0 -6.5
    endloop
  endfacet
  facet normal 0.951057 -0.309015 0
    outer loop
      vertex -2.93443 0.623734 9.5
      vertex -2.74063 1.2202 -6.5
      vertex -2.74063 1.2202 9.5
    endloop
  endfacet
  facet normal 0.951057 -0.309015 0
    outer loop
      vertex -2.74063 1.2202 -6.5
      vertex -2.93443 0.623734 9.5
      vertex -2.93443 0.623734 -6.5
    endloop
  endfacet
  facet normal 0.866029 -0.499993 0
    outer loop
      vertex -2.74063 1.2202 9.5
      vertex -2.42705 1.76335 -6.5
      vertex -2.42705 1.76335 9.5
    endloop
  endfacet
  facet normal 0.866029 -0.499993 0
    outer loop
      vertex -2.42705 1.76335 -6.5
      vertex -2.74063 1.2202 9.5
      vertex -2.74063 1.2202 -6.5
    endloop
  endfacet
  facet normal 0.743143 -0.669133 0
    outer loop
      vertex -2.42705 1.76335 9.5
      vertex -2.00739 2.22943 -6.5
      vertex -2.00739 2.22943 9.5
    endloop
  endfacet
  facet normal 0.743143 -0.669133 0
    outer loop
      vertex -2.00739 2.22943 -6.5
      vertex -2.42705 1.76335 9.5
      vertex -2.42705 1.76335 -6.5
    endloop
  endfacet
  facet normal 0.587774 -0.809025 0
    outer loop
      vertex -2.00739 2.22943 -6.5
      vertex -1.49998 2.59807 9.5
      vertex -2.00739 2.22943 9.5
    endloop
  endfacet
  facet normal 0.587774 -0.809025 0
    outer loop
      vertex -1.49998 2.59807 9.5
      vertex -2.00739 2.22943 -6.5
      vertex -1.49998 2.59807 -6.5
    endloop
  endfacet
  facet normal 0.406748 -0.91354 0
    outer loop
      vertex -1.49998 2.59807 -6.5
      vertex -0.927048 2.85316 9.5
      vertex -1.49998 2.59807 9.5
    endloop
  endfacet
  facet normal 0.406748 -0.91354 0
    outer loop
      vertex -0.927048 2.85316 9.5
      vertex -1.49998 2.59807 -6.5
      vertex -0.927048 2.85316 -6.5
    endloop
  endfacet
  facet normal 0.207897 -0.978151 0
    outer loop
      vertex -0.927048 2.85316 -6.5
      vertex -0.313583 2.98355 9.5
      vertex -0.927048 2.85316 9.5
    endloop
  endfacet
  facet normal 0.207897 -0.978151 0
    outer loop
      vertex -0.313583 2.98355 9.5
      vertex -0.927048 2.85316 -6.5
      vertex -0.313583 2.98355 -6.5
    endloop
  endfacet
  facet normal 0 -1 0
    outer loop
      vertex -0.313583 2.98355 -6.5
      vertex 0.313583 2.98355 9.5
      vertex -0.313583 2.98355 9.5
    endloop
  endfacet
  facet normal 0 -1 -0
    outer loop
      vertex 0.313583 2.98355 9.5
      vertex -0.313583 2.98355 -6.5
      vertex 0.313583 2.98355 -6.5
    endloop
  endfacet
  facet normal -0.207897 -0.978151 0
    outer loop
      vertex 0.313583 2.98355 -6.5
      vertex 0.927048 2.85316 9.5
      vertex 0.313583 2.98355 9.5
    endloop
  endfacet
  facet normal -0.207897 -0.978151 -0
    outer loop
      vertex 0.927048 2.85316 9.5
      vertex 0.313583 2.98355 -6.5
      vertex 0.927048 2.85316 -6.5
    endloop
  endfacet
  facet normal -0.406739 -0.913544 0
    outer loop
      vertex 0.927048 2.85316 -6.5
      vertex 1.5 2.59807 9.5
      vertex 0.927048 2.85316 9.5
    endloop
  endfacet
  facet normal -0.406739 -0.913544 -0
    outer loop
      vertex 1.5 2.59807 9.5
      vertex 0.927048 2.85316 -6.5
      vertex 1.5 2.59807 -6.5
    endloop
  endfacet
  facet normal -0.587785 -0.809017 0
    outer loop
      vertex 1.5 2.59807 -6.5
      vertex 2.00739 2.22943 9.5
      vertex 1.5 2.59807 9.5
    endloop
  endfacet
  facet normal -0.587785 -0.809017 -0
    outer loop
      vertex 2.00739 2.22943 9.5
      vertex 1.5 2.59807 -6.5
      vertex 2.00739 2.22943 -6.5
    endloop
  endfacet
  facet normal -0.743143 -0.669133 0
    outer loop
      vertex 2.42705 1.76335 -6.5
      vertex 2.00739 2.22943 9.5
      vertex 2.00739 2.22943 -6.5
    endloop
  endfacet
  facet normal -0.743143 -0.669133 0
    outer loop
      vertex 2.00739 2.22943 9.5
      vertex 2.42705 1.76335 -6.5
      vertex 2.42705 1.76335 9.5
    endloop
  endfacet
  facet normal -0.866029 -0.499993 0
    outer loop
      vertex 2.74063 1.2202 -6.5
      vertex 2.42705 1.76335 9.5
      vertex 2.42705 1.76335 -6.5
    endloop
  endfacet
  facet normal -0.866029 -0.499993 0
    outer loop
      vertex 2.42705 1.76335 9.5
      vertex 2.74063 1.2202 -6.5
      vertex 2.74063 1.2202 9.5
    endloop
  endfacet
  facet normal -0.951057 -0.309015 0
    outer loop
      vertex 2.93443 0.623734 -6.5
      vertex 2.74063 1.2202 9.5
      vertex 2.74063 1.2202 -6.5
    endloop
  endfacet
  facet normal -0.951057 -0.309015 0
    outer loop
      vertex 2.74063 1.2202 9.5
      vertex 2.93443 0.623734 -6.5
      vertex 2.93443 0.623734 9.5
    endloop
  endfacet
  facet normal -0.99452 -0.104544 0
    outer loop
      vertex 3 0 -6.5
      vertex 2.93443 0.623734 9.5
      vertex 2.93443 0.623734 -6.5
    endloop
  endfacet
  facet normal -0.99452 -0.104544 0
    outer loop
      vertex 2.93443 0.623734 9.5
      vertex 3 0 -6.5
      vertex 3 0 9.5
    endloop
  endfacet
  facet normal -0.99452 0.104544 0
    outer loop
      vertex 2.93443 -0.623734 -6.5
      vertex 3 0 9.5
      vertex 3 0 -6.5
    endloop
  endfacet
  facet normal -0.99452 0.104544 0
    outer loop
      vertex 3 0 9.5
      vertex 2.93443 -0.623734 -6.5
      vertex 2.93443 -0.623734 9.5
    endloop
  endfacet
  facet normal -0.951057 0.309015 0
    outer loop
      vertex 2.74063 -1.2202 -6.5
      vertex 2.93443 -0.623734 9.5
      vertex 2.93443 -0.623734 -6.5
    endloop
  endfacet
  facet normal -0.951057 0.309015 0
    outer loop
      vertex 2.93443 -0.623734 9.5
      vertex 2.74063 -1.2202 -6.5
      vertex 2.74063 -1.2202 9.5
    endloop
  endfacet
  facet normal -0.866029 0.499993 0
    outer loop
      vertex 2.42705 -1.76335 -6.5
      vertex 2.74063 -1.2202 9.5
      vertex 2.74063 -1.2202 -6.5
    endloop
  endfacet
  facet normal -0.866029 0.499993 0
    outer loop
      vertex 2.74063 -1.2202 9.5
      vertex 2.42705 -1.76335 -6.5
      vertex 2.42705 -1.76335 9.5
    endloop
  endfacet
  facet normal -0.743143 0.669133 0
    outer loop
      vertex 2.00739 -2.22943 -6.5
      vertex 2.42705 -1.76335 9.5
      vertex 2.42705 -1.76335 -6.5
    endloop
  endfacet
  facet normal -0.743143 0.669133 0
    outer loop
      vertex 2.42705 -1.76335 9.5
      vertex 2.00739 -2.22943 -6.5
      vertex 2.00739 -2.22943 9.5
    endloop
  endfacet
  facet normal -0.587785 0.809017 0
    outer loop
      vertex 2.00739 -2.22943 -6.5
      vertex 1.5 -2.59807 9.5
      vertex 2.00739 -2.22943 9.5
    endloop
  endfacet
  facet normal -0.587785 0.809017 0
    outer loop
      vertex 1.5 -2.59807 9.5
      vertex 2.00739 -2.22943 -6.5
      vertex 1.5 -2.59807 -6.5
    endloop
  endfacet
  facet normal -0.406739 0.913544 0
    outer loop
      vertex 1.5 -2.59807 -6.5
      vertex 0.927048 -2.85316 9.5
      vertex 1.5 -2.59807 9.5
    endloop
  endfacet
  facet normal -0.406739 0.913544 0
    outer loop
      vertex 0.927048 -2.85316 9.5
      vertex 1.5 -2.59807 -6.5
      vertex 0.927048 -2.85316 -6.5
    endloop
  endfacet
  facet normal -0.207897 0.978151 0
    outer loop
      vertex 0.927048 -2.85316 -6.5
      vertex 0.313583 -2.98355 9.5
      vertex 0.927048 -2.85316 9.5
    endloop
  endfacet
  facet normal -0.207897 0.978151 0
    outer loop
      vertex 0.313583 -2.98355 9.5
      vertex 0.927048 -2.85316 -6.5
      vertex 0.313583 -2.98355 -6.5
    endloop
  endfacet
  facet normal 0 1 -0
    outer loop
      vertex 0.313583 -2.98355 -6.5
      vertex -0.313583 -2.98355 9.5
      vertex 0.313583 -2.98355 9.5
    endloop
  endfacet
  facet normal 0 1 0
    outer loop
      vertex -0.313583 -2.98355 9.5
      vertex 0.313583 -2.98355 -6.5
      vertex -0.313583 -2.98355 -6.5
    endloop
  endfacet
  facet normal -0 0 1
    outer loop
      vertex 6.46715 2.67877 -3.5
      vertex 18 0 -3.5
      vertex 11.2228 14.073 -3.5
    endloop
  endfacet
  facet normal 0 0 1
    outer loop
      vertex 6.46715 -2.67877 -3.5
      vertex 18 0 -3.5
      vertex 7 0 -3.5
    endloop
  endfacet
  facet normal 0 0 1
    outer loop
      vertex 18 0 -3.5
      vertex 6.46715 2.67877 -3.5
      vertex 7 0 -3.5
    endloop
  endfacet
  facet normal 0 0 1
    outer loop
      vertex 11.2228 14.073 -3.5
      vertex 4.94974 4.94974 -3.5
      vertex 6.46715 2.67877 -3.5
    endloop
  endfacet
  facet normal 0 0 1
    outer loop
      vertex 11.2228 14.073 -3.5
      vertex 2.67877 6.46715 -3.5
      vertex 4.94974 4.94974 -3.5
    endloop
  endfacet
  facet normal 0 0 1
    outer loop
      vertex -4.00537 17.5487 -3.5
      vertex 2.67877 6.46715 -3.5
      vertex 11.2228 14.073 -3.5
    endloop
  endfacet
  facet normal 0 0 1
    outer loop
      vertex 2.67877 6.46715 -3.5
      vertex -4.00537 17.5487 -3.5
      vertex 0 7 -3.5
    endloop
  endfacet
  facet normal 0 0 1
    outer loop
      vertex 0 7 -3.5
      vertex -4.00537 17.5487 -3.5
      vertex -2.67877 6.46715 -3.5
    endloop
  endfacet
  facet normal 0 0 1
    outer loop
      vertex -4.00537 17.5487 -3.5
      vertex -4.94974 4.94974 -3.5
      vertex -2.67877 6.46715 -3.5
    endloop
  endfacet
  facet normal -0 0 1
    outer loop
      vertex -16.2174 7.80991 -3.5
      vertex -4.94974 4.94974 -3.5
      vertex -4.00537 17.5487 -3.5
    endloop
  endfacet
  facet normal 0 0 1
    outer loop
      vertex -4.94974 4.94974 -3.5
      vertex -16.2174 7.80991 -3.5
      vertex -6.46715 2.67877 -3.5
    endloop
  endfacet
  facet normal 0 0 1
    outer loop
      vertex -6.46715 2.67877 -3.5
      vertex -16.2174 7.80991 -3.5
      vertex -7 0 -3.5
    endloop
  endfacet
  facet normal 0 0 1
    outer loop
      vertex 18 0 -3.5
      vertex 6.46715 -2.67877 -3.5
      vertex 11.2228 -14.073 -3.5
    endloop
  endfacet
  facet normal -0 0 1
    outer loop
      vertex 4.94974 -4.94974 -3.5
      vertex 11.2228 -14.073 -3.5
      vertex 6.46715 -2.67877 -3.5
    endloop
  endfacet
  facet normal -0 0 1
    outer loop
      vertex 2.67877 -6.46715 -3.5
      vertex 11.2228 -14.073 -3.5
      vertex 4.94974 -4.94974 -3.5
    endloop
  endfacet
  facet normal 0 0 1
    outer loop
      vertex -4.00537 -17.5487 -3.5
      vertex 2.67877 -6.46715 -3.5
      vertex 0 -7 -3.5
    endloop
  endfacet
  facet normal 0 0 1
    outer loop
      vertex -4.00537 -17.5487 -3.5
      vertex 0 -7 -3.5
      vertex -2.67877 -6.46715 -3.5
    endloop
  endfacet
  facet normal 0 0 1
    outer loop
      vertex 2.67877 -6.46715 -3.5
      vertex -4.00537 -17.5487 -3.5
      vertex 11.2228 -14.073 -3.5
    endloop
  endfacet
  facet normal 0 0 1
    outer loop
      vertex -4.94974 -4.94974 -3.5
      vertex -4.00537 -17.5487 -3.5
      vertex -2.67877 -6.46715 -3.5
    endloop
  endfacet
  facet normal 0 0 1
    outer loop
      vertex -16.2174 -7.80991 -3.5
      vertex -4.94974 -4.94974 -3.5
      vertex -6.46715 -2.67877 -3.5
    endloop
  endfacet
  facet normal 0 0 1
    outer loop
      vertex -16.2174 -7.80991 -3.5
      vertex -6.46715 -2.67877 -3.5
      vertex -7 0 -3.5
    endloop
  endfacet
  facet normal 0 0 1
    outer loop
      vertex -16.2174 -7.80991 -3.5
      vertex -7 0 -3.5
      vertex -16.2174 7.80991 -3.5
    endloop
  endfacet
  facet normal 0 0 1
    outer loop
      vertex -4.94974 -4.94974 -3.5
      vertex -16.2174 -7.80991 -3.5
      vertex -4.00537 -17.5487 -3.5
    endloop
  endfacet
  facet normal 0.900969 -0.433884 0
    outer loop
      vertex 11.2228 -14.073 -3.5
      vertex 18 0 -7.5
      vertex 18 0 -3.5
    endloop
  endfacet
  facet normal 0.900969 -0.433884 0
    outer loop
      vertex 18 0 -7.5
      vertex 11.2228 -14.073 -3.5
      vertex 11.2228 -14.073 -7.5
    endloop
  endfacet
  facet normal 0.900969 0.433884 0
    outer loop
      vertex 18 0 -3.5
      vertex 11.2228 14.073 -7.5
      vertex 11.2228 14.073 -3.5
    endloop
  endfacet
  facet normal 0.900969 0.433884 0
    outer loop
      vertex 11.2228 14.073 -7.5
      vertex 18 0 -3.5
      vertex 18 0 -7.5
    endloop
  endfacet
  facet normal 0.222521 0.974928 -0
    outer loop
      vertex 11.2228 14.073 -7.5
      vertex -4.00537 17.5487 -3.5
      vertex 11.2228 14.073 -3.5
    endloop
  endfacet
  facet normal 0.222521 0.974928 0
    outer loop
      vertex -4.00537 17.5487 -3.5
      vertex 11.2228 14.073 -7.5
      vertex -4.00537 17.5487 -7.5
    endloop
  endfacet
  facet normal -0.623489 0.781832 0
    outer loop
      vertex -4.00537 17.5487 -7.5
      vertex -16.2174 7.80991 -3.5
      vertex -4.00537 17.5487 -3.5
    endloop
  endfacet
  facet normal -0.623489 0.781832 0
    outer loop
      vertex -16.2174 7.80991 -3.5
      vertex -4.00537 17.5487 -7.5
      vertex -16.2174 7.80991 -7.5
    endloop
  endfacet
  facet normal -1 0 0
    outer loop
      vertex -16.2174 -7.80991 -7.5
      vertex -16.2174 7.80991 -3.5
      vertex -16.2174 7.80991 -7.5
    endloop
  endfacet
  facet normal -1 -0 0
    outer loop
      vertex -16.2174 7.80991 -3.5
      vertex -16.2174 -7.80991 -7.5
      vertex -16.2174 -7.80991 -3.5
    endloop
  endfacet
  facet normal -0.623489 -0.781832 0
    outer loop
      vertex -16.2174 -7.80991 -7.5
      vertex -4.00537 -17.5487 -3.5
      vertex -16.2174 -7.80991 -3.5
    endloop
  endfacet
  facet normal -0.623489 -0.781832 -0
    outer loop
      vertex -4.00537 -17.5487 -3.5
      vertex -16.2174 -7.80991 -7.5
      vertex -4.00537 -17.5487 -7.5
    endloop
  endfacet
  facet normal 0.222521 -0.974928 0
    outer loop
      vertex -4.00537 -17.5487 -7.5
      vertex 11.2228 -14.073 -3.5
      vertex -4.00537 -17.5487 -3.5
    endloop
  endfacet
  facet normal 0.222521 -0.974928 0
    outer loop
      vertex 11.2228 -14.073 -3.5
      vertex -4.00537 -17.5487 -7.5
      vertex 11.2228 -14.073 -7.5
    endloop
  endfacet
  facet normal 0 0 1
    outer loop
      vertex 5 0 -0.5
      vertex 7 0 -0.5
      vertex 6.46715 2.67877 -0.5
    endloop
  endfacet
  facet normal 0 0 1
    outer loop
      vertex 7 0 -0.5
      vertex 5 0 -0.5
      vertex 6.46715 -2.67877 -0.5
    endloop
  endfacet
  facet normal -0 0 1
    outer loop
      vertex 3.11745 3.90915 -0.5
      vertex 6.46715 2.67877 -0.5
      vertex 4.94974 4.94974 -0.5
    endloop
  endfacet
  facet normal 0 0 1
    outer loop
      vertex 6.46715 2.67877 -0.5
      vertex 3.11745 3.90915 -0.5
      vertex 5 0 -0.5
    endloop
  endfacet
  facet normal 0 0 1
    outer loop
      vertex 2.67877 6.46715 -0.5
      vertex 3.11745 3.90915 -0.5
      vertex 4.94974 4.94974 -0.5
    endloop
  endfacet
  facet normal 0 0 1
    outer loop
      vertex -1.11259 4.87463 -0.5
      vertex 2.67877 6.46715 -0.5
      vertex 0 7 -0.5
    endloop
  endfacet
  facet normal 0 0 1
    outer loop
      vertex 2.67877 6.46715 -0.5
      vertex -1.11259 4.87463 -0.5
      vertex 3.11745 3.90915 -0.5
    endloop
  endfacet
  facet normal -0 0 1
    outer loop
      vertex -2.67877 6.46715 -0.5
      vertex -1.11259 4.87463 -0.5
      vertex 0 7 -0.5
    endloop
  endfacet
  facet normal -0 0 1
    outer loop
      vertex -4.94974 4.94974 -0.5
      vertex -1.11259 4.87463 -0.5
      vertex -2.67877 6.46715 -0.5
    endloop
  endfacet
  facet normal -0 0 1
    outer loop
      vertex -6.46715 2.67877 -0.5
      vertex -4.50484 2.16942 -0.5
      vertex -4.94974 4.94974 -0.5
    endloop
  endfacet
  facet normal 0 0 1
    outer loop
      vertex -1.11259 4.87463 -0.5
      vertex -4.94974 4.94974 -0.5
      vertex -4.50484 2.16942 -0.5
    endloop
  endfacet
  facet normal 0 0 1
    outer loop
      vertex 3.11745 -3.90915 -0.5
      vertex 6.46715 -2.67877 -0.5
      vertex 5 0 -0.5
    endloop
  endfacet
  facet normal 0 0 1
    outer loop
      vertex 6.46715 -2.67877 -0.5
      vertex 3.11745 -3.90915 -0.5
      vertex 4.94974 -4.94974 -0.5
    endloop
  endfacet
  facet normal 0 0 1
    outer loop
      vertex 3.11745 -3.90915 -0.5
      vertex 2.67877 -6.46715 -0.5
      vertex 4.94974 -4.94974 -0.5
    endloop
  endfacet
  facet normal -0 0 1
    outer loop
      vertex -1.11259 -4.87463 -0.5
      vertex 2.67877 -6.46715 -0.5
      vertex 3.11745 -3.90915 -0.5
    endloop
  endfacet
  facet normal 0 0 1
    outer loop
      vertex 2.67877 -6.46715 -0.5
      vertex -1.11259 -4.87463 -0.5
      vertex 0 -7 -0.5
    endloop
  endfacet
  facet normal 0 0 1
    outer loop
      vertex -1.11259 -4.87463 -0.5
      vertex -2.67877 -6.46715 -0.5
      vertex 0 -7 -0.5
    endloop
  endfacet
  facet normal 0 0 1
    outer loop
      vertex -4.94974 -4.94974 -0.5
      vertex -1.11259 -4.87463 -0.5
      vertex -4.50484 -2.16942 -0.5
    endloop
  endfacet
  facet normal 0 0 1
    outer loop
      vertex -1.11259 -4.87463 -0.5
      vertex -4.94974 -4.94974 -0.5
      vertex -2.67877 -6.46715 -0.5
    endloop
  endfacet
  facet normal 0 0 1
    outer loop
      vertex -7 0 -0.5
      vertex -4.50484 2.16942 -0.5
      vertex -6.46715 2.67877 -0.5
    endloop
  endfacet
  facet normal 0 0 1
    outer loop
      vertex -4.50484 2.16942 -0.5
      vertex -7 0 -0.5
      vertex -4.50484 -2.16942 -0.5
    endloop
  endfacet
  facet normal 0 0 1
    outer loop
      vertex -4.50484 -2.16942 -0.5
      vertex -6.46715 -2.67877 -0.5
      vertex -4.94974 -4.94974 -0.5
    endloop
  endfacet
  facet normal 0 0 1
    outer loop
      vertex -4.50484 -2.16942 -0.5
      vertex -7 0 -0.5
      vertex -6.46715 -2.67877 -0.5
    endloop
  endfacet
  facet normal 0.55557 -0.83147 0
    outer loop
      vertex 2.67877 -6.46715 -3.5
      vertex 4.94974 -4.94974 -0.5
      vertex 2.67877 -6.46715 -0.5
    endloop
  endfacet
  facet normal 0.55557 -0.83147 0
    outer loop
      vertex 4.94974 -4.94974 -0.5
      vertex 2.67877 -6.46715 -3.5
      vertex 4.94974 -4.94974 -3.5
    endloop
  endfacet
  facet normal 0.83147 -0.55557 0
    outer loop
      vertex 4.94974 -4.94974 -0.5
      vertex 6.46715 -2.67877 -3.5
      vertex 6.46715 -2.67877 -0.5
    endloop
  endfacet
  facet normal 0.83147 -0.55557 0
    outer loop
      vertex 6.46715 -2.67877 -3.5
      vertex 4.94974 -4.94974 -0.5
      vertex 4.94974 -4.94974 -3.5
    endloop
  endfacet
  facet normal 0.980784 -0.195094 0
    outer loop
      vertex 6.46715 -2.67877 -0.5
      vertex 7 0 -3.5
      vertex 7 0 -0.5
    endloop
  endfacet
  facet normal 0.980784 -0.195094 0
    outer loop
      vertex 7 0 -3.5
      vertex 6.46715 -2.67877 -0.5
      vertex 6.46715 -2.67877 -3.5
    endloop
  endfacet
  facet normal 0.980784 0.195094 0
    outer loop
      vertex 7 0 -0.5
      vertex 6.46715 2.67877 -3.5
      vertex 6.46715 2.67877 -0.5
    endloop
  endfacet
  facet normal 0.980784 0.195094 0
    outer loop
      vertex 6.46715 2.67877 -3.5
      vertex 7 0 -0.5
      vertex 7 0 -3.5
    endloop
  endfacet
  facet normal 0.83147 0.55557 0
    outer loop
      vertex 6.46715 2.67877 -0.5
      vertex 4.94974 4.94974 -3.5
      vertex 4.94974 4.94974 -0.5
    endloop
  endfacet
  facet normal 0.83147 0.55557 0
    outer loop
      vertex 4.94974 4.94974 -3.5
      vertex 6.46715 2.67877 -0.5
      vertex 6.46715 2.67877 -3.5
    endloop
  endfacet
  facet normal 0.55557 0.83147 -0
    outer loop
      vertex 4.94974 4.94974 -3.5
      vertex 2.67877 6.46715 -0.5
      vertex 4.94974 4.94974 -0.5
    endloop
  endfacet
  facet normal 0.55557 0.83147 0
    outer loop
      vertex 2.67877 6.46715 -0.5
      vertex 4.94974 4.94974 -3.5
      vertex 2.67877 6.46715 -3.5
    endloop
  endfacet
  facet normal 0.195094 0.980784 -0
    outer loop
      vertex 2.67877 6.46715 -3.5
      vertex 0 7 -0.5
      vertex 2.67877 6.46715 -0.5
    endloop
  endfacet
  facet normal 0.195094 0.980784 0
    outer loop
      vertex 0 7 -0.5
      vertex 2.67877 6.46715 -3.5
      vertex 0 7 -3.5
    endloop
  endfacet
  facet normal -0.195094 0.980784 0
    outer loop
      vertex 0 7 -3.5
      vertex -2.67877 6.46715 -0.5
      vertex 0 7 -0.5
    endloop
  endfacet
  facet normal -0.195094 0.980784 0
    outer loop
      vertex -2.67877 6.46715 -0.5
      vertex 0 7 -3.5
      vertex -2.67877 6.46715 -3.5
    endloop
  endfacet
  facet normal -0.55557 0.83147 0
    outer loop
      vertex -2.67877 6.46715 -3.5
      vertex -4.94974 4.94974 -0.5
      vertex -2.67877 6.46715 -0.5
    endloop
  endfacet
  facet normal -0.55557 0.83147 0
    outer loop
      vertex -4.94974 4.94974 -0.5
      vertex -2.67877 6.46715 -3.5
      vertex -4.94974 4.94974 -3.5
    endloop
  endfacet
  facet normal -0.83147 0.55557 0
    outer loop
      vertex -6.46715 2.67877 -3.5
      vertex -4.94974 4.94974 -0.5
      vertex -4.94974 4.94974 -3.5
    endloop
  endfacet
  facet normal -0.83147 0.55557 0
    outer loop
      vertex -4.94974 4.94974 -0.5
      vertex -6.46715 2.67877 -3.5
      vertex -6.46715 2.67877 -0.5
    endloop
  endfacet
  facet normal -0.980784 0.195094 0
    outer loop
      vertex -7 0 -3.5
      vertex -6.46715 2.67877 -0.5
      vertex -6.46715 2.67877 -3.5
    endloop
  endfacet
  facet normal -0.980784 0.195094 0
    outer loop
      vertex -6.46715 2.67877 -0.5
      vertex -7 0 -3.5
      vertex -7 0 -0.5
    endloop
  endfacet
  facet normal -0.980784 -0.195094 0
    outer loop
      vertex -6.46715 -2.67877 -3.5
      vertex -7 0 -0.5
      vertex -7 0 -3.5
    endloop
  endfacet
  facet normal -0.980784 -0.195094 0
    outer loop
      vertex -7 0 -0.5
      vertex -6.46715 -2.67877 -3.5
      vertex -6.46715 -2.67877 -0.5
    endloop
  endfacet
  facet normal -0.83147 -0.55557 0
    outer loop
      vertex -4.94974 -4.94974 -3.5
      vertex -6.46715 -2.67877 -0.5
      vertex -6.46715 -2.67877 -3.5
    endloop
  endfacet
  facet normal -0.83147 -0.55557 0
    outer loop
      vertex -6.46715 -2.67877 -0.5
      vertex -4.94974 -4.94974 -3.5
      vertex -4.94974 -4.94974 -0.5
    endloop
  endfacet
  facet normal -0.55557 -0.83147 0
    outer loop
      vertex -4.94974 -4.94974 -3.5
      vertex -2.67877 -6.46715 -0.5
      vertex -4.94974 -4.94974 -0.5
    endloop
  endfacet
  facet normal -0.55557 -0.83147 -0
    outer loop
      vertex -2.67877 -6.46715 -0.5
      vertex -4.94974 -4.94974 -3.5
      vertex -2.67877 -6.46715 -3.5
    endloop
  endfacet
  facet normal -0.195094 -0.980784 0
    outer loop
      vertex -2.67877 -6.46715 -3.5
      vertex 0 -7 -0.5
      vertex -2.67877 -6.46715 -0.5
    endloop
  endfacet
  facet normal -0.195094 -0.980784 -0
    outer loop
      vertex 0 -7 -0.5
      vertex -2.67877 -6.46715 -3.5
      vertex 0 -7 -3.5
    endloop
  endfacet
  facet normal 0.195094 -0.980784 0
    outer loop
      vertex 0 -7 -3.5
      vertex 2.67877 -6.46715 -0.5
      vertex 0 -7 -0.5
    endloop
  endfacet
  facet normal 0.195094 -0.980784 0
    outer loop
      vertex 2.67877 -6.46715 -0.5
      vertex 0 -7 -3.5
      vertex 2.67877 -6.46715 -3.5
    endloop
  endfacet
  facet normal 0 0 -1
    outer loop
      vertex 5 0 4.5
      vertex 15 0 4.5
      vertex 13.7032 -6.10104 4.5
    endloop
  endfacet
  facet normal 0 0 -1
    outer loop
      vertex 3.11745 -3.90915 4.5
      vertex 13.7032 -6.10104 4.5
      vertex 10.037 -11.1472 4.5
    endloop
  endfacet
  facet normal 0 0 -1
    outer loop
      vertex 15 0 4.5
      vertex 5 0 4.5
      vertex 13.7032 6.10104 4.5
    endloop
  endfacet
  facet normal 0 0 -1
    outer loop
      vertex 3.11745 3.90915 4.5
      vertex 13.7032 6.10104 4.5
      vertex 5 0 4.5
    endloop
  endfacet
  facet normal 0 0 -1
    outer loop
      vertex 3.11745 -3.90915 4.5
      vertex 10.037 -11.1472 4.5
      vertex 4.63525 -14.2658 4.5
    endloop
  endfacet
  facet normal 0 0 -1
    outer loop
      vertex 13.7032 -6.10104 4.5
      vertex 3.11745 -3.90915 4.5
      vertex 5 0 4.5
    endloop
  endfacet
  facet normal 0 0 -1
    outer loop
      vertex 4.63525 -14.2658 4.5
      vertex -1.11259 -4.87463 4.5
      vertex 3.11745 -3.90915 4.5
    endloop
  endfacet
  facet normal 0 0 -1
    outer loop
      vertex -1.56792 -14.9178 4.5
      vertex -1.11259 -4.87463 4.5
      vertex 4.63525 -14.2658 4.5
    endloop
  endfacet
  facet normal 0 0 -1
    outer loop
      vertex -7.5 -12.9904 4.5
      vertex -1.11259 -4.87463 4.5
      vertex -1.56792 -14.9178 4.5
    endloop
  endfacet
  facet normal 0 0 -1
    outer loop
      vertex -14.6722 3.11867 4.5
      vertex -4.50484 2.16942 4.5
      vertex -4.50484 -2.16942 4.5
    endloop
  endfacet
  facet normal -0 0 -1
    outer loop
      vertex -1.11259 -4.87463 4.5
      vertex -7.5 -12.9904 4.5
      vertex -4.50484 -2.16942 4.5
    endloop
  endfacet
  facet normal 0 0 -1
    outer loop
      vertex -12.1353 -8.81677 4.5
      vertex -4.50484 -2.16942 4.5
      vertex -7.5 -12.9904 4.5
    endloop
  endfacet
  facet normal 0 0 -1
    outer loop
      vertex -14.6722 -3.11867 4.5
      vertex -4.50484 -2.16942 4.5
      vertex -12.1353 -8.81677 4.5
    endloop
  endfacet
  facet normal 0 0 -1
    outer loop
      vertex -4.50484 2.16942 4.5
      vertex -12.1353 8.81677 4.5
      vertex -7.49998 12.9904 4.5
    endloop
  endfacet
  facet normal 0 0 -1
    outer loop
      vertex -14.6722 3.11867 4.5
      vertex -4.50484 -2.16942 4.5
      vertex -14.6722 -3.11867 4.5
    endloop
  endfacet
  facet normal 0 0 -1
    outer loop
      vertex -4.50484 2.16942 4.5
      vertex -14.6722 3.11867 4.5
      vertex -12.1353 8.81677 4.5
    endloop
  endfacet
  facet normal -0 0 -1
    outer loop
      vertex 13.7032 6.10104 4.5
      vertex 3.11745 3.90915 4.5
      vertex 10.037 11.1472 4.5
    endloop
  endfacet
  facet normal -0 0 -1
    outer loop
      vertex 10.037 11.1472 4.5
      vertex 3.11745 3.90915 4.5
      vertex 4.63525 14.2658 4.5
    endloop
  endfacet
  facet normal 0 0 -1
    outer loop
      vertex -1.11259 4.87463 4.5
      vertex 4.63525 14.2658 4.5
      vertex 3.11745 3.90915 4.5
    endloop
  endfacet
  facet normal 0 0 -1
    outer loop
      vertex -1.11259 4.87463 4.5
      vertex -1.56792 14.9178 4.5
      vertex 4.63525 14.2658 4.5
    endloop
  endfacet
  facet normal 0 0 -1
    outer loop
      vertex -7.49998 12.9904 4.5
      vertex -1.11259 4.87463 4.5
      vertex -4.50484 2.16942 4.5
    endloop
  endfacet
  facet normal 0 0 -1
    outer loop
      vertex -1.11259 4.87463 4.5
      vertex -7.49998 12.9904 4.5
      vertex -1.56792 14.9178 4.5
    endloop
  endfacet
  facet normal 0.900968 -0.433885 0
    outer loop
      vertex 3.11745 -3.90915 4.5
      vertex 5 0 -0.5
      vertex 5 0 4.5
    endloop
  endfacet
  facet normal 0.900968 -0.433885 0
    outer loop
      vertex 5 0 -0.5
      vertex 3.11745 -3.90915 4.5
      vertex 3.11745 -3.90915 -0.5
    endloop
  endfacet
  facet normal 0.900968 0.433885 0
    outer loop
      vertex 5 0 4.5
      vertex 3.11745 3.90915 -0.5
      vertex 3.11745 3.90915 4.5
    endloop
  endfacet
  facet normal 0.900968 0.433885 0
    outer loop
      vertex 3.11745 3.90915 -0.5
      vertex 5 0 4.5
      vertex 5 0 -0.5
    endloop
  endfacet
  facet normal 0.222522 0.974928 -0
    outer loop
      vertex 3.11745 3.90915 -0.5
      vertex -1.11259 4.87463 4.5
      vertex 3.11745 3.90915 4.5
    endloop
  endfacet
  facet normal 0.222522 0.974928 0
    outer loop
      vertex -1.11259 4.87463 4.5
      vertex 3.11745 3.90915 -0.5
      vertex -1.11259 4.87463 -0.5
    endloop
  endfacet
  facet normal -0.623489 0.781832 0
    outer loop
      vertex -1.11259 4.87463 -0.5
      vertex -4.50484 2.16942 4.5
      vertex -1.11259 4.87463 4.5
    endloop
  endfacet
  facet normal -0.623489 0.781832 0
    outer loop
      vertex -4.50484 2.16942 4.5
      vertex -1.11259 4.87463 -0.5
      vertex -4.50484 2.16942 -0.5
    endloop
  endfacet
  facet normal -1 0 0
    outer loop
      vertex -4.50484 -2.16942 -0.5
      vertex -4.50484 2.16942 4.5
      vertex -4.50484 2.16942 -0.5
    endloop
  endfacet
  facet normal -1 -0 0
    outer loop
      vertex -4.50484 2.16942 4.5
      vertex -4.50484 -2.16942 -0.5
      vertex -4.50484 -2.16942 4.5
    endloop
  endfacet
  facet normal -0.623489 -0.781832 0
    outer loop
      vertex -4.50484 -2.16942 -0.5
      vertex -1.11259 -4.87463 4.5
      vertex -4.50484 -2.16942 4.5
    endloop
  endfacet
  facet normal -0.623489 -0.781832 -0
    outer loop
      vertex -1.11259 -4.87463 4.5
      vertex -4.50484 -2.16942 -0.5
      vertex -1.11259 -4.87463 -0.5
    endloop
  endfacet
  facet normal 0.222522 -0.974928 0
    outer loop
      vertex -1.11259 -4.87463 -0.5
      vertex 3.11745 -3.90915 4.5
      vertex -1.11259 -4.87463 4.5
    endloop
  endfacet
  facet normal 0.222522 -0.974928 0
    outer loop
      vertex 3.11745 -3.90915 4.5
      vertex -1.11259 -4.87463 -0.5
      vertex 3.11745 -3.90915 -0.5
    endloop
  endfacet
  facet normal -0 0 1
    outer loop
      vertex 2.93443 0.623734 9.5
      vertex 15 0 9.5
      vertex 13.7032 6.10104 9.5
    endloop
  endfacet
  facet normal 0 0 1
    outer loop
      vertex 2.42705 1.76335 9.5
      vertex 13.7032 6.10104 9.5
      vertex 10.037 11.1472 9.5
    endloop
  endfacet
  facet normal 0 0 1
    outer loop
      vertex 15 0 9.5
      vertex 2.93443 0.623734 9.5
      vertex 3 0 9.5
    endloop
  endfacet
  facet normal 0 0 1
    outer loop
      vertex 1.5 2.59807 9.5
      vertex 10.037 11.1472 9.5
      vertex 4.63525 14.2658 9.5
    endloop
  endfacet
  facet normal 0 0 1
    outer loop
      vertex 2.93443 -0.623734 9.5
      vertex 15 0 9.5
      vertex 3 0 9.5
    endloop
  endfacet
  facet normal -0 0 1
    outer loop
      vertex 2.74063 -1.2202 9.5
      vertex 13.7032 -6.10104 9.5
      vertex 2.93443 -0.623734 9.5
    endloop
  endfacet
  facet normal 0 0 1
    outer loop
      vertex 15 0 9.5
      vertex 2.93443 -0.623734 9.5
      vertex 13.7032 -6.10104 9.5
    endloop
  endfacet
  facet normal 0 0 1
    outer loop
      vertex 13.7032 6.10104 9.5
      vertex 2.74063 1.2202 9.5
      vertex 2.93443 0.623734 9.5
    endloop
  endfacet
  facet normal 0 0 1
    outer loop
      vertex 13.7032 6.10104 9.5
      vertex 2.42705 1.76335 9.5
      vertex 2.74063 1.2202 9.5
    endloop
  endfacet
  facet normal 0 0 1
    outer loop
      vertex 10.037 11.1472 9.5
      vertex 2.00739 2.22943 9.5
      vertex 2.42705 1.76335 9.5
    endloop
  endfacet
  facet normal 0 0 1
    outer loop
      vertex 10.037 11.1472 9.5
      vertex 1.5 2.59807 9.5
      vertex 2.00739 2.22943 9.5
    endloop
  endfacet
  facet normal 0 0 1
    outer loop
      vertex 4.63525 14.2658 9.5
      vertex 0.927048 2.85316 9.5
      vertex 1.5 2.59807 9.5
    endloop
  endfacet
  facet normal 0 0 1
    outer loop
      vertex 4.63525 14.2658 9.5
      vertex 0.313583 2.98355 9.5
      vertex 0.927048 2.85316 9.5
    endloop
  endfacet
  facet normal 0 0 1
    outer loop
      vertex -1.56792 14.9178 9.5
      vertex 0.313583 2.98355 9.5
      vertex 4.63525 14.2658 9.5
    endloop
  endfacet
  facet normal 0 0 1
    outer loop
      vertex 0.313583 2.98355 9.5
      vertex -1.56792 14.9178 9.5
      vertex -0.313583 2.98355 9.5
    endloop
  endfacet
  facet normal 0 0 1
    outer loop
      vertex -0.313583 2.98355 9.5
      vertex -1.56792 14.9178 9.5
      vertex -0.927048 2.85316 9.5
    endloop
  endfacet
  facet normal -0 0 1
    outer loop
      vertex -7.49998 12.9904 9.5
      vertex -0.927048 2.85316 9.5
      vertex -1.56792 14.9178 9.5
    endloop
  endfacet
  facet normal 0 0 1
    outer loop
      vertex -0.927048 2.85316 9.5
      vertex -7.49998 12.9904 9.5
      vertex -1.49998 2.59807 9.5
    endloop
  endfacet
  facet normal 0 0 1
    outer loop
      vertex -1.49998 2.59807 9.5
      vertex -7.49998 12.9904 9.5
      vertex -2.00739 2.22943 9.5
    endloop
  endfacet
  facet normal -0 0 1
    outer loop
      vertex -12.1353 8.81677 9.5
      vertex -2.00739 2.22943 9.5
      vertex -7.49998 12.9904 9.5
    endloop
  endfacet
  facet normal 0 0 1
    outer loop
      vertex -2.00739 2.22943 9.5
      vertex -12.1353 8.81677 9.5
      vertex -2.42705 1.76335 9.5
    endloop
  endfacet
  facet normal 0 0 1
    outer loop
      vertex -2.42705 1.76335 9.5
      vertex -12.1353 8.81677 9.5
      vertex -2.74063 1.2202 9.5
    endloop
  endfacet
  facet normal -0 0 1
    outer loop
      vertex -14.6722 3.11867 9.5
      vertex -2.74063 1.2202 9.5
      vertex -12.1353 8.81677 9.5
    endloop
  endfacet
  facet normal -0 0 1
    outer loop
      vertex 2.42705 -1.76335 9.5
      vertex 13.7032 -6.10104 9.5
      vertex 2.74063 -1.2202 9.5
    endloop
  endfacet
  facet normal 0 0 1
    outer loop
      vertex 13.7032 -6.10104 9.5
      vertex 2.42705 -1.76335 9.5
      vertex 10.037 -11.1472 9.5
    endloop
  endfacet
  facet normal -0 0 1
    outer loop
      vertex 2.00739 -2.22943 9.5
      vertex 10.037 -11.1472 9.5
      vertex 2.42705 -1.76335 9.5
    endloop
  endfacet
  facet normal -0 0 1
    outer loop
      vertex 1.5 -2.59807 9.5
      vertex 10.037 -11.1472 9.5
      vertex 2.00739 -2.22943 9.5
    endloop
  endfacet
  facet normal 0 0 1
    outer loop
      vertex 10.037 -11.1472 9.5
      vertex 1.5 -2.59807 9.5
      vertex 4.63525 -14.2658 9.5
    endloop
  endfacet
  facet normal -0 0 1
    outer loop
      vertex 0.927048 -2.85316 9.5
      vertex 4.63525 -14.2658 9.5
      vertex 1.5 -2.59807 9.5
    endloop
  endfacet
  facet normal -0 0 1
    outer loop
      vertex 0.313583 -2.98355 9.5
      vertex 4.63525 -14.2658 9.5
      vertex 0.927048 -2.85316 9.5
    endloop
  endfacet
  facet normal 0 0 1
    outer loop
      vertex -1.56792 -14.9178 9.5
      vertex 0.313583 -2.98355 9.5
      vertex -0.313583 -2.98355 9.5
    endloop
  endfacet
  facet normal 0 0 1
    outer loop
      vertex -1.56792 -14.9178 9.5
      vertex -0.313583 -2.98355 9.5
      vertex -0.927048 -2.85316 9.5
    endloop
  endfacet
  facet normal 0 0 1
    outer loop
      vertex -7.5 -12.9904 9.5
      vertex -0.927048 -2.85316 9.5
      vertex -1.5 -2.59807 9.5
    endloop
  endfacet
  facet normal 0 0 1
    outer loop
      vertex 0.313583 -2.98355 9.5
      vertex -1.56792 -14.9178 9.5
      vertex 4.63525 -14.2658 9.5
    endloop
  endfacet
  facet normal 0 0 1
    outer loop
      vertex -7.5 -12.9904 9.5
      vertex -1.5 -2.59807 9.5
      vertex -2.00739 -2.22943 9.5
    endloop
  endfacet
  facet normal 0 0 1
    outer loop
      vertex -12.1353 -8.81677 9.5
      vertex -2.00739 -2.22943 9.5
      vertex -2.42705 -1.76335 9.5
    endloop
  endfacet
  facet normal 0 0 1
    outer loop
      vertex -12.1353 -8.81677 9.5
      vertex -2.42705 -1.76335 9.5
      vertex -2.74063 -1.2202 9.5
    endloop
  endfacet
  facet normal 0 0 1
    outer loop
      vertex -14.6722 -3.11867 9.5
      vertex -2.74063 -1.2202 9.5
      vertex -2.93443 -0.623734 9.5
    endloop
  endfacet
  facet normal 0 0 1
    outer loop
      vertex -14.6722 -3.11867 9.5
      vertex -2.93443 -0.623734 9.5
      vertex -3 0 9.5
    endloop
  endfacet
  facet normal 0 0 1
    outer loop
      vertex -2.74063 1.2202 9.5
      vertex -14.6722 3.11867 9.5
      vertex -2.93443 0.623734 9.5
    endloop
  endfacet
  facet normal 0 0 1
    outer loop
      vertex -0.927048 -2.85316 9.5
      vertex -7.5 -12.9904 9.5
      vertex -1.56792 -14.9178 9.5
    endloop
  endfacet
  facet normal 0 0 1
    outer loop
      vertex -2.93443 0.623734 9.5
      vertex -14.6722 3.11867 9.5
      vertex -3 0 9.5
    endloop
  endfacet
  facet normal 0 0 1
    outer loop
      vertex -2.00739 -2.22943 9.5
      vertex -12.1353 -8.81677 9.5
      vertex -7.5 -12.9904 9.5
    endloop
  endfacet
  facet normal 0 0 1
    outer loop
      vertex -14.6722 -3.11867 9.5
      vertex -3 0 9.5
      vertex -14.6722 3.11867 9.5
    endloop
  endfacet
  facet normal 0 0 1
    outer loop
      vertex -2.74063 -1.2202 9.5
      vertex -14.6722 -3.11867 9.5
      vertex -12.1353 -8.81677 9.5
    endloop
  endfacet
  facet normal 0.499999 -0.866026 0
    outer loop
      vertex 4.63525 -14.2658 4.5
      vertex 10.037 -11.1472 9.5
      vertex 4.63525 -14.2658 9.5
    endloop
  endfacet
  facet normal 0.499999 -0.866026 0
    outer loop
      vertex 10.037 -11.1472 9.5
      vertex 4.63525 -14.2658 4.5
      vertex 10.037 -11.1472 4.5
    endloop
  endfacet
  facet normal 0.809018 -0.587784 0
    outer loop
      vertex 10.037 -11.1472 9.5
      vertex 13.7032 -6.10104 4.5
      vertex 13.7032 -6.10104 9.5
    endloop
  endfacet
  facet normal 0.809018 -0.587784 0
    outer loop
      vertex 13.7032 -6.10104 4.5
      vertex 10.037 -11.1472 9.5
      vertex 10.037 -11.1472 4.5
    endloop
  endfacet
  facet normal 0.978147 -0.207914 0
    outer loop
      vertex 13.7032 -6.10104 9.5
      vertex 15 0 4.5
      vertex 15 0 9.5
    endloop
  endfacet
  facet normal 0.978147 -0.207914 0
    outer loop
      vertex 15 0 4.5
      vertex 13.7032 -6.10104 9.5
      vertex 13.7032 -6.10104 4.5
    endloop
  endfacet
  facet normal 0.978147 0.207914 0
    outer loop
      vertex 15 0 9.5
      vertex 13.7032 6.10104 4.5
      vertex 13.7032 6.10104 9.5
    endloop
  endfacet
  facet normal 0.978147 0.207914 0
    outer loop
      vertex 13.7032 6.10104 4.5
      vertex 15 0 9.5
      vertex 15 0 4.5
    endloop
  endfacet
  facet normal 0.809018 0.587784 0
    outer loop
      vertex 13.7032 6.10104 9.5
      vertex 10.037 11.1472 4.5
      vertex 10.037 11.1472 9.5
    endloop
  endfacet
  facet normal 0.809018 0.587784 0
    outer loop
      vertex 10.037 11.1472 4.5
      vertex 13.7032 6.10104 9.5
      vertex 13.7032 6.10104 4.5
    endloop
  endfacet
  facet normal 0.499999 0.866026 -0
    outer loop
      vertex 10.037 11.1472 4.5
      vertex 4.63525 14.2658 9.5
      vertex 10.037 11.1472 9.5
    endloop
  endfacet
  facet normal 0.499999 0.866026 0
    outer loop
      vertex 4.63525 14.2658 9.5
      vertex 10.037 11.1472 4.5
      vertex 4.63525 14.2658 4.5
    endloop
  endfacet
  facet normal 0.104528 0.994522 -0
    outer loop
      vertex 4.63525 14.2658 4.5
      vertex -1.56792 14.9178 9.5
      vertex 4.63525 14.2658 9.5
    endloop
  endfacet
  facet normal 0.104528 0.994522 0
    outer loop
      vertex -1.56792 14.9178 9.5
      vertex 4.63525 14.2658 4.5
      vertex -1.56792 14.9178 4.5
    endloop
  endfacet
  facet normal -0.309017 0.951057 0
    outer loop
      vertex -1.56792 14.9178 4.5
      vertex -7.49998 12.9904 9.5
      vertex -1.56792 14.9178 9.5
    endloop
  endfacet
  facet normal -0.309017 0.951057 0
    outer loop
      vertex -7.49998 12.9904 9.5
      vertex -1.56792 14.9178 4.5
      vertex -7.49998 12.9904 4.5
    endloop
  endfacet
  facet normal -0.669129 0.743146 0
    outer loop
      vertex -7.49998 12.9904 4.5
      vertex -12.1353 8.81677 9.5
      vertex -7.49998 12.9904 9.5
    endloop
  endfacet
  facet normal -0.669129 0.743146 0
    outer loop
      vertex -12.1353 8.81677 9.5
      vertex -7.49998 12.9904 4.5
      vertex -12.1353 8.81677 4.5
    endloop
  endfacet
  facet normal -0.913546 0.406736 0
    outer loop
      vertex -14.6722 3.11867 4.5
      vertex -12.1353 8.81677 9.5
      vertex -12.1353 8.81677 4.5
    endloop
  endfacet
  facet normal -0.913546 0.406736 0
    outer loop
      vertex -12.1353 8.81677 9.5
      vertex -14.6722 3.11867 4.5
      vertex -14.6722 3.11867 9.5
    endloop
  endfacet
  facet normal -1 0 0
    outer loop
      vertex -14.6722 -3.11867 4.5
      vertex -14.6722 3.11867 9.5
      vertex -14.6722 3.11867 4.5
    endloop
  endfacet
  facet normal -1 -0 0
    outer loop
      vertex -14.6722 3.11867 9.5
      vertex -14.6722 -3.11867 4.5
      vertex -14.6722 -3.11867 9.5
    endloop
  endfacet
  facet normal -0.913546 -0.406736 0
    outer loop
      vertex -12.1353 -8.81677 4.5
      vertex -14.6722 -3.11867 9.5
      vertex -14.6722 -3.11867 4.5
    endloop
  endfacet
  facet normal -0.913546 -0.406736 0
    outer loop
      vertex -14.6722 -3.11867 9.5
      vertex -12.1353 -8.81677 4.5
      vertex -12.1353 -8.81677 9.5
    endloop
  endfacet
  facet normal -0.66913 -0.743145 0
    outer loop
      vertex -12.1353 -8.81677 4.5
      vertex -7.5 -12.9904 9.5
      vertex -12.1353 -8.81677 9.5
    endloop
  endfacet
  facet normal -0.66913 -0.743145 -0
    outer loop
      vertex -7.5 -12.9904 9.5
      vertex -12.1353 -8.81677 4.5
      vertex -7.5 -12.9904 4.5
    endloop
  endfacet
  facet normal -0.309016 -0.951057 0
    outer loop
      vertex -7.5 -12.9904 4.5
      vertex -1.56792 -14.9178 9.5
      vertex -7.5 -12.9904 9.5
    endloop
  endfacet
  facet normal -0.309016 -0.951057 -0
    outer loop
      vertex -1.56792 -14.9178 9.5
      vertex -7.5 -12.9904 4.5
      vertex -1.56792 -14.9178 4.5
    endloop
  endfacet
  facet normal 0.104528 -0.994522 0
    outer loop
      vertex -1.56792 -14.9178 4.5
      vertex 4.63525 -14.2658 9.5
      vertex -1.56792 -14.9178 9.5
    endloop
  endfacet
  facet normal 0.104528 -0.994522 0
    outer loop
      vertex 4.63525 -14.2658 9.5
      vertex -1.56792 -14.9178 4.5
      vertex 4.63525 -14.2658 4.5
    endloop
  endfacet
  facet normal 0 0 1
    outer loop
      vertex 2.93443 0.623734 -6.5
      vertex 2.93443 -0.623734 -6.5
      vertex 3 0 -6.5
    endloop
  endfacet
  facet normal 0 0 1
    outer loop
      vertex 2.74063 1.2202 -6.5
      vertex 2.93443 -0.623734 -6.5
      vertex 2.93443 0.623734 -6.5
    endloop
  endfacet
  facet normal 0 0 1
    outer loop
      vertex 2.74063 1.2202 -6.5
      vertex 2.74063 -1.2202 -6.5
      vertex 2.93443 -0.623734 -6.5
    endloop
  endfacet
  facet normal 0 0 1
    outer loop
      vertex 2.42705 1.76335 -6.5
      vertex 2.74063 -1.2202 -6.5
      vertex 2.74063 1.2202 -6.5
    endloop
  endfacet
  facet normal 0 0 1
    outer loop
      vertex 2.42705 1.76335 -6.5
      vertex 2.42705 -1.76335 -6.5
      vertex 2.74063 -1.2202 -6.5
    endloop
  endfacet
  facet normal 0 0 1
    outer loop
      vertex 2.00739 2.22943 -6.5
      vertex 2.42705 -1.76335 -6.5
      vertex 2.42705 1.76335 -6.5
    endloop
  endfacet
  facet normal 0 0 1
    outer loop
      vertex 2.00739 2.22943 -6.5
      vertex 2.00739 -2.22943 -6.5
      vertex 2.42705 -1.76335 -6.5
    endloop
  endfacet
  facet normal 0 0 1
    outer loop
      vertex 1.5 2.59807 -6.5
      vertex 2.00739 -2.22943 -6.5
      vertex 2.00739 2.22943 -6.5
    endloop
  endfacet
  facet normal 0 0 1
    outer loop
      vertex 1.5 2.59807 -6.5
      vertex 1.5 -2.59807 -6.5
      vertex 2.00739 -2.22943 -6.5
    endloop
  endfacet
  facet normal 0 0 1
    outer loop
      vertex 0.927048 2.85316 -6.5
      vertex 1.5 -2.59807 -6.5
      vertex 1.5 2.59807 -6.5
    endloop
  endfacet
  facet normal 0 0 1
    outer loop
      vertex 0.927048 2.85316 -6.5
      vertex 0.927048 -2.85316 -6.5
      vertex 1.5 -2.59807 -6.5
    endloop
  endfacet
  facet normal 0 0 1
    outer loop
      vertex 0.313583 2.98355 -6.5
      vertex 0.927048 -2.85316 -6.5
      vertex 0.927048 2.85316 -6.5
    endloop
  endfacet
  facet normal 0 0 1
    outer loop
      vertex 0.313583 2.98355 -6.5
      vertex 0.313583 -2.98355 -6.5
      vertex 0.927048 -2.85316 -6.5
    endloop
  endfacet
  facet normal -0 0 1
    outer loop
      vertex -0.313583 2.98355 -6.5
      vertex 0.313583 -2.98355 -6.5
      vertex 0.313583 2.98355 -6.5
    endloop
  endfacet
  facet normal 0 0 1
    outer loop
      vertex -0.313583 2.98355 -6.5
      vertex -0.313583 -2.98355 -6.5
      vertex 0.313583 -2.98355 -6.5
    endloop
  endfacet
  facet normal -0 0 1
    outer loop
      vertex -0.927048 2.85316 -6.5
      vertex -0.313583 -2.98355 -6.5
      vertex -0.313583 2.98355 -6.5
    endloop
  endfacet
  facet normal 0 0 1
    outer loop
      vertex -0.927048 2.85316 -6.5
      vertex -0.927048 -2.85316 -6.5
      vertex -0.313583 -2.98355 -6.5
    endloop
  endfacet
  facet normal -0 0 1
    outer loop
      vertex -1.49998 2.59807 -6.5
      vertex -0.927048 -2.85316 -6.5
      vertex -0.927048 2.85316 -6.5
    endloop
  endfacet
  facet normal 0 0 1
    outer loop
      vertex -1.49998 2.59807 -6.5
      vertex -1.5 -2.59807 -6.5
      vertex -0.927048 -2.85316 -6.5
    endloop
  endfacet
  facet normal -0 0 1
    outer loop
      vertex -2.00739 2.22943 -6.5
      vertex -1.5 -2.59807 -6.5
      vertex -1.49998 2.59807 -6.5
    endloop
  endfacet
  facet normal 0 0 1
    outer loop
      vertex -2.00739 2.22943 -6.5
      vertex -2.00739 -2.22943 -6.5
      vertex -1.5 -2.59807 -6.5
    endloop
  endfacet
  facet normal -0 0 1
    outer loop
      vertex -2.42705 1.76335 -6.5
      vertex -2.00739 -2.22943 -6.5
      vertex -2.00739 2.22943 -6.5
    endloop
  endfacet
  facet normal 0 0 1
    outer loop
      vertex -2.42705 1.76335 -6.5
      vertex -2.42705 -1.76335 -6.5
      vertex -2.00739 -2.22943 -6.5
    endloop
  endfacet
  facet normal -0 0 1
    outer loop
      vertex -2.74063 1.2202 -6.5
      vertex -2.42705 -1.76335 -6.5
      vertex -2.42705 1.76335 -6.5
    endloop
  endfacet
  facet normal 0 0 1
    outer loop
      vertex -2.74063 1.2202 -6.5
      vertex -2.74063 -1.2202 -6.5
      vertex -2.42705 -1.76335 -6.5
    endloop
  endfacet
  facet normal -0 0 1
    outer loop
      vertex -2.93443 0.623734 -6.5
      vertex -2.74063 -1.2202 -6.5
      vertex -2.74063 1.2202 -6.5
    endloop
  endfacet
  facet normal 0 0 1
    outer loop
      vertex -2.93443 0.623734 -6.5
      vertex -2.93443 -0.623734 -6.5
      vertex -2.74063 -1.2202 -6.5
    endloop
  endfacet
  facet normal 0 -0 1
    outer loop
      vertex -2.93443 -0.623734 -6.5
      vertex -2.93443 0.623734 -6.5
      vertex -3 0 -6.5
    endloop
  endfacet
endsolid OpenSCAD_Model
