solid OpenSCAD_Model
  facet normal 0.994522 0.104528 0
    outer loop
      vertex 10 0 20
      vertex 9.78148 2.07912 -20
      vertex 9.78148 2.07912 20
    endloop
  endfacet
  facet normal 0.994522 0.104528 0
    outer loop
      vertex 9.78148 2.07912 -20
      vertex 10 0 20
      vertex 10 0 -20
    endloop
  endfacet
  facet normal 0.951056 0.309017 0
    outer loop
      vertex 9.78148 2.07912 20
      vertex 9.13545 4.06737 -20
      vertex 9.13545 4.06737 20
    endloop
  endfacet
  facet normal 0.951056 0.309017 0
    outer loop
      vertex 9.13545 4.06737 -20
      vertex 9.78148 2.07912 20
      vertex 9.78148 2.07912 -20
    endloop
  endfacet
  facet normal 0.866025 0.5 0
    outer loop
      vertex 9.13545 4.06737 20
      vertex 8.09017 5.87785 -20
      vertex 8.09017 5.87785 20
    endloop
  endfacet
  facet normal 0.866025 0.5 0
    outer loop
      vertex 8.09017 5.87785 -20
      vertex 9.13545 4.06737 20
      vertex 9.13545 4.06737 -20
    endloop
  endfacet
  facet normal 0.743145 0.669131 0
    outer loop
      vertex 8.09017 5.87785 20
      vertex 6.69131 7.43145 -20
      vertex 6.69131 7.43145 20
    endloop
  endfacet
  facet normal 0.743145 0.669131 0
    outer loop
      vertex 6.69131 7.43145 -20
      vertex 8.09017 5.87785 20
      vertex 8.09017 5.87785 -20
    endloop
  endfacet
  facet normal 0.587785 0.809017 -0
    outer loop
      vertex 6.69131 7.43145 -20
      vertex 5 8.66025 20
      vertex 6.69131 7.43145 20
    endloop
  endfacet
  facet normal 0.587785 0.809017 0
    outer loop
      vertex 5 8.66025 20
      vertex 6.69131 7.43145 -20
      vertex 5 8.66025 -20
    endloop
  endfacet
  facet normal 0.406736 0.913546 -0
    outer loop
      vertex 5 8.66025 -20
      vertex 3.09017 9.51056 20
      vertex 5 8.66025 20
    endloop
  endfacet
  facet normal 0.406736 0.913546 0
    outer loop
      vertex 3.09017 9.51056 20
      vertex 5 8.66025 -20
      vertex 3.09017 9.51056 -20
    endloop
  endfacet
  facet normal 0.207912 0.978148 -0
    outer loop
      vertex 3.09017 9.51056 -20
      vertex 1.04528 9.94522 20
      vertex 3.09017 9.51056 20
    endloop
  endfacet
  facet normal 0.207912 0.978148 0
    outer loop
      vertex 1.04528 9.94522 20
      vertex 3.09017 9.51056 -20
      vertex 1.04528 9.94522 -20
    endloop
  endfacet
  facet normal 0 1 -0
    outer loop
      vertex 1.04528 9.94522 -20
      vertex -1.04528 9.94522 20
      vertex 1.04528 9.94522 20
    endloop
  endfacet
  facet normal 0 1 0
    outer loop
      vertex -1.04528 9.94522 20
      vertex 1.04528 9.94522 -20
      vertex -1.04528 9.94522 -20
    endloop
  endfacet
  facet normal -0.207912 0.978148 0
    outer loop
      vertex -1.04528 9.94522 -20
      vertex -3.09017 9.51056 20
      vertex -1.04528 9.94522 20
    endloop
  endfacet
  facet normal -0.207912 0.978148 0
    outer loop
      vertex -3.09017 9.51056 20
      vertex -1.04528 9.94522 -20
      vertex -3.09017 9.51056 -20
    endloop
  endfacet
  facet normal -0.406736 0.913546 0
    outer loop
      vertex -3.09017 9.51056 -20
      vertex -5 8.66025 20
      vertex -3.09017 9.51056 20
    endloop
  endfacet
  facet normal -0.406736 0.913546 0
    outer loop
      vertex -5 8.66025 20
      vertex -3.09017 9.51056 -20
      vertex -5 8.66025 -20
    endloop
  endfacet
  facet normal -0.587785 0.809017 0
    outer loop
      vertex -5 8.66025 -20
      vertex -6.69131 7.43145 20
      vertex -5 8.66025 20
    endloop
  endfacet
  facet normal -0.587785 0.809017 0
    outer loop
      vertex -6.69131 7.43145 20
      vertex -5 8.66025 -20
      vertex -6.69131 7.43145 -20
    endloop
  endfacet
  facet normal -0.743145 0.669131 0
    outer loop
      vertex -8.09017 5.87785 -20
      vertex -6.69131 7.43145 20
      vertex -6.69131 7.43145 -20
    endloop
  endfacet
  facet normal -0.743145 0.669131 0
    outer loop
      vertex -6.69131 7.43145 20
      vertex -8.09017 5.87785 -20
      vertex -8.09017 5.87785 20
    endloop
  endfacet
  facet normal -0.866025 0.5 0
    outer loop
      vertex -9.13545 4.06737 -20
      vertex -8.09017 5.87785 20
      vertex -8.09017 5.87785 -20
    endloop
  endfacet
  facet normal -0.866025 0.5 0
    outer loop
      vertex -8.09017 5.87785 20
      vertex -9.13545 4.06737 -20
      vertex -9.13545 4.06737 20
    endloop
  endfacet
  facet normal -0.951056 0.309017 0
    outer loop
      vertex -9.78148 2.07912 -20
      vertex -9.13545 4.06737 20
      vertex -9.13545 4.06737 -20
    endloop
  endfacet
  facet normal -0.951056 0.309017 0
    outer loop
      vertex -9.13545 4.06737 20
      vertex -9.78148 2.07912 -20
      vertex -9.78148 2.07912 20
    endloop
  endfacet
  facet normal -0.994522 0.104528 0
    outer loop
      vertex -10 5.66554e-15 -20
      vertex -9.78148 2.07912 20
      vertex -9.78148 2.07912 -20
    endloop
  endfacet
  facet normal -0.994522 0.104528 0
    outer loop
      vertex -9.78148 2.07912 20
      vertex -10 5.66554e-15 -20
      vertex -10 5.66554e-15 20
    endloop
  endfacet
  facet normal -0.994522 -0.104528 0
    outer loop
      vertex -9.78148 -2.07912 -20
      vertex -10 5.66554e-15 20
      vertex -10 5.66554e-15 -20
    endloop
  endfacet
  facet normal -0.994522 -0.104528 0
    outer loop
      vertex -10 5.66554e-15 20
      vertex -9.78148 -2.07912 -20
      vertex -9.78148 -2.07912 20
    endloop
  endfacet
  facet normal -0.951056 -0.309017 0
    outer loop
      vertex -9.13545 -4.06737 -20
      vertex -9.78148 -2.07912 20
      vertex -9.78148 -2.07912 -20
    endloop
  endfacet
  facet normal -0.951056 -0.309017 0
    outer loop
      vertex -9.78148 -2.07912 20
      vertex -9.13545 -4.06737 -20
      vertex -9.13545 -4.06737 20
    endloop
  endfacet
  facet normal -0.866025 -0.5 0
    outer loop
      vertex -8.09017 -5.87785 -20
      vertex -9.13545 -4.06737 20
      vertex -9.13545 -4.06737 -20
    endloop
  endfacet
  facet normal -0.866025 -0.5 0
    outer loop
      vertex -9.13545 -4.06737 20
      vertex -8.09017 -5.87785 -20
      vertex -8.09017 -5.87785 20
    endloop
  endfacet
  facet normal -0.743145 -0.669131 0
    outer loop
      vertex -6.69131 -7.43145 -20
      vertex -8.09017 -5.87785 20
      vertex -8.09017 -5.87785 -20
    endloop
  endfacet
  facet normal -0.743145 -0.669131 0
    outer loop
      vertex -8.09017 -5.87785 20
      vertex -6.69131 -7.43145 -20
      vertex -6.69131 -7.43145 20
    endloop
  endfacet
  facet normal -0.587785 -0.809017 0
    outer loop
      vertex -6.69131 -7.43145 -20
      vertex -5 -8.66025 20
      vertex -6.69131 -7.43145 20
    endloop
  endfacet
  facet normal -0.587785 -0.809017 -0
    outer loop
      vertex -5 -8.66025 20
      vertex -6.69131 -7.43145 -20
      vertex -5 -8.66025 -20
    endloop
  endfacet
  facet normal -0.406736 -0.913546 0
    outer loop
      vertex -5 -8.66025 -20
      vertex -3.09017 -9.51056 20
      vertex -5 -8.66025 20
    endloop
  endfacet
  facet normal -0.406736 -0.913546 -0
    outer loop
      vertex -3.09017 -9.51056 20
      vertex -5 -8.66025 -20
      vertex -3.09017 -9.51056 -20
    endloop
  endfacet
  facet normal -0.207912 -0.978148 0
    outer loop
      vertex -3.09017 -9.51056 -20
      vertex -1.04528 -9.94522 20
      vertex -3.09017 -9.51056 20
    endloop
  endfacet
  facet normal -0.207912 -0.978148 -0
    outer loop
      vertex -1.04528 -9.94522 20
      vertex -3.09017 -9.51056 -20
      vertex -1.04528 -9.94522 -20
    endloop
  endfacet
  facet normal 0 -1 0
    outer loop
      vertex -1.04528 -9.94522 -20
      vertex 1.04528 -9.94522 20
      vertex -1.04528 -9.94522 20
    endloop
  endfacet
  facet normal 0 -1 -0
    outer loop
      vertex 1.04528 -9.94522 20
      vertex -1.04528 -9.94522 -20
      vertex 1.04528 -9.94522 -20
    endloop
  endfacet
  facet normal 0.207912 -0.978148 0
    outer loop
      vertex 1.04528 -9.94522 -20
      vertex 3.09017 -9.51056 20
      vertex 1.04528 -9.94522 20
    endloop
  endfacet
  facet normal 0.207912 -0.978148 0
    outer loop
      vertex 3.09017 -9.51056 20
      vertex 1.04528 -9.94522 -20
      vertex 3.09017 -9.51056 -20
    endloop
  endfacet
  facet normal 0.406736 -0.913546 0
    outer loop
      vertex 3.09017 -9.51056 -20
      vertex 5 -8.66025 20
      vertex 3.09017 -9.51056 20
    endloop
  endfacet
  facet normal 0.406736 -0.913546 0
    outer loop
      vertex 5 -8.66025 20
      vertex 3.09017 -9.51056 -20
      vertex 5 -8.66025 -20
    endloop
  endfacet
  facet normal 0.587785 -0.809017 0
    outer loop
      vertex 5 -8.66025 -20
      vertex 6.69131 -7.43145 20
      vertex 5 -8.66025 20
    endloop
  endfacet
  facet normal 0.587785 -0.809017 0
    outer loop
      vertex 6.69131 -7.43145 20
      vertex 5 -8.66025 -20
      vertex 6.69131 -7.43145 -20
    endloop
  endfacet
  facet normal 0.743145 -0.669131 0
    outer loop
      vertex 6.69131 -7.43145 20
      vertex 8.09017 -5.87785 -20
      vertex 8.09017 -5.87785 20
    endloop
  endfacet
  facet normal 0.743145 -0.669131 0
    outer loop
      vertex 8.09017 -5.87785 -20
      vertex 6.69131 -7.43145 20
      vertex 6.69131 -7.43145 -20
    endloop
  endfacet
  facet normal 0.866025 -0.5 0
    outer loop
      vertex 8.09017 -5.87785 20
      vertex 9.13545 -4.06737 -20
      vertex 9.13545 -4.06737 20
    endloop
  endfacet
  facet normal 0.866025 -0.5 0
    outer loop
      vertex 9.13545 -4.06737 -20
      vertex 8.09017 -5.87785 20
      vertex 8.09017 -5.87785 -20
    endloop
  endfacet
  facet normal 0.951056 -0.309017 0
    outer loop
      vertex 9.13545 -4.06737 20
      vertex 9.78148 -2.07912 -20
      vertex 9.78148 -2.07912 20
    endloop
  endfacet
  facet normal 0.951056 -0.309017 0
    outer loop
      vertex 9.78148 -2.07912 -20
      vertex 9.13545 -4.06737 20
      vertex 9.13545 -4.06737 -20
    endloop
  endfacet
  facet normal 0.994522 -0.104528 0
    outer loop
      vertex 9.78148 -2.07912 20
      vertex 10 0 -20
      vertex 10 0 20
    endloop
  endfacet
  facet normal 0.994522 -0.104528 0
    outer loop
      vertex 10 0 -20
      vertex 9.78148 -2.07912 20
      vertex 9.78148 -2.07912 -20
    endloop
  endfacet
  facet normal 0 0 -1
    outer loop
      vertex 9.78148 -2.07912 -20
      vertex 9.78148 2.07912 -20
      vertex 10 0 -20
    endloop
  endfacet
  facet normal 0 0 -1
    outer loop
      vertex 9.13545 -4.06737 -20
      vertex 9.78148 2.07912 -20
      vertex 9.78148 -2.07912 -20
    endloop
  endfacet
  facet normal 0 0 -1
    outer loop
      vertex 9.13545 -4.06737 -20
      vertex 9.13545 4.06737 -20
      vertex 9.78148 2.07912 -20
    endloop
  endfacet
  facet normal 0 0 -1
    outer loop
      vertex 8.09017 -5.87785 -20
      vertex 9.13545 4.06737 -20
      vertex 9.13545 -4.06737 -20
    endloop
  endfacet
  facet normal 0 0 -1
    outer loop
      vertex 8.09017 -5.87785 -20
      vertex 8.09017 5.87785 -20
      vertex 9.13545 4.06737 -20
    endloop
  endfacet
  facet normal 0 0 -1
    outer loop
      vertex 6.69131 -7.43145 -20
      vertex 8.09017 5.87785 -20
      vertex 8.09017 -5.87785 -20
    endloop
  endfacet
  facet normal 0 0 -1
    outer loop
      vertex 6.69131 -7.43145 -20
      vertex 6.69131 7.43145 -20
      vertex 8.09017 5.87785 -20
    endloop
  endfacet
  facet normal 0 0 -1
    outer loop
      vertex 5 -8.66025 -20
      vertex 6.69131 7.43145 -20
      vertex 6.69131 -7.43145 -20
    endloop
  endfacet
  facet normal 0 0 -1
    outer loop
      vertex 5 -8.66025 -20
      vertex 5 8.66025 -20
      vertex 6.69131 7.43145 -20
    endloop
  endfacet
  facet normal 0 0 -1
    outer loop
      vertex 3.09017 -9.51056 -20
      vertex 5 8.66025 -20
      vertex 5 -8.66025 -20
    endloop
  endfacet
  facet normal 0 0 -1
    outer loop
      vertex 3.09017 -9.51056 -20
      vertex 3.09017 9.51056 -20
      vertex 5 8.66025 -20
    endloop
  endfacet
  facet normal 0 0 -1
    outer loop
      vertex 1.04528 -9.94522 -20
      vertex 3.09017 9.51056 -20
      vertex 3.09017 -9.51056 -20
    endloop
  endfacet
  facet normal 0 0 -1
    outer loop
      vertex 1.04528 -9.94522 -20
      vertex 1.04528 9.94522 -20
      vertex 3.09017 9.51056 -20
    endloop
  endfacet
  facet normal 0 0 -1
    outer loop
      vertex -1.04528 -9.94522 -20
      vertex 1.04528 9.94522 -20
      vertex 1.04528 -9.94522 -20
    endloop
  endfacet
  facet normal 0 0 -1
    outer loop
      vertex -1.04528 -9.94522 -20
      vertex -1.04528 9.94522 -20
      vertex 1.04528 9.94522 -20
    endloop
  endfacet
  facet normal 0 0 -1
    outer loop
      vertex -3.09017 -9.51056 -20
      vertex -1.04528 9.94522 -20
      vertex -1.04528 -9.94522 -20
    endloop
  endfacet
  facet normal 0 0 -1
    outer loop
      vertex -3.09017 -9.51056 -20
      vertex -3.09017 9.51056 -20
      vertex -1.04528 9.94522 -20
    endloop
  endfacet
  facet normal 0 0 -1
    outer loop
      vertex -5 -8.66025 -20
      vertex -3.09017 9.51056 -20
      vertex -3.09017 -9.51056 -20
    endloop
  endfacet
  facet normal 0 0 -1
    outer loop
      vertex -5 -8.66025 -20
      vertex -5 8.66025 -20
      vertex -3.09017 9.51056 -20
    endloop
  endfacet
  facet normal 0 0 -1
    outer loop
      vertex -6.69131 -7.43145 -20
      vertex -5 8.66025 -20
      vertex -5 -8.66025 -20
    endloop
  endfacet
  facet normal 0 0 -1
    outer loop
      vertex -6.69131 -7.43145 -20
      vertex -6.69131 7.43145 -20
      vertex -5 8.66025 -20
    endloop
  endfacet
  facet normal 0 0 -1
    outer loop
      vertex -8.09017 -5.87785 -20
      vertex -6.69131 7.43145 -20
      vertex -6.69131 -7.43145 -20
    endloop
  endfacet
  facet normal 0 0 -1
    outer loop
      vertex -8.09017 -5.87785 -20
      vertex -8.09017 5.87785 -20
      vertex -6.69131 7.43145 -20
    endloop
  endfacet
  facet normal 0 0 -1
    outer loop
      vertex -9.13545 -4.06737 -20
      vertex -8.09017 5.87785 -20
      vertex -8.09017 -5.87785 -20
    endloop
  endfacet
  facet normal 0 0 -1
    outer loop
      vertex -9.13545 -4.06737 -20
      vertex -9.13545 4.06737 -20
      vertex -8.09017 5.87785 -20
    endloop
  endfacet
  facet normal 0 0 -1
    outer loop
      vertex -9.78148 -2.07912 -20
      vertex -9.13545 4.06737 -20
      vertex -9.13545 -4.06737 -20
    endloop
  endfacet
  facet normal 0 0 -1
    outer loop
      vertex -9.78148 -2.07912 -20
      vertex -9.78148 2.07912 -20
      vertex -9.13545 4.06737 -20
    endloop
  endfacet
  facet normal 0 -0 -1
    outer loop
      vertex -9.78148 2.07912 -20
      vertex -9.78148 -2.07912 -20
      vertex -10 5.66554e-15 -20
    endloop
  endfacet
  facet normal 0 0 1
    outer loop
      vertex 9.78148 2.07912 20
      vertex 9.78148 -2.07912 20
      vertex 10 0 20
    endloop
  endfacet
  facet normal 0 0 1
    outer loop
      vertex 9.13545 4.06737 20
      vertex 9.78148 -2.07912 20
      vertex 9.78148 2.07912 20
    endloop
  endfacet
  facet normal 0 0 1
    outer loop
      vertex 9.13545 4.06737 20
      vertex 9.13545 -4.06737 20
      vertex 9.78148 -2.07912 20
    endloop
  endfacet
  facet normal 0 0 1
    outer loop
      vertex 8.09017 5.87785 20
      vertex 9.13545 -4.06737 20
      vertex 9.13545 4.06737 20
    endloop
  endfacet
  facet normal 0 0 1
    outer loop
      vertex 8.09017 5.87785 20
      vertex 8.09017 -5.87785 20
      vertex 9.13545 -4.06737 20
    endloop
  endfacet
  facet normal 0 0 1
    outer loop
      vertex 6.69131 7.43145 20
      vertex 8.09017 -5.87785 20
      vertex 8.09017 5.87785 20
    endloop
  endfacet
  facet normal 0 0 1
    outer loop
      vertex 6.69131 7.43145 20
      vertex 6.69131 -7.43145 20
      vertex 8.09017 -5.87785 20
    endloop
  endfacet
  facet normal 0 0 1
    outer loop
      vertex 5 8.66025 20
      vertex 6.69131 -7.43145 20
      vertex 6.69131 7.43145 20
    endloop
  endfacet
  facet normal 0 0 1
    outer loop
      vertex 5 8.66025 20
      vertex 5 -8.66025 20
      vertex 6.69131 -7.43145 20
    endloop
  endfacet
  facet normal 0 0 1
    outer loop
      vertex 3.09017 9.51056 20
      vertex 5 -8.66025 20
      vertex 5 8.66025 20
    endloop
  endfacet
  facet normal 0 0 1
    outer loop
      vertex 3.09017 9.51056 20
      vertex 3.09017 -9.51056 20
      vertex 5 -8.66025 20
    endloop
  endfacet
  facet normal 0 0 1
    outer loop
      vertex 1.04528 9.94522 20
      vertex 3.09017 -9.51056 20
      vertex 3.09017 9.51056 20
    endloop
  endfacet
  facet normal 0 0 1
    outer loop
      vertex 1.04528 9.94522 20
      vertex 1.04528 -9.94522 20
      vertex 3.09017 -9.51056 20
    endloop
  endfacet
  facet normal -0 0 1
    outer loop
      vertex -1.04528 9.94522 20
      vertex 1.04528 -9.94522 20
      vertex 1.04528 9.94522 20
    endloop
  endfacet
  facet normal 0 0 1
    outer loop
      vertex -1.04528 9.94522 20
      vertex -1.04528 -9.94522 20
      vertex 1.04528 -9.94522 20
    endloop
  endfacet
  facet normal -0 0 1
    outer loop
      vertex -3.09017 9.51056 20
      vertex -1.04528 -9.94522 20
      vertex -1.04528 9.94522 20
    endloop
  endfacet
  facet normal 0 0 1
    outer loop
      vertex -3.09017 9.51056 20
      vertex -3.09017 -9.51056 20
      vertex -1.04528 -9.94522 20
    endloop
  endfacet
  facet normal -0 0 1
    outer loop
      vertex -5 8.66025 20
      vertex -3.09017 -9.51056 20
      vertex -3.09017 9.51056 20
    endloop
  endfacet
  facet normal 0 0 1
    outer loop
      vertex -5 8.66025 20
      vertex -5 -8.66025 20
      vertex -3.09017 -9.51056 20
    endloop
  endfacet
  facet normal -0 0 1
    outer loop
      vertex -6.69131 7.43145 20
      vertex -5 -8.66025 20
      vertex -5 8.66025 20
    endloop
  endfacet
  facet normal 0 0 1
    outer loop
      vertex -6.69131 7.43145 20
      vertex -6.69131 -7.43145 20
      vertex -5 -8.66025 20
    endloop
  endfacet
  facet normal -0 0 1
    outer loop
      vertex -8.09017 5.87785 20
      vertex -6.69131 -7.43145 20
      vertex -6.69131 7.43145 20
    endloop
  endfacet
  facet normal 0 0 1
    outer loop
      vertex -8.09017 5.87785 20
      vertex -8.09017 -5.87785 20
      vertex -6.69131 -7.43145 20
    endloop
  endfacet
  facet normal -0 0 1
    outer loop
      vertex -9.13545 4.06737 20
      vertex -8.09017 -5.87785 20
      vertex -8.09017 5.87785 20
    endloop
  endfacet
  facet normal 0 0 1
    outer loop
      vertex -9.13545 4.06737 20
      vertex -9.13545 -4.06737 20
      vertex -8.09017 -5.87785 20
    endloop
  endfacet
  facet normal -0 0 1
    outer loop
      vertex -9.78148 2.07912 20
      vertex -9.13545 -4.06737 20
      vertex -9.13545 4.06737 20
    endloop
  endfacet
  facet normal 0 0 1
    outer loop
      vertex -9.78148 2.07912 20
      vertex -9.78148 -2.07912 20
      vertex -9.13545 -4.06737 20
    endloop
  endfacet
  facet normal 0 -0 1
    outer loop
      vertex -9.78148 -2.07912 20
      vertex -9.78148 2.07912 20
      vertex -10 5.66554e-15 20
    endloop
  endfacet
endsolid OpenSCAD_Model
