solid OpenSCAD_Model
  facet normal 0.900969 -0.433884 0
    outer loop
      vertex 99.6926 -29.7096 2
      vertex 114 0 0
      vertex 114 0 2
    endloop
  endfacet
  facet normal 0.900969 -0.433884 0
    outer loop
      vertex 114 0 0
      vertex 99.6926 -29.7096 2
      vertex 99.6926 -29.7096 0
    endloop
  endfacet
  facet normal 0.222521 0.974928 -0
    outer loop
      vertex 99.6926 29.7096 0
      vertex 67.5442 37.0473 2
      vertex 99.6926 29.7096 2
    endloop
  endfacet
  facet normal 0.222521 0.974928 0
    outer loop
      vertex 67.5442 37.0473 2
      vertex 99.6926 29.7096 0
      vertex 67.5442 37.0473 0
    endloop
  endfacet
  facet normal -0.62349 -0.781831 0
    outer loop
      vertex 41.7632 -16.4876 0
      vertex 67.5442 -37.0473 2
      vertex 41.7632 -16.4876 2
    endloop
  endfacet
  facet normal -0.62349 -0.781831 -0
    outer loop
      vertex 67.5442 -37.0473 2
      vertex 41.7632 -16.4876 0
      vertex 67.5442 -37.0473 0
    endloop
  endfacet
  facet normal 0.900969 0.433884 0
    outer loop
      vertex 114 0 2
      vertex 99.6926 29.7096 0
      vertex 99.6926 29.7096 2
    endloop
  endfacet
  facet normal 0.900969 0.433884 0
    outer loop
      vertex 99.6926 29.7096 0
      vertex 114 0 2
      vertex 114 0 0
    endloop
  endfacet
  facet normal 0.222521 -0.974928 0
    outer loop
      vertex 67.5442 -37.0473 0
      vertex 99.6926 -29.7096 2
      vertex 67.5442 -37.0473 2
    endloop
  endfacet
  facet normal 0.222521 -0.974928 0
    outer loop
      vertex 99.6926 -29.7096 2
      vertex 67.5442 -37.0473 0
      vertex 99.6926 -29.7096 0
    endloop
  endfacet
  facet normal -0.62349 0.781831 0
    outer loop
      vertex 67.5442 37.0473 0
      vertex 41.7632 16.4876 2
      vertex 67.5442 37.0473 2
    endloop
  endfacet
  facet normal -0.62349 0.781831 0
    outer loop
      vertex 41.7632 16.4876 2
      vertex 67.5442 37.0473 0
      vertex 41.7632 16.4876 0
    endloop
  endfacet
  facet normal -1 0 0
    outer loop
      vertex 41.7632 -16.4876 0
      vertex 41.7632 16.4876 2
      vertex 41.7632 16.4876 0
    endloop
  endfacet
  facet normal -1 -0 0
    outer loop
      vertex 41.7632 16.4876 2
      vertex 41.7632 -16.4876 0
      vertex 41.7632 -16.4876 2
    endloop
  endfacet
  facet normal 0 0 -1
    outer loop
      vertex 99.6926 -29.7096 0
      vertex 99.6926 29.7096 0
      vertex 114 0 0
    endloop
  endfacet
  facet normal 0 0 -1
    outer loop
      vertex 67.5442 -37.0473 0
      vertex 99.6926 29.7096 0
      vertex 99.6926 -29.7096 0
    endloop
  endfacet
  facet normal 0 0 -1
    outer loop
      vertex 67.5442 -37.0473 0
      vertex 67.5442 37.0473 0
      vertex 99.6926 29.7096 0
    endloop
  endfacet
  facet normal 0 0 -1
    outer loop
      vertex 41.7632 -16.4876 0
      vertex 67.5442 37.0473 0
      vertex 67.5442 -37.0473 0
    endloop
  endfacet
  facet normal 0 0 -1
    outer loop
      vertex 67.5442 37.0473 0
      vertex 41.7632 -16.4876 0
      vertex 41.7632 16.4876 0
    endloop
  endfacet
  facet normal 0 0 1
    outer loop
      vertex 99.6926 29.7096 2
      vertex 99.6926 -29.7096 2
      vertex 114 0 2
    endloop
  endfacet
  facet normal 0 0 1
    outer loop
      vertex 67.5442 37.0473 2
      vertex 99.6926 -29.7096 2
      vertex 99.6926 29.7096 2
    endloop
  endfacet
  facet normal 0 0 1
    outer loop
      vertex 67.5442 37.0473 2
      vertex 67.5442 -37.0473 2
      vertex 99.6926 -29.7096 2
    endloop
  endfacet
  facet normal -0 0 1
    outer loop
      vertex 41.7632 16.4876 2
      vertex 67.5442 -37.0473 2
      vertex 67.5442 37.0473 2
    endloop
  endfacet
  facet normal 0 0 1
    outer loop
      vertex 67.5442 -37.0473 2
      vertex 41.7632 16.4876 2
      vertex 41.7632 -16.4876 2
    endloop
  endfacet
  facet normal 0.809017 -0.587785 0
    outer loop
      vertex 170.816 -33.287 2
      vertex 195 0 0
      vertex 195 0 2
    endloop
  endfacet
  facet normal 0.809017 -0.587785 0
    outer loop
      vertex 195 0 0
      vertex 170.816 -33.287 2
      vertex 170.816 -33.287 0
    endloop
  endfacet
  facet normal 0 0 -1
    outer loop
      vertex 170.816 -33.287 0
      vertex 170.816 33.287 0
      vertex 195 0 0
    endloop
  endfacet
  facet normal 0 0 -1
    outer loop
      vertex 131.684 -20.5725 0
      vertex 170.816 33.287 0
      vertex 170.816 -33.287 0
    endloop
  endfacet
  facet normal 0 0 -1
    outer loop
      vertex 170.816 33.287 0
      vertex 131.684 -20.5725 0
      vertex 131.684 20.5725 0
    endloop
  endfacet
  facet normal 0.809017 0.587785 0
    outer loop
      vertex 195 0 2
      vertex 170.816 33.287 0
      vertex 170.816 33.287 2
    endloop
  endfacet
  facet normal 0.809017 0.587785 0
    outer loop
      vertex 170.816 33.287 0
      vertex 195 0 2
      vertex 195 0 0
    endloop
  endfacet
  facet normal 0 0 1
    outer loop
      vertex 170.816 33.287 2
      vertex 170.816 -33.287 2
      vertex 195 0 2
    endloop
  endfacet
  facet normal -0 0 1
    outer loop
      vertex 131.684 20.5725 2
      vertex 170.816 -33.287 2
      vertex 170.816 33.287 2
    endloop
  endfacet
  facet normal 0 0 1
    outer loop
      vertex 170.816 -33.287 2
      vertex 131.684 20.5725 2
      vertex 131.684 -20.5725 2
    endloop
  endfacet
  facet normal -1 0 0
    outer loop
      vertex 131.684 -20.5725 0
      vertex 131.684 20.5725 2
      vertex 131.684 20.5725 0
    endloop
  endfacet
  facet normal -1 -0 0
    outer loop
      vertex 131.684 20.5725 2
      vertex 131.684 -20.5725 0
      vertex 131.684 -20.5725 2
    endloop
  endfacet
  facet normal -0.309017 0.951057 0
    outer loop
      vertex 170.816 33.287 0
      vertex 131.684 20.5725 2
      vertex 170.816 33.287 2
    endloop
  endfacet
  facet normal -0.309017 0.951057 0
    outer loop
      vertex 131.684 20.5725 2
      vertex 170.816 33.287 0
      vertex 131.684 20.5725 0
    endloop
  endfacet
  facet normal -0.309017 -0.951057 0
    outer loop
      vertex 131.684 -20.5725 0
      vertex 170.816 -33.287 2
      vertex 131.684 -20.5725 2
    endloop
  endfacet
  facet normal -0.309017 -0.951057 -0
    outer loop
      vertex 170.816 -33.287 2
      vertex 131.684 -20.5725 0
      vertex 170.816 -33.287 0
    endloop
  endfacet
  facet normal -0 0 -1
    outer loop
      vertex 258 0 0
      vertex 216 -24.2487 0
      vertex 216 24.2487 0
    endloop
  endfacet
  facet normal 0.5 -0.866025 0
    outer loop
      vertex 216 -24.2487 0
      vertex 258 0 2
      vertex 216 -24.2487 2
    endloop
  endfacet
  facet normal 0.5 -0.866025 0
    outer loop
      vertex 258 0 2
      vertex 216 -24.2487 0
      vertex 258 0 0
    endloop
  endfacet
  facet normal -1 0 0
    outer loop
      vertex 216 -24.2487 0
      vertex 216 24.2487 2
      vertex 216 24.2487 0
    endloop
  endfacet
  facet normal -1 -0 0
    outer loop
      vertex 216 24.2487 2
      vertex 216 -24.2487 0
      vertex 216 -24.2487 2
    endloop
  endfacet
  facet normal 0 0 1
    outer loop
      vertex 216 24.2487 2
      vertex 216 -24.2487 2
      vertex 258 0 2
    endloop
  endfacet
  facet normal 0.5 0.866025 -0
    outer loop
      vertex 258 0 0
      vertex 216 24.2487 2
      vertex 258 0 2
    endloop
  endfacet
  facet normal 0.5 0.866025 0
    outer loop
      vertex 216 24.2487 2
      vertex 258 0 0
      vertex 216 24.2487 0
    endloop
  endfacet
endsolid OpenSCAD_Model
