solid OpenSCAD_Model
  facet normal 0.866025 -0.5 0
    outer loop
      vertex 16 -27.7128 2
      vertex 32 0 0
      vertex 32 0 2
    endloop
  endfacet
  facet normal 0.866025 -0.5 0
    outer loop
      vertex 32 0 0
      vertex 16 -27.7128 2
      vertex 16 -27.7128 0
    endloop
  endfacet
  facet normal 0 1 -0
    outer loop
      vertex 16 27.7128 0
      vertex -16 27.7128 2
      vertex 16 27.7128 2
    endloop
  endfacet
  facet normal 0 1 0
    outer loop
      vertex -16 27.7128 2
      vertex 16 27.7128 0
      vertex -16 27.7128 0
    endloop
  endfacet
  facet normal 0 0 -1
    outer loop
      vertex 16 -27.7128 0
      vertex 16 27.7128 0
      vertex 32 0 0
    endloop
  endfacet
  facet normal 0 0 -1
    outer loop
      vertex 16 -27.7128 0
      vertex -16 27.7128 0
      vertex 16 27.7128 0
    endloop
  endfacet
  facet normal 0 0 -1
    outer loop
      vertex -16 -27.7128 0
      vertex -16 27.7128 0
      vertex 16 -27.7128 0
    endloop
  endfacet
  facet normal 0 0 -1
    outer loop
      vertex -16 27.7128 0
      vertex -16 -27.7128 0
      vertex -32 0 0
    endloop
  endfacet
  facet normal 0.866025 0.5 0
    outer loop
      vertex 32 0 2
      vertex 16 27.7128 0
      vertex 16 27.7128 2
    endloop
  endfacet
  facet normal 0.866025 0.5 0
    outer loop
      vertex 16 27.7128 0
      vertex 32 0 2
      vertex 32 0 0
    endloop
  endfacet
  facet normal 0 -1 0
    outer loop
      vertex -16 -27.7128 0
      vertex 16 -27.7128 2
      vertex -16 -27.7128 2
    endloop
  endfacet
  facet normal 0 -1 -0
    outer loop
      vertex 16 -27.7128 2
      vertex -16 -27.7128 0
      vertex 16 -27.7128 0
    endloop
  endfacet
  facet normal -0.866025 0.5 0
    outer loop
      vertex -32 0 0
      vertex -16 27.7128 2
      vertex -16 27.7128 0
    endloop
  endfacet
  facet normal -0.866025 0.5 0
    outer loop
      vertex -16 27.7128 2
      vertex -32 0 0
      vertex -32 0 2
    endloop
  endfacet
  facet normal -0.866025 -0.5 0
    outer loop
      vertex -16 -27.7128 0
      vertex -32 0 2
      vertex -32 0 0
    endloop
  endfacet
  facet normal -0.866025 -0.5 0
    outer loop
      vertex -32 0 2
      vertex -16 -27.7128 0
      vertex -16 -27.7128 2
    endloop
  endfacet
  facet normal 0 0 1
    outer loop
      vertex 16 27.7128 2
      vertex 16 -27.7128 2
      vertex 32 0 2
    endloop
  endfacet
  facet normal -0 0 1
    outer loop
      vertex -16 27.7128 2
      vertex 16 -27.7128 2
      vertex 16 27.7128 2
    endloop
  endfacet
  facet normal 0 0 1
    outer loop
      vertex -16 27.7128 2
      vertex -16 -27.7128 2
      vertex 16 -27.7128 2
    endloop
  endfacet
  facet normal 0 -0 1
    outer loop
      vertex -16 -27.7128 2
      vertex -16 27.7128 2
      vertex -32 0 2
    endloop
  endfacet
  facet normal -0.309017 -0.951057 0
    outer loop
      vertex 41.6844 -20.5725 0
      vertex 80.8156 -33.287 2
      vertex 41.6844 -20.5725 2
    endloop
  endfacet
  facet normal -0.309017 -0.951057 -0
    outer loop
      vertex 80.8156 -33.287 2
      vertex 41.6844 -20.5725 0
      vertex 80.8156 -33.287 0
    endloop
  endfacet
  facet normal 0.809017 -0.587785 0
    outer loop
      vertex 80.8156 -33.287 2
      vertex 105 0 0
      vertex 105 0 2
    endloop
  endfacet
  facet normal 0.809017 -0.587785 0
    outer loop
      vertex 105 0 0
      vertex 80.8156 -33.287 2
      vertex 80.8156 -33.287 0
    endloop
  endfacet
  facet normal 0 0 -1
    outer loop
      vertex 80.8156 -33.287 0
      vertex 80.8156 33.287 0
      vertex 105 0 0
    endloop
  endfacet
  facet normal 0 0 -1
    outer loop
      vertex 41.6844 -20.5725 0
      vertex 80.8156 33.287 0
      vertex 80.8156 -33.287 0
    endloop
  endfacet
  facet normal 0 0 -1
    outer loop
      vertex 80.8156 33.287 0
      vertex 41.6844 -20.5725 0
      vertex 41.6844 20.5725 0
    endloop
  endfacet
  facet normal 0 0 1
    outer loop
      vertex 80.8156 33.287 2
      vertex 80.8156 -33.287 2
      vertex 105 0 2
    endloop
  endfacet
  facet normal -0 0 1
    outer loop
      vertex 41.6844 20.5725 2
      vertex 80.8156 -33.287 2
      vertex 80.8156 33.287 2
    endloop
  endfacet
  facet normal 0 0 1
    outer loop
      vertex 80.8156 -33.287 2
      vertex 41.6844 20.5725 2
      vertex 41.6844 -20.5725 2
    endloop
  endfacet
  facet normal -1 0 0
    outer loop
      vertex 41.6844 -20.5725 0
      vertex 41.6844 20.5725 2
      vertex 41.6844 20.5725 0
    endloop
  endfacet
  facet normal -1 -0 0
    outer loop
      vertex 41.6844 20.5725 2
      vertex 41.6844 -20.5725 0
      vertex 41.6844 -20.5725 2
    endloop
  endfacet
  facet normal -0.309017 0.951057 0
    outer loop
      vertex 80.8156 33.287 0
      vertex 41.6844 20.5725 2
      vertex 80.8156 33.287 2
    endloop
  endfacet
  facet normal -0.309017 0.951057 0
    outer loop
      vertex 41.6844 20.5725 2
      vertex 80.8156 33.287 0
      vertex 41.6844 20.5725 0
    endloop
  endfacet
  facet normal 0.809017 0.587785 0
    outer loop
      vertex 105 0 2
      vertex 80.8156 33.287 0
      vertex 80.8156 33.287 2
    endloop
  endfacet
  facet normal 0.809017 0.587785 0
    outer loop
      vertex 80.8156 33.287 0
      vertex 105 0 2
      vertex 105 0 0
    endloop
  endfacet
  facet normal -0 0 -1
    outer loop
      vertex 168 0 0
      vertex 126 -24.2487 0
      vertex 126 24.2487 0
    endloop
  endfacet
  facet normal 0.5 -0.866025 0
    outer loop
      vertex 126 -24.2487 0
      vertex 168 0 2
      vertex 126 -24.2487 2
    endloop
  endfacet
  facet normal 0.5 -0.866025 0
    outer loop
      vertex 168 0 2
      vertex 126 -24.2487 0
      vertex 168 0 0
    endloop
  endfacet
  facet normal -1 0 0
    outer loop
      vertex 126 -24.2487 0
      vertex 126 24.2487 2
      vertex 126 24.2487 0
    endloop
  endfacet
  facet normal -1 -0 0
    outer loop
      vertex 126 24.2487 2
      vertex 126 -24.2487 0
      vertex 126 -24.2487 2
    endloop
  endfacet
  facet normal 0 0 1
    outer loop
      vertex 126 24.2487 2
      vertex 126 -24.2487 2
      vertex 168 0 2
    endloop
  endfacet
  facet normal 0.5 0.866025 -0
    outer loop
      vertex 168 0 0
      vertex 126 24.2487 2
      vertex 168 0 2
    endloop
  endfacet
  facet normal 0.5 0.866025 0
    outer loop
      vertex 126 24.2487 2
      vertex 168 0 0
      vertex 126 24.2487 0
    endloop
  endfacet
endsolid OpenSCAD_Model
